<?xml version="1.0" encoding="UTF-8"?>
<svg xmlns="http://www.w3.org/2000/svg" xmlns:xlink="http://www.w3.org/1999/xlink" width="16" height="16" viewBox="0 0 16 16">
<path fill-rule="nonzero" fill="rgb(45.098039%, 81.176471%, 32.156863%)" fill-opacity="1" d="M 2.949219 2.339844 L 12.601562 2.339844 L 12.96875 2.351562 L 13.078125 2.371094 L 13.171875 2.421875 L 13.269531 2.5 L 13.328125 2.550781 L 13.398438 2.628906 L 13.46875 2.699219 L 13.578125 2.839844 L 13.628906 2.941406 L 13.648438 3.03125 L 13.660156 3.398438 L 13.660156 10.988281 L 13.648438 12.859375 L 13.628906 13.050781 L 13.570312 13.160156 L 13.441406 13.308594 L 13.328125 13.429688 L 13.21875 13.53125 L 13.140625 13.589844 L 13.050781 13.628906 L 12.820312 13.648438 L 3.210938 13.648438 L 2.929688 13.628906 L 2.808594 13.558594 L 2.679688 13.441406 L 2.601562 13.371094 L 2.5 13.261719 L 2.410156 13.140625 L 2.351562 13.070312 L 2.328125 12.960938 L 2.308594 12.621094 L 2.300781 12.199219 L 2.300781 6.351562 L 2.308594 5.191406 L 2.320312 3.058594 L 2.359375 2.910156 L 2.429688 2.800781 L 2.53125 2.691406 L 2.601562 2.609375 L 2.691406 2.519531 L 2.769531 2.449219 L 2.839844 2.390625 L 2.910156 2.351562 Z M 2.949219 2.339844 "/>
<path fill-rule="nonzero" fill="rgb(99.215686%, 99.215686%, 99.215686%)" fill-opacity="1" d="M 11.371094 5.089844 L 11.488281 5.089844 L 11.589844 5.121094 L 11.730469 5.210938 L 11.851562 5.300781 L 11.988281 5.410156 L 12.039062 5.449219 L 12.039062 5.46875 L 12.078125 5.488281 L 12.21875 5.628906 L 12.300781 5.738281 L 12.339844 5.828125 L 12.339844 5.921875 L 12.289062 6.011719 L 12.179688 6.140625 L 12.109375 6.21875 L 12 6.351562 L 11.859375 6.519531 L 11.769531 6.621094 L 11.679688 6.730469 L 11.578125 6.839844 L 11.488281 6.949219 L 11.390625 7.058594 L 11.320312 7.140625 L 11.191406 7.28125 L 11.121094 7.359375 L 11.019531 7.46875 L 10.949219 7.550781 L 10.859375 7.648438 L 10.75 7.78125 L 10.679688 7.859375 L 10.558594 8 L 10.46875 8.109375 L 10.351562 8.238281 L 10.261719 8.351562 L 10.171875 8.449219 L 10.050781 8.578125 L 9.960938 8.679688 L 9.878906 8.78125 L 9.859375 8.78125 L 9.839844 8.820312 L 9.71875 8.949219 L 9.648438 9.039062 L 9.578125 9.121094 L 9.5 9.210938 L 9.410156 9.320312 L 9.300781 9.441406 L 9.230469 9.519531 L 9.128906 9.628906 L 9.039062 9.738281 L 8.878906 9.910156 L 8.769531 10.039062 L 8.660156 10.160156 L 8.589844 10.238281 L 8.480469 10.371094 L 8.390625 10.46875 L 8.320312 10.550781 L 8.210938 10.679688 L 8.089844 10.808594 L 8.019531 10.878906 L 7.949219 10.960938 L 7.878906 11.03125 L 7.800781 11.101562 L 7.679688 11.199219 L 7.5 11.308594 L 7.378906 11.351562 L 7.261719 11.351562 L 7.128906 11.308594 L 7 11.238281 L 6.839844 11.121094 L 6.738281 11.03125 L 6.660156 10.960938 L 6.609375 10.921875 L 6.609375 10.898438 L 6.589844 10.898438 L 6.589844 10.878906 L 6.550781 10.859375 L 5.289062 9.601562 L 5.289062 9.578125 L 5.269531 9.578125 L 5.269531 9.558594 L 5.25 9.558594 L 5.191406 9.488281 L 4.601562 8.898438 L 4.539062 8.828125 L 4.460938 8.761719 L 3.941406 8.238281 L 3.800781 8.078125 L 3.699219 7.921875 L 3.671875 7.828125 L 3.679688 7.730469 L 3.75 7.609375 L 3.859375 7.46875 L 4.109375 7.21875 L 4.21875 7.128906 L 4.328125 7.050781 L 4.429688 7 L 4.539062 7.011719 L 4.640625 7.058594 L 4.769531 7.160156 L 4.878906 7.25 L 4.878906 7.269531 L 4.921875 7.289062 L 5 7.371094 L 5.078125 7.441406 L 5.449219 7.808594 L 5.578125 7.929688 L 5.960938 8.308594 L 6 8.339844 L 6 8.359375 L 6.039062 8.378906 L 6.039062 8.398438 L 6.070312 8.410156 L 6.121094 8.46875 L 6.199219 8.539062 L 6.199219 8.558594 L 6.230469 8.570312 L 6.28125 8.628906 L 6.351562 8.691406 L 6.421875 8.769531 L 6.46875 8.808594 L 6.519531 8.859375 L 6.519531 8.878906 L 6.550781 8.890625 L 6.601562 8.949219 L 6.640625 8.980469 L 6.640625 9 L 6.679688 9.019531 L 6.71875 9.058594 L 6.71875 9.078125 L 6.761719 9.101562 L 6.839844 9.171875 L 6.910156 9.25 L 7 9.328125 L 7.070312 9.410156 L 7.179688 9.519531 L 7.25 9.609375 L 7.328125 9.640625 L 7.359375 9.640625 L 7.378906 9.589844 L 7.441406 9.5 L 7.550781 9.371094 L 7.789062 9.089844 L 7.910156 8.960938 L 8 8.851562 L 8.128906 8.699219 L 8.488281 8.28125 L 8.578125 8.179688 L 8.671875 8.070312 L 8.738281 8 L 8.808594 7.921875 L 8.929688 7.78125 L 9.019531 7.679688 L 9.089844 7.601562 L 9.210938 7.460938 L 9.300781 7.351562 L 9.421875 7.21875 L 9.511719 7.109375 L 9.648438 6.960938 L 9.71875 6.878906 L 9.839844 6.738281 L 9.96875 6.601562 L 10.039062 6.519531 L 10.148438 6.390625 L 10.511719 5.96875 L 10.640625 5.820312 L 10.769531 5.679688 L 10.839844 5.601562 L 10.929688 5.5 L 11 5.421875 L 11.148438 5.261719 L 11.269531 5.148438 Z M 11.371094 5.089844 "/>
<path fill-rule="nonzero" fill="rgb(25.490196%, 65.882353%, 8.627451%)" fill-opacity="1" d="M 2.378906 12.910156 L 2.441406 12.941406 L 2.441406 12.988281 L 2.460938 12.988281 L 2.511719 13.058594 L 2.550781 13.078125 L 2.621094 13.089844 L 2.699219 13.121094 L 2.738281 13.128906 L 2.761719 13.089844 L 2.789062 13.089844 L 2.828125 13.121094 L 2.96875 13.121094 L 3 13.128906 L 3.160156 13.140625 L 3.230469 13.148438 L 3.378906 13.148438 L 3.429688 13.160156 L 3.660156 13.171875 L 3.988281 13.171875 L 4.210938 13.179688 L 4.289062 13.171875 L 4.570312 13.179688 L 5.140625 13.179688 L 5.378906 13.171875 L 5.429688 13.179688 L 5.511719 13.179688 L 5.570312 13.171875 L 5.710938 13.179688 L 6.050781 13.179688 L 6.148438 13.171875 L 6.179688 13.160156 L 6.210938 13.171875 L 6.429688 13.179688 L 6.738281 13.179688 L 6.789062 13.171875 L 6.988281 13.160156 L 7.609375 13.160156 L 7.710938 13.148438 L 8.171875 13.148438 L 8.378906 13.140625 L 8.5 13.140625 L 8.628906 13.128906 L 8.679688 13.140625 L 8.738281 13.128906 L 9.570312 13.128906 L 9.660156 13.140625 L 10.058594 13.148438 L 10.210938 13.148438 L 10.261719 13.160156 L 10.339844 13.148438 L 10.449219 13.160156 L 11 13.160156 L 11.128906 13.171875 L 11.539062 13.171875 L 11.589844 13.179688 L 11.628906 13.171875 L 11.910156 13.171875 L 12.050781 13.160156 L 12.25 13.160156 L 12.308594 13.148438 L 12.398438 13.140625 L 12.539062 13.128906 L 12.671875 13.121094 L 12.78125 13.089844 L 12.859375 13.078125 L 12.960938 13.070312 L 13.050781 13.03125 L 13.070312 13.03125 L 13.078125 13 L 13.148438 13 L 13.191406 12.980469 L 13.21875 12.96875 L 13.300781 12.96875 L 13.300781 12.949219 L 13.328125 12.949219 L 13.339844 13 L 13.371094 13.011719 L 13.410156 13.070312 L 13.398438 13.140625 L 13.429688 13.238281 L 13.421875 13.261719 L 13.449219 13.269531 L 13.429688 13.320312 L 13.339844 13.421875 L 13.21875 13.53125 L 13.140625 13.589844 L 13.050781 13.628906 L 12.820312 13.648438 L 3.210938 13.648438 L 2.929688 13.628906 L 2.808594 13.558594 L 2.679688 13.441406 L 2.601562 13.371094 L 2.5 13.261719 L 2.410156 13.140625 L 2.351562 13.070312 L 2.351562 13.011719 L 2.371094 13.011719 L 2.359375 12.960938 L 2.378906 12.960938 Z M 2.378906 12.910156 "/>
<path fill-rule="nonzero" fill="rgb(25.882353%, 66.27451%, 9.411765%)" fill-opacity="1" d="M 9.320312 2.339844 L 12.601562 2.339844 L 12.96875 2.351562 L 13.078125 2.371094 L 13.171875 2.421875 L 13.199219 2.441406 L 13.21875 2.558594 L 13.210938 2.671875 L 13.171875 2.679688 L 13.148438 2.71875 L 13.050781 2.730469 L 12.988281 2.710938 L 12.910156 2.738281 L 12.878906 2.75 L 12.789062 2.71875 L 12.738281 2.71875 L 12.691406 2.679688 L 12.570312 2.660156 L 12.46875 2.640625 L 12.46875 2.621094 L 12.351562 2.628906 L 12.351562 2.609375 L 12.25 2.601562 L 12.21875 2.578125 L 12.121094 2.570312 L 11.988281 2.550781 L 11.808594 2.53125 L 11.769531 2.519531 L 11.769531 2.5 L 11.730469 2.511719 L 11.601562 2.511719 L 11.511719 2.5 L 11.410156 2.5 L 11.378906 2.488281 L 11.351562 2.5 L 11.238281 2.480469 L 11.160156 2.480469 L 11.089844 2.488281 L 11.03125 2.480469 L 10.46875 2.480469 L 10.449219 2.46875 L 10.359375 2.46875 L 10.300781 2.480469 L 10.191406 2.480469 L 10.109375 2.46875 L 9.960938 2.46875 L 9.929688 2.480469 L 9.871094 2.46875 L 9.511719 2.46875 L 9.460938 2.460938 L 8.941406 2.460938 L 8.851562 2.449219 L 8.800781 2.460938 L 8.710938 2.449219 L 8.601562 2.441406 L 8.519531 2.449219 L 8.449219 2.429688 L 8.429688 2.441406 L 8.328125 2.421875 L 8.328125 2.441406 L 8.230469 2.441406 L 8.191406 2.429688 L 8.140625 2.449219 L 8.140625 2.429688 L 8.011719 2.429688 L 7.871094 2.410156 L 7.808594 2.421875 L 7.671875 2.410156 L 7.640625 2.421875 L 7.601562 2.410156 L 7.449219 2.398438 L 7.421875 2.390625 L 7.390625 2.390625 L 7.300781 2.398438 L 7.230469 2.390625 L 7.191406 2.398438 L 7.140625 2.390625 L 7 2.378906 L 6.921875 2.390625 L 6.828125 2.398438 L 6.828125 2.378906 L 6.609375 2.378906 L 6.589844 2.371094 L 6.511719 2.378906 L 6.421875 2.378906 L 6.398438 2.371094 L 6.25 2.371094 L 6.210938 2.378906 L 6.148438 2.359375 L 6.148438 2.351562 Z M 9.320312 2.339844 "/>
<path fill-rule="nonzero" fill="rgb(25.490196%, 65.882353%, 8.627451%)" fill-opacity="1" d="M 2.328125 3.839844 L 2.371094 3.859375 L 2.390625 4.039062 L 2.398438 4.210938 L 2.398438 4.320312 L 2.410156 4.390625 L 2.410156 4.46875 L 2.398438 4.511719 L 2.421875 4.578125 L 2.429688 4.96875 L 2.429688 5.761719 L 2.441406 5.949219 L 2.441406 8.851562 L 2.429688 8.988281 L 2.421875 9.078125 L 2.441406 9.089844 L 2.421875 9.089844 L 2.421875 9.109375 L 2.441406 9.121094 L 2.429688 9.230469 L 2.421875 9.230469 L 2.398438 9.378906 L 2.378906 9.390625 L 2.371094 9.199219 L 2.339844 9.199219 L 2.328125 9.148438 L 2.339844 9.070312 L 2.339844 9 L 2.328125 8.980469 L 2.328125 8.851562 L 2.339844 8.800781 L 2.320312 8.71875 L 2.320312 8.148438 L 2.308594 7.808594 L 2.320312 7.769531 L 2.308594 7.640625 L 2.320312 7.601562 L 2.308594 7.578125 L 2.308594 5.191406 L 2.328125 4.050781 L 2.359375 4.011719 L 2.328125 3.980469 L 2.339844 3.960938 L 2.359375 3.960938 L 2.328125 3.898438 Z M 2.328125 3.839844 "/>
<path fill-rule="nonzero" fill="rgb(31.372549%, 70.588235%, 15.686275%)" fill-opacity="1" d="M 6 10.320312 L 6.039062 10.339844 L 6.570312 10.871094 L 6.589844 10.878906 L 6.589844 10.898438 L 6.609375 10.898438 L 6.609375 10.921875 L 6.648438 10.941406 L 6.71875 11.011719 L 6.769531 11.078125 L 6.71875 11.058594 L 6.679688 11.019531 L 6.679688 11 L 6.660156 11 L 6.660156 10.980469 L 6.640625 10.980469 L 6.640625 10.960938 L 6.601562 10.941406 L 6.570312 10.921875 L 6.570312 10.898438 L 6.550781 10.898438 L 6.550781 10.878906 L 6.53125 10.878906 L 6.460938 10.800781 L 6.410156 10.761719 L 6.410156 10.738281 L 6.390625 10.738281 L 6.390625 10.71875 L 6.371094 10.71875 L 6.300781 10.640625 L 6.300781 10.621094 L 6.25 10.601562 L 6.179688 10.519531 L 6.179688 10.5 L 6.160156 10.5 L 6.121094 10.449219 L 6.058594 10.398438 L 6.058594 10.378906 L 6.039062 10.378906 L 6.039062 10.359375 L 6.019531 10.359375 L 6.019531 10.339844 L 6 10.339844 Z M 6 10.320312 "/>
<path fill-rule="nonzero" fill="rgb(45.490196%, 81.568627%, 32.54902%)" fill-opacity="1" d="M 2.300781 6.351562 L 2.308594 6.351562 L 2.320312 6.769531 L 2.320312 7.589844 L 2.328125 7.609375 L 2.320312 7.648438 L 2.328125 7.808594 L 2.300781 7.820312 Z M 2.300781 6.351562 "/>
<path fill-rule="nonzero" fill="rgb(44.705882%, 81.176471%, 31.764706%)" fill-opacity="1" d="M 13.011719 2.359375 L 13.101562 2.378906 L 13.199219 2.441406 L 13.179688 2.449219 L 13.171875 2.480469 L 13.121094 2.46875 L 13.109375 2.421875 L 13.109375 2.449219 L 13.019531 2.460938 L 13.019531 2.441406 L 12.988281 2.429688 L 12.988281 2.410156 L 13.03125 2.390625 L 13.03125 2.371094 Z M 13.011719 2.359375 "/>
<path fill-rule="nonzero" fill="rgb(45.490196%, 81.568627%, 32.54902%)" fill-opacity="1" d="M 2.320312 3.839844 L 2.339844 3.871094 L 2.351562 3.921875 L 2.359375 3.960938 L 2.339844 3.980469 L 2.339844 4 L 2.371094 4.011719 L 2.359375 4.03125 L 2.339844 4.03125 L 2.328125 4.601562 L 2.320312 4.601562 Z M 2.320312 3.839844 "/>
<path fill-rule="nonzero" fill="rgb(25.490196%, 65.882353%, 8.627451%)" fill-opacity="1" d="M 2.371094 3.160156 L 2.378906 3.160156 L 2.390625 3.230469 L 2.371094 3.300781 L 2.378906 3.371094 L 2.359375 3.421875 L 2.351562 3.480469 L 2.328125 3.46875 L 2.328125 3.230469 L 2.359375 3.199219 Z M 2.371094 3.160156 "/>
<path fill-rule="nonzero" fill="rgb(33.333333%, 72.156863%, 18.039216%)" fill-opacity="1" d="M 6 10.320312 L 6.039062 10.339844 L 6.191406 10.488281 L 6.160156 10.5 L 6.121094 10.449219 L 6.058594 10.398438 L 6.058594 10.378906 L 6.039062 10.378906 L 6.039062 10.359375 L 6.019531 10.359375 L 6.019531 10.339844 L 6 10.339844 Z M 6 10.320312 "/>
<path fill-rule="nonzero" fill="rgb(32.941176%, 71.764706%, 17.647059%)" fill-opacity="1" d="M 6.609375 10.921875 L 6.648438 10.941406 L 6.71875 11.011719 L 6.769531 11.078125 L 6.71875 11.058594 L 6.679688 11.019531 L 6.679688 11 L 6.660156 11 L 6.660156 10.980469 L 6.640625 10.980469 Z M 6.609375 10.921875 "/>
<path fill-rule="nonzero" fill="rgb(32.156863%, 70.980392%, 16.470588%)" fill-opacity="1" d="M 6.179688 10.5 L 6.21875 10.519531 L 6.308594 10.609375 L 6.28125 10.621094 L 6.179688 10.519531 Z M 6.179688 10.5 "/>
</svg>
