<?xml version="1.0" encoding="UTF-8"?>
<svg xmlns="http://www.w3.org/2000/svg" xmlns:xlink="http://www.w3.org/1999/xlink" width="16" height="16" viewBox="0 0 16 16">
<path fill-rule="nonzero" fill="rgb(0%, 0%, 0%)" fill-opacity="1" d="M 11.121094 1.648438 L 12.28125 1.648438 L 12.648438 1.660156 L 12.839844 1.671875 L 13.03125 1.699219 L 13.179688 1.738281 L 13.398438 1.828125 L 13.550781 1.921875 L 13.691406 2.019531 L 13.800781 2.109375 L 13.800781 2.128906 L 13.839844 2.148438 L 13.859375 2.191406 L 13.878906 2.191406 L 13.988281 2.328125 L 14.078125 2.460938 L 14.160156 2.601562 L 14.238281 2.769531 L 14.300781 2.960938 L 14.320312 3.109375 L 14.328125 3.300781 L 14.339844 3.851562 L 14.339844 11.101562 L 14.328125 12.398438 L 14.320312 12.710938 L 14.300781 12.941406 L 14.269531 13.101562 L 14.210938 13.28125 L 14.109375 13.480469 L 14.011719 13.628906 L 13.929688 13.730469 L 13.808594 13.859375 L 13.710938 13.949219 L 13.539062 14.070312 L 13.378906 14.160156 L 13.191406 14.230469 L 12.949219 14.28125 L 12.78125 14.300781 L 12.328125 14.320312 L 4.359375 14.328125 L 3.441406 14.328125 L 3.089844 14.308594 L 2.839844 14.261719 L 2.679688 14.199219 L 2.53125 14.128906 L 2.378906 14.039062 L 2.25 13.929688 L 2.171875 13.859375 L 2.039062 13.71875 L 1.921875 13.550781 L 1.800781 13.320312 L 1.738281 13.171875 L 1.699219 13.019531 L 1.671875 12.820312 L 1.648438 12.449219 L 1.648438 3.199219 L 1.671875 3.03125 L 1.699219 2.910156 L 1.769531 2.71875 L 1.851562 2.558594 L 1.949219 2.390625 L 2.058594 2.238281 L 2.101562 2.191406 L 2.121094 2.191406 L 2.140625 2.148438 L 2.179688 2.109375 L 2.199219 2.109375 L 2.210938 2.078125 L 2.351562 1.96875 L 2.5 1.871094 L 2.710938 1.769531 L 2.890625 1.710938 L 3.070312 1.679688 L 3.160156 1.671875 L 3.410156 1.660156 Z M 5.960938 2.320312 L 3.378906 2.328125 L 3.148438 2.339844 L 2.988281 2.371094 L 2.871094 2.421875 L 2.75 2.5 L 2.640625 2.589844 L 2.570312 2.660156 L 2.480469 2.800781 L 2.398438 2.941406 L 2.359375 3.070312 L 2.339844 3.210938 L 2.328125 3.789062 L 2.328125 12.71875 L 2.359375 12.980469 L 2.421875 13.140625 L 2.519531 13.28125 L 2.621094 13.390625 L 2.730469 13.480469 L 2.839844 13.550781 L 2.980469 13.609375 L 3.148438 13.640625 L 3.429688 13.660156 L 12.601562 13.660156 L 12.78125 13.648438 L 12.980469 13.609375 L 13.171875 13.519531 L 13.28125 13.441406 L 13.398438 13.328125 L 13.460938 13.261719 L 13.550781 13.109375 L 13.589844 13 L 13.628906 12.78125 L 13.640625 12.660156 L 13.648438 12.28125 L 13.648438 3.199219 L 13.621094 3.03125 L 13.558594 2.871094 L 13.480469 2.738281 L 13.359375 2.601562 L 13.238281 2.5 L 13.109375 2.421875 L 13.019531 2.378906 L 12.898438 2.351562 L 12.820312 2.339844 L 12.578125 2.328125 L 10.261719 2.320312 Z M 5.960938 2.320312 "/>
</svg>
