<?xml version="1.0" encoding="UTF-8"?>
<svg xmlns="http://www.w3.org/2000/svg" xmlns:xlink="http://www.w3.org/1999/xlink" width="16" height="16" viewBox="0 0 16 16">
<path fill-rule="nonzero" fill="rgb(0%, 0%, 0%)" fill-opacity="1" d="M 10.558594 16.027344 C 7.039062 16.027344 3.535156 16.027344 0.0273438 16.027344 C 0.0273438 10.691406 0.0273438 5.359375 0.0273438 0.0273438 C 5.359375 0.0273438 10.691406 0.0273438 16.027344 0.0273438 C 16.027344 5.359375 16.027344 10.691406 16.027344 16.027344 C 14.207031 16.027344 12.390625 16.027344 10.558594 16.027344 M 9.355469 11.382812 C 9.472656 11.390625 9.59375 11.402344 9.714844 11.40625 C 9.730469 11.40625 9.746094 11.375 9.785156 11.359375 C 11.332031 11.359375 12.878906 11.359375 14.441406 11.359375 C 14.441406 11.191406 14.441406 11.042969 14.441406 10.894531 C 14.644531 10.894531 14.835938 10.894531 15.03125 10.894531 C 15.03125 10.753906 15.03125 10.617188 15.058594 10.476562 C 15.1875 10.476562 15.3125 10.472656 15.441406 10.476562 C 15.507812 10.480469 15.539062 10.457031 15.542969 10.367188 C 15.542969 9.597656 15.542969 8.824219 15.542969 8.035156 C 15.355469 8.035156 15.183594 8.035156 15 8.035156 C 15 7.394531 15 6.769531 15 6.148438 C 14.683594 6.148438 14.386719 6.148438 14.074219 6.148438 C 14.074219 6.285156 14.074219 6.410156 14.074219 6.554688 C 13.914062 6.554688 13.761719 6.554688 13.59375 6.554688 C 13.59375 6.742188 13.59375 6.914062 13.59375 7.09375 C 13.441406 7.09375 13.300781 7.09375 13.148438 7.09375 C 13.148438 7.242188 13.148438 7.378906 13.148438 7.515625 C 12.476562 7.515625 11.816406 7.515625 11.144531 7.515625 C 11.144531 7.378906 11.144531 7.25 11.144531 7.113281 C 11.003906 7.113281 10.878906 7.113281 10.746094 7.113281 C 10.746094 6.917969 10.746094 6.738281 10.773438 6.554688 C 10.921875 6.554688 11.070312 6.554688 11.234375 6.554688 C 11.234375 6.730469 11.234375 6.894531 11.234375 7.0625 C 11.480469 7.0625 11.714844 7.0625 11.972656 7.066406 C 12.125 7.066406 12.277344 7.066406 12.441406 7.066406 C 12.441406 6.078125 12.441406 5.109375 12.441406 4.160156 C 12.304688 4.257812 12.144531 4.1875 11.988281 4.210938 C 11.988281 4.035156 11.988281 3.875 11.988281 3.714844 C 9.242188 3.714844 6.488281 3.714844 3.75 3.714844 C 3.75 3.882812 3.75 4.042969 3.75 4.210938 C 3.601562 4.210938 3.460938 4.210938 3.324219 4.210938 C 3.285156 4.464844 3.3125 10.714844 3.351562 10.933594 C 3.460938 10.933594 3.570312 10.9375 3.679688 10.933594 C 3.765625 10.929688 3.792969 10.964844 3.789062 11.042969 C 3.785156 11.136719 3.789062 11.234375 3.789062 11.316406 C 4.003906 11.339844 4.199219 11.382812 4.398438 11.382812 C 5.992188 11.390625 7.589844 11.386719 9.183594 11.386719 C 9.234375 11.386719 9.28125 11.382812 9.355469 11.382812 M 2.855469 8.761719 C 2.855469 8.707031 2.855469 8.648438 2.855469 8.582031 C 2.359375 8.582031 1.875 8.582031 1.386719 8.582031 C 1.386719 8.257812 1.386719 7.949219 1.386719 7.625 C 1.105469 7.625 0.835938 7.625 0.5625 7.625 C 0.5625 7.925781 0.5625 8.226562 0.5625 8.539062 C 0.699219 8.539062 0.824219 8.539062 0.96875 8.539062 C 0.96875 8.703125 0.96875 8.855469 0.96875 9.019531 C 1.3125 9.019531 1.636719 9.019531 1.976562 9.019531 C 1.976562 9.195312 1.976562 9.351562 1.976562 9.511719 C 2.273438 9.511719 2.558594 9.511719 2.855469 9.511719 C 2.855469 9.265625 2.855469 9.027344 2.855469 8.761719 M 3.730469 11.425781 C 3.441406 11.425781 3.152344 11.425781 2.863281 11.425781 C 2.863281 11.730469 2.863281 12.027344 2.863281 12.316406 C 3.171875 12.316406 3.472656 12.316406 3.769531 12.316406 C 3.769531 12.023438 3.769531 11.738281 3.769531 11.453125 C 3.769531 11.445312 3.757812 11.4375 3.730469 11.425781 M 13.15625 12.398438 C 13.222656 12.398438 13.289062 12.398438 13.347656 12.398438 C 13.347656 12.21875 13.347656 12.058594 13.347656 11.902344 C 13.011719 11.902344 12.683594 11.902344 12.355469 11.902344 C 12.355469 12.070312 12.355469 12.230469 12.355469 12.398438 C 12.617188 12.398438 12.875 12.398438 13.15625 12.398438 M 10.199219 11.933594 C 10.128906 11.933594 10.054688 11.933594 9.980469 11.933594 C 9.980469 12.105469 9.980469 12.25 9.980469 12.394531 C 10.316406 12.394531 10.648438 12.394531 10.980469 12.394531 C 10.980469 12.238281 10.980469 12.089844 10.980469 11.933594 C 10.722656 11.933594 10.476562 11.933594 10.199219 11.933594 M 5.296875 11.9375 C 5.273438 11.949219 5.230469 11.964844 5.230469 11.980469 C 5.226562 12.121094 5.226562 12.261719 5.226562 12.390625 C 5.578125 12.390625 5.910156 12.390625 6.238281 12.390625 C 6.238281 12.234375 6.238281 12.089844 6.238281 11.933594 C 5.925781 11.933594 5.625 11.933594 5.296875 11.9375 Z M 5.296875 11.9375 "/>
<path fill-rule="nonzero" fill="rgb(100%, 60%, 100%)" fill-opacity="1" d="M 11.945312 7.0625 C 11.714844 7.0625 11.480469 7.0625 11.234375 7.0625 C 11.234375 6.894531 11.234375 6.730469 11.234375 6.554688 C 11.070312 6.554688 10.921875 6.554688 10.757812 6.558594 C 10.746094 6.558594 10.75 6.558594 10.746094 6.546875 C 10.746094 6.421875 10.746094 6.304688 10.757812 6.191406 C 10.839844 6.191406 10.90625 6.191406 10.976562 6.191406 C 10.976562 6 10.976562 5.832031 10.976562 5.664062 C 10.796875 5.664062 10.632812 5.664062 10.460938 5.664062 C 10.460938 5.792969 10.460938 5.914062 10.445312 6.035156 C 10.382812 6.039062 10.332031 6.039062 10.269531 6.039062 C 10.269531 5.90625 10.269531 5.792969 10.269531 5.683594 C 9.953125 5.683594 9.652344 5.683594 9.351562 5.683594 C 9.351562 5.820312 9.351562 5.949219 9.339844 6.078125 C 9.167969 6.082031 9.003906 6.082031 8.828125 6.082031 C 8.828125 6.734375 8.828125 7.371094 8.828125 8 C 8.769531 8.007812 8.71875 8.011719 8.660156 8.015625 C 8.554688 8.015625 8.464844 8.019531 8.363281 8.023438 C 8.355469 8.03125 8.351562 8.042969 8.351562 8.066406 C 8.347656 8.871094 8.351562 9.660156 8.351562 10.460938 C 8.355469 10.46875 8.363281 10.472656 8.386719 10.476562 C 8.539062 10.480469 8.683594 10.476562 8.832031 10.484375 C 8.835938 10.507812 8.839844 10.519531 8.839844 10.542969 C 8.835938 10.664062 8.832031 10.769531 8.816406 10.878906 C 7.457031 10.878906 6.105469 10.878906 4.765625 10.878906 C 4.742188 10.757812 4.757812 10.601562 4.695312 10.558594 C 4.617188 10.503906 4.476562 10.535156 4.359375 10.539062 C 4.265625 10.542969 4.234375 10.511719 4.238281 10.417969 C 4.246094 10.28125 4.242188 10.144531 4.242188 9.996094 C 4.070312 9.996094 3.921875 9.996094 3.757812 9.996094 C 3.757812 9.929688 3.757812 9.878906 3.757812 9.828125 C 3.757812 8.621094 3.757812 7.417969 3.757812 6.214844 C 3.757812 5.910156 3.761719 5.601562 3.753906 5.296875 C 3.753906 5.195312 3.785156 5.164062 3.882812 5.167969 C 3.996094 5.175781 4.113281 5.171875 4.242188 5.171875 C 4.242188 5.074219 4.242188 4.996094 4.242188 4.917969 C 4.242188 4.667969 4.242188 4.667969 4.484375 4.667969 C 4.566406 4.667969 4.648438 4.667969 4.746094 4.667969 C 4.746094 4.472656 4.746094 4.296875 4.746094 4.117188 C 6.824219 4.117188 8.886719 4.117188 10.964844 4.117188 C 10.964844 4.304688 10.964844 4.480469 10.964844 4.667969 C 11.136719 4.667969 11.292969 4.667969 11.46875 4.667969 C 11.46875 4.84375 11.46875 5 11.46875 5.175781 C 11.636719 5.175781 11.789062 5.175781 11.945312 5.175781 C 11.945312 5.820312 11.945312 6.441406 11.945312 7.0625 M 6.464844 9.941406 C 6.523438 9.941406 6.582031 9.949219 6.636719 9.9375 C 6.664062 9.933594 6.710938 9.902344 6.710938 9.882812 C 6.71875 9.722656 6.714844 9.558594 6.714844 9.402344 C 6.527344 9.402344 6.363281 9.402344 6.195312 9.402344 C 6.195312 9.585938 6.195312 9.753906 6.195312 9.941406 C 6.28125 9.941406 6.359375 9.941406 6.464844 9.941406 M 6.667969 6.789062 C 6.667969 6.882812 6.667969 6.980469 6.667969 7.082031 C 6.851562 7.082031 7.015625 7.082031 7.1875 7.082031 C 7.1875 6.90625 7.1875 6.734375 7.1875 6.566406 C 7.011719 6.566406 6.847656 6.566406 6.667969 6.566406 C 6.667969 6.640625 6.667969 6.699219 6.667969 6.789062 M 7.121094 5.097656 C 7.136719 5.125 7.15625 5.167969 7.175781 5.167969 C 7.328125 5.175781 7.480469 5.171875 7.648438 5.171875 C 7.648438 5.003906 7.648438 4.855469 7.644531 4.703125 C 7.644531 4.683594 7.605469 4.640625 7.585938 4.640625 C 7.433594 4.636719 7.285156 4.636719 7.121094 4.636719 C 7.121094 4.792969 7.121094 4.933594 7.121094 5.097656 M 9.09375 4.765625 C 9.074219 4.734375 9.054688 4.675781 9.035156 4.671875 C 8.882812 4.664062 8.730469 4.667969 8.5625 4.667969 C 8.5625 4.832031 8.5625 4.980469 8.566406 5.125 C 8.566406 5.152344 8.605469 5.199219 8.628906 5.199219 C 8.777344 5.207031 8.929688 5.203125 9.09375 5.203125 C 9.09375 5.054688 9.09375 4.921875 9.09375 4.765625 M 4.949219 5.148438 C 4.882812 5.148438 4.820312 5.148438 4.75 5.148438 C 4.75 5.339844 4.75 5.511719 4.75 5.691406 C 4.917969 5.691406 5.082031 5.691406 5.246094 5.691406 C 5.246094 5.507812 5.246094 5.335938 5.246094 5.148438 C 5.148438 5.148438 5.0625 5.148438 4.949219 5.148438 M 7.144531 8.410156 C 7.144531 8.457031 7.148438 8.503906 7.152344 8.546875 C 7.328125 8.546875 7.488281 8.546875 7.648438 8.546875 C 7.648438 8.371094 7.648438 8.203125 7.648438 8.035156 C 7.476562 8.035156 7.316406 8.035156 7.144531 8.035156 C 7.144531 8.15625 7.144531 8.269531 7.144531 8.410156 M 5.707031 7.566406 C 5.703125 7.527344 5.699219 7.488281 5.699219 7.453125 C 5.527344 7.453125 5.363281 7.453125 5.195312 7.453125 C 5.195312 7.609375 5.191406 7.753906 5.199219 7.898438 C 5.199219 7.925781 5.238281 7.972656 5.261719 7.972656 C 5.40625 7.980469 5.550781 7.976562 5.707031 7.976562 C 5.707031 7.835938 5.707031 7.714844 5.707031 7.566406 M 5.335938 10.171875 C 5.335938 10.089844 5.335938 10.011719 5.335938 9.929688 C 5.152344 9.929688 4.992188 9.929688 4.832031 9.929688 C 4.832031 10.109375 4.832031 10.273438 4.832031 10.445312 C 5 10.445312 5.160156 10.445312 5.335938 10.445312 C 5.335938 10.355469 5.335938 10.277344 5.335938 10.171875 M 4.261719 8.863281 C 4.261719 8.925781 4.261719 8.988281 4.261719 9.054688 C 4.441406 9.054688 4.601562 9.054688 4.765625 9.054688 C 4.765625 8.878906 4.765625 8.710938 4.765625 8.539062 C 4.597656 8.539062 4.4375 8.539062 4.261719 8.539062 C 4.261719 8.644531 4.261719 8.742188 4.261719 8.863281 Z M 4.261719 8.863281 "/>
<path fill-rule="nonzero" fill="rgb(59.607843%, 59.607843%, 59.607843%)" fill-opacity="1" d="M 15.03125 10.480469 C 15.03125 10.617188 15.03125 10.753906 15.03125 10.894531 C 14.835938 10.894531 14.644531 10.894531 14.441406 10.894531 C 14.441406 11.042969 14.441406 11.191406 14.441406 11.359375 C 12.878906 11.359375 11.332031 11.359375 9.769531 11.359375 C 9.75 11.359375 9.742188 11.359375 9.738281 11.347656 C 9.738281 11.191406 9.738281 11.046875 9.738281 10.886719 C 9.589844 10.886719 9.453125 10.886719 9.320312 10.875 C 9.324219 10.734375 9.328125 10.605469 9.34375 10.476562 C 9.609375 10.476562 9.859375 10.472656 10.113281 10.480469 C 10.207031 10.484375 10.242188 10.457031 10.242188 10.355469 C 10.238281 10.054688 10.242188 9.753906 10.257812 9.453125 C 10.566406 9.453125 10.863281 9.453125 11.160156 9.453125 C 11.160156 9.140625 11.160156 8.839844 11.160156 8.535156 C 11.023438 8.535156 10.890625 8.535156 10.746094 8.53125 C 10.574219 8.53125 10.417969 8.53125 10.238281 8.53125 C 10.238281 8.722656 10.238281 8.898438 10.242188 9.082031 C 10.242188 9.210938 10.242188 9.324219 10.226562 9.441406 C 9.925781 9.441406 9.636719 9.441406 9.328125 9.441406 C 9.328125 9.792969 9.328125 10.128906 9.316406 10.460938 C 9.152344 10.457031 9.003906 10.457031 8.847656 10.457031 C 8.835938 10.449219 8.832031 10.449219 8.832031 10.433594 C 8.832031 9.636719 8.832031 8.847656 8.839844 8.054688 C 9.023438 8.046875 9.195312 8.046875 9.375 8.046875 C 9.375 7.972656 9.375 7.925781 9.375 7.875 C 9.375 7.332031 9.375 6.785156 9.375 6.238281 C 9.375 6.1875 9.382812 6.132812 9.402344 6.082031 C 9.679688 6.082031 9.945312 6.082031 10.226562 6.082031 C 10.226562 6.25 10.226562 6.402344 10.226562 6.558594 C 10.414062 6.558594 10.582031 6.558594 10.75 6.558594 C 10.75 6.558594 10.746094 6.558594 10.746094 6.558594 C 10.746094 6.738281 10.746094 6.917969 10.746094 7.113281 C 10.878906 7.113281 11.003906 7.113281 11.144531 7.113281 C 11.144531 7.25 11.144531 7.378906 11.144531 7.515625 C 11.816406 7.515625 12.476562 7.515625 13.148438 7.515625 C 13.148438 7.378906 13.148438 7.242188 13.148438 7.09375 C 13.300781 7.09375 13.441406 7.09375 13.59375 7.09375 C 13.59375 6.914062 13.59375 6.742188 13.59375 6.554688 C 13.761719 6.554688 13.914062 6.554688 14.074219 6.554688 C 14.074219 6.410156 14.074219 6.285156 14.074219 6.148438 C 14.386719 6.148438 14.683594 6.148438 15 6.148438 C 15 6.769531 15 7.394531 15 8.035156 C 15.183594 8.035156 15.355469 8.035156 15.542969 8.035156 C 15.542969 8.824219 15.542969 9.597656 15.535156 10.363281 C 15.527344 10.058594 15.527344 9.753906 15.527344 9.4375 C 15.210938 9.4375 14.925781 9.4375 14.636719 9.441406 C 14.609375 9.441406 14.5625 9.5 14.5625 9.53125 C 14.554688 9.816406 14.558594 10.097656 14.554688 10.382812 C 14.554688 10.460938 14.589844 10.480469 14.660156 10.480469 C 14.785156 10.476562 14.910156 10.480469 15.03125 10.480469 M 13.585938 9.085938 C 13.585938 9.203125 13.585938 9.324219 13.585938 9.449219 C 13.890625 9.449219 14.191406 9.449219 14.496094 9.449219 C 14.496094 9.140625 14.496094 8.839844 14.496094 8.535156 C 14.355469 8.535156 14.222656 8.535156 14.070312 8.535156 C 13.914062 8.535156 13.757812 8.535156 13.597656 8.535156 C 13.597656 8.726562 13.597656 8.898438 13.585938 9.085938 M 13.800781 9.914062 C 13.75 9.914062 13.699219 9.914062 13.636719 9.914062 C 13.636719 10.097656 13.636719 10.265625 13.636719 10.4375 C 13.292969 10.4375 12.964844 10.4375 12.621094 10.4375 C 12.621094 10.257812 12.621094 10.089844 12.621094 9.921875 C 12.476562 9.921875 12.347656 9.921875 12.203125 9.921875 C 12.203125 10.097656 12.203125 10.265625 12.203125 10.4375 C 11.847656 10.4375 11.507812 10.4375 11.148438 10.4375 C 11.148438 10.257812 11.148438 10.089844 11.148438 9.921875 C 11.003906 9.921875 10.875 9.921875 10.726562 9.921875 C 10.726562 10.203125 10.730469 10.476562 10.722656 10.75 C 10.71875 10.871094 10.761719 10.898438 10.875 10.898438 C 11.902344 10.894531 12.929688 10.894531 13.953125 10.894531 C 13.996094 10.894531 14.039062 10.890625 14.101562 10.886719 C 14.082031 10.558594 14.0625 10.242188 14.042969 9.914062 C 13.96875 9.914062 13.898438 9.914062 13.800781 9.914062 M 13.066406 9.433594 C 13.078125 9.296875 13.089844 9.160156 13.097656 9.019531 C 12.933594 9.019531 12.792969 9.019531 12.652344 9.019531 C 12.652344 9.160156 12.652344 9.296875 12.652344 9.4375 C 12.789062 9.4375 12.914062 9.4375 13.066406 9.433594 Z M 13.066406 9.433594 "/>
<path fill-rule="nonzero" fill="rgb(99.607843%, 79.607843%, 60%)" fill-opacity="1" d="M 11.957031 7.0625 C 11.945312 6.441406 11.945312 5.820312 11.945312 5.175781 C 11.789062 5.175781 11.636719 5.175781 11.46875 5.175781 C 11.46875 5 11.46875 4.84375 11.46875 4.667969 C 11.292969 4.667969 11.136719 4.667969 10.964844 4.667969 C 10.964844 4.480469 10.964844 4.304688 10.964844 4.117188 C 8.886719 4.117188 6.824219 4.117188 4.746094 4.117188 C 4.746094 4.296875 4.746094 4.472656 4.746094 4.667969 C 4.648438 4.667969 4.566406 4.667969 4.484375 4.667969 C 4.242188 4.667969 4.242188 4.667969 4.242188 4.917969 C 4.242188 4.996094 4.242188 5.074219 4.242188 5.171875 C 4.113281 5.171875 3.996094 5.175781 3.882812 5.167969 C 3.785156 5.164062 3.753906 5.195312 3.753906 5.296875 C 3.761719 5.601562 3.757812 5.910156 3.757812 6.214844 C 3.757812 7.417969 3.757812 8.621094 3.757812 9.828125 C 3.757812 9.878906 3.757812 9.929688 3.757812 9.996094 C 3.921875 9.996094 4.070312 9.996094 4.242188 9.996094 C 4.242188 10.144531 4.246094 10.28125 4.238281 10.417969 C 4.234375 10.511719 4.265625 10.542969 4.359375 10.539062 C 4.476562 10.535156 4.617188 10.503906 4.695312 10.558594 C 4.757812 10.601562 4.742188 10.757812 4.765625 10.878906 C 6.105469 10.878906 7.457031 10.878906 8.820312 10.890625 C 8.863281 10.917969 8.890625 10.953125 8.917969 10.953125 C 9.046875 10.957031 9.179688 10.953125 9.3125 10.960938 C 9.320312 11.101562 9.328125 11.234375 9.328125 11.367188 C 9.328125 11.371094 9.328125 11.378906 9.328125 11.378906 C 9.28125 11.382812 9.234375 11.386719 9.183594 11.386719 C 7.589844 11.386719 5.992188 11.390625 4.398438 11.382812 C 4.199219 11.382812 4.003906 11.339844 3.789062 11.316406 C 3.789062 11.234375 3.785156 11.136719 3.789062 11.042969 C 3.792969 10.964844 3.765625 10.929688 3.679688 10.933594 C 3.570312 10.9375 3.460938 10.933594 3.351562 10.933594 C 3.3125 10.714844 3.285156 4.464844 3.324219 4.210938 C 3.460938 4.210938 3.601562 4.210938 3.75 4.210938 C 3.75 4.042969 3.75 3.882812 3.75 3.714844 C 6.488281 3.714844 9.242188 3.714844 11.988281 3.714844 C 11.988281 3.875 11.988281 4.035156 11.988281 4.210938 C 12.144531 4.1875 12.304688 4.257812 12.441406 4.160156 C 12.441406 5.109375 12.441406 6.078125 12.441406 7.066406 C 12.277344 7.066406 12.125 7.066406 11.957031 7.0625 Z M 11.957031 7.0625 "/>
<path fill-rule="nonzero" fill="rgb(60%, 60%, 60%)" fill-opacity="1" d="M 2.855469 8.773438 C 2.855469 9.027344 2.855469 9.265625 2.855469 9.511719 C 2.558594 9.511719 2.273438 9.511719 1.976562 9.511719 C 1.976562 9.351562 1.976562 9.195312 1.976562 9.019531 C 1.636719 9.019531 1.3125 9.019531 0.96875 9.019531 C 0.96875 8.855469 0.96875 8.703125 0.96875 8.539062 C 0.824219 8.539062 0.699219 8.539062 0.5625 8.539062 C 0.5625 8.226562 0.5625 7.925781 0.5625 7.625 C 0.835938 7.625 1.105469 7.625 1.386719 7.625 C 1.386719 7.949219 1.386719 8.257812 1.386719 8.582031 C 1.875 8.582031 2.359375 8.582031 2.855469 8.582031 C 2.855469 8.648438 2.855469 8.707031 2.855469 8.773438 Z M 2.855469 8.773438 "/>
<path fill-rule="nonzero" fill="rgb(99.607843%, 59.607843%, 59.607843%)" fill-opacity="1" d="M 15.046875 10.476562 C 14.910156 10.480469 14.785156 10.476562 14.660156 10.480469 C 14.589844 10.480469 14.554688 10.460938 14.554688 10.382812 C 14.558594 10.097656 14.554688 9.816406 14.5625 9.53125 C 14.5625 9.5 14.609375 9.441406 14.636719 9.441406 C 14.925781 9.4375 15.210938 9.4375 15.527344 9.4375 C 15.527344 9.753906 15.527344 10.058594 15.53125 10.375 C 15.539062 10.457031 15.507812 10.480469 15.441406 10.476562 C 15.3125 10.472656 15.1875 10.476562 15.046875 10.476562 Z M 15.046875 10.476562 "/>
<path fill-rule="nonzero" fill="rgb(59.607843%, 59.607843%, 59.607843%)" fill-opacity="1" d="M 3.742188 11.429688 C 3.757812 11.4375 3.769531 11.445312 3.769531 11.453125 C 3.769531 11.738281 3.769531 12.023438 3.769531 12.316406 C 3.472656 12.316406 3.171875 12.316406 2.863281 12.316406 C 2.863281 12.027344 2.863281 11.730469 2.863281 11.425781 C 3.152344 11.425781 3.441406 11.425781 3.742188 11.429688 Z M 3.742188 11.429688 "/>
<path fill-rule="nonzero" fill="rgb(60%, 60%, 60%)" fill-opacity="1" d="M 13.144531 12.398438 C 12.875 12.398438 12.617188 12.398438 12.355469 12.398438 C 12.355469 12.230469 12.355469 12.070312 12.355469 11.902344 C 12.683594 11.902344 13.011719 11.902344 13.347656 11.902344 C 13.347656 12.058594 13.347656 12.21875 13.347656 12.398438 C 13.289062 12.398438 13.222656 12.398438 13.144531 12.398438 Z M 13.144531 12.398438 "/>
<path fill-rule="nonzero" fill="rgb(60%, 60%, 60%)" fill-opacity="1" d="M 10.214844 11.933594 C 10.476562 11.933594 10.722656 11.933594 10.980469 11.933594 C 10.980469 12.089844 10.980469 12.238281 10.980469 12.394531 C 10.648438 12.394531 10.316406 12.394531 9.980469 12.394531 C 9.980469 12.25 9.980469 12.105469 9.980469 11.933594 C 10.054688 11.933594 10.128906 11.933594 10.214844 11.933594 Z M 10.214844 11.933594 "/>
<path fill-rule="nonzero" fill="rgb(60%, 60%, 60%)" fill-opacity="1" d="M 5.308594 11.9375 C 5.625 11.933594 5.925781 11.933594 6.238281 11.933594 C 6.238281 12.089844 6.238281 12.234375 6.238281 12.390625 C 5.910156 12.390625 5.578125 12.390625 5.226562 12.390625 C 5.226562 12.261719 5.226562 12.121094 5.230469 11.980469 C 5.230469 11.964844 5.273438 11.949219 5.308594 11.9375 Z M 5.308594 11.9375 "/>
<path fill-rule="nonzero" fill="rgb(46.666667%, 42.745098%, 38.823529%)" fill-opacity="1" d="M 9.34375 11.382812 C 9.328125 11.378906 9.328125 11.371094 9.34375 11.367188 C 9.484375 11.363281 9.613281 11.359375 9.742188 11.359375 C 9.742188 11.359375 9.75 11.359375 9.753906 11.359375 C 9.746094 11.375 9.730469 11.40625 9.714844 11.40625 C 9.59375 11.402344 9.472656 11.390625 9.34375 11.382812 Z M 9.34375 11.382812 "/>
<path fill-rule="nonzero" fill="rgb(0.784314%, 0.392157%, 0.784314%)" fill-opacity="1" d="M 8.828125 8.058594 C 8.832031 8.847656 8.832031 9.636719 8.828125 10.441406 C 8.828125 10.46875 8.828125 10.472656 8.828125 10.476562 C 8.683594 10.476562 8.539062 10.480469 8.382812 10.472656 C 8.363281 10.460938 8.359375 10.457031 8.351562 10.453125 C 8.351562 9.660156 8.347656 8.871094 8.355469 8.0625 C 8.367188 8.039062 8.371094 8.03125 8.371094 8.023438 C 8.464844 8.019531 8.554688 8.015625 8.667969 8.019531 C 8.734375 8.035156 8.78125 8.046875 8.828125 8.058594 Z M 8.828125 8.058594 "/>
<path fill-rule="nonzero" fill="rgb(2.745098%, 1.960784%, 2.745098%)" fill-opacity="1" d="M 8.839844 8.054688 C 8.78125 8.046875 8.734375 8.035156 8.679688 8.023438 C 8.71875 8.011719 8.769531 8.007812 8.828125 8 C 8.828125 7.371094 8.828125 6.734375 8.828125 6.082031 C 9.003906 6.082031 9.167969 6.082031 9.351562 6.082031 C 9.378906 6.078125 9.382812 6.082031 9.390625 6.082031 C 9.382812 6.132812 9.375 6.1875 9.375 6.238281 C 9.375 6.785156 9.375 7.332031 9.375 7.875 C 9.375 7.925781 9.375 7.972656 9.375 8.046875 C 9.195312 8.046875 9.023438 8.046875 8.839844 8.054688 Z M 8.839844 8.054688 "/>
<path fill-rule="nonzero" fill="rgb(1.960784%, 1.176471%, 1.568627%)" fill-opacity="1" d="M 9.402344 6.082031 C 9.382812 6.082031 9.378906 6.078125 9.363281 6.078125 C 9.351562 5.949219 9.351562 5.820312 9.351562 5.683594 C 9.652344 5.683594 9.953125 5.683594 10.269531 5.683594 C 10.269531 5.792969 10.269531 5.90625 10.269531 6.039062 C 10.332031 6.039062 10.382812 6.039062 10.457031 6.039062 C 10.5625 6.039062 10.644531 6.039062 10.730469 6.039062 C 10.734375 6.097656 10.742188 6.144531 10.746094 6.191406 C 10.746094 6.304688 10.746094 6.421875 10.746094 6.546875 C 10.582031 6.558594 10.414062 6.558594 10.226562 6.558594 C 10.226562 6.402344 10.226562 6.25 10.226562 6.082031 C 9.945312 6.082031 9.679688 6.082031 9.402344 6.082031 Z M 9.402344 6.082031 "/>
<path fill-rule="nonzero" fill="rgb(100%, 22.352941%, 62.352941%)" fill-opacity="1" d="M 6.453125 9.941406 C 6.359375 9.941406 6.28125 9.941406 6.195312 9.941406 C 6.195312 9.753906 6.195312 9.585938 6.195312 9.402344 C 6.363281 9.402344 6.527344 9.402344 6.714844 9.402344 C 6.714844 9.558594 6.71875 9.722656 6.710938 9.882812 C 6.710938 9.902344 6.664062 9.933594 6.636719 9.9375 C 6.582031 9.949219 6.523438 9.941406 6.453125 9.941406 Z M 6.453125 9.941406 "/>
<path fill-rule="nonzero" fill="rgb(100%, 21.176471%, 61.176471%)" fill-opacity="1" d="M 6.667969 6.773438 C 6.667969 6.699219 6.667969 6.640625 6.667969 6.566406 C 6.847656 6.566406 7.011719 6.566406 7.1875 6.566406 C 7.1875 6.734375 7.1875 6.90625 7.1875 7.082031 C 7.015625 7.082031 6.851562 7.082031 6.667969 7.082031 C 6.667969 6.980469 6.667969 6.882812 6.667969 6.773438 Z M 6.667969 6.773438 "/>
<path fill-rule="nonzero" fill="rgb(100%, 20.784314%, 61.176471%)" fill-opacity="1" d="M 7.121094 5.085938 C 7.121094 4.933594 7.121094 4.792969 7.121094 4.636719 C 7.285156 4.636719 7.433594 4.636719 7.585938 4.640625 C 7.605469 4.640625 7.644531 4.683594 7.644531 4.703125 C 7.648438 4.855469 7.648438 5.003906 7.648438 5.171875 C 7.480469 5.171875 7.328125 5.175781 7.175781 5.167969 C 7.15625 5.167969 7.136719 5.125 7.121094 5.085938 Z M 7.121094 5.085938 "/>
<path fill-rule="nonzero" fill="rgb(100%, 21.176471%, 61.176471%)" fill-opacity="1" d="M 9.09375 4.777344 C 9.09375 4.921875 9.09375 5.054688 9.09375 5.203125 C 8.929688 5.203125 8.777344 5.207031 8.628906 5.199219 C 8.605469 5.199219 8.566406 5.152344 8.566406 5.125 C 8.5625 4.980469 8.5625 4.832031 8.5625 4.667969 C 8.730469 4.667969 8.882812 4.664062 9.035156 4.671875 C 9.054688 4.675781 9.074219 4.734375 9.09375 4.777344 Z M 9.09375 4.777344 "/>
<path fill-rule="nonzero" fill="rgb(100%, 20.392157%, 60.392157%)" fill-opacity="1" d="M 4.960938 5.148438 C 5.0625 5.148438 5.148438 5.148438 5.246094 5.148438 C 5.246094 5.335938 5.246094 5.507812 5.246094 5.691406 C 5.082031 5.691406 4.917969 5.691406 4.75 5.691406 C 4.75 5.511719 4.75 5.339844 4.75 5.148438 C 4.820312 5.148438 4.882812 5.148438 4.960938 5.148438 Z M 4.960938 5.148438 "/>
<path fill-rule="nonzero" fill="rgb(100%, 20%, 60%)" fill-opacity="1" d="M 7.144531 8.398438 C 7.144531 8.269531 7.144531 8.15625 7.144531 8.035156 C 7.316406 8.035156 7.476562 8.035156 7.648438 8.035156 C 7.648438 8.203125 7.648438 8.371094 7.648438 8.546875 C 7.488281 8.546875 7.328125 8.546875 7.152344 8.546875 C 7.148438 8.503906 7.144531 8.457031 7.144531 8.398438 Z M 7.144531 8.398438 "/>
<path fill-rule="nonzero" fill="rgb(100%, 20%, 60%)" fill-opacity="1" d="M 5.707031 7.578125 C 5.707031 7.714844 5.707031 7.835938 5.707031 7.976562 C 5.550781 7.976562 5.40625 7.980469 5.261719 7.972656 C 5.238281 7.972656 5.199219 7.925781 5.199219 7.898438 C 5.191406 7.753906 5.195312 7.609375 5.195312 7.453125 C 5.363281 7.453125 5.527344 7.453125 5.699219 7.453125 C 5.699219 7.488281 5.703125 7.527344 5.707031 7.578125 Z M 5.707031 7.578125 "/>
<path fill-rule="nonzero" fill="rgb(100%, 20%, 60%)" fill-opacity="1" d="M 5.335938 10.1875 C 5.335938 10.277344 5.335938 10.355469 5.335938 10.445312 C 5.160156 10.445312 5 10.445312 4.832031 10.445312 C 4.832031 10.273438 4.832031 10.109375 4.832031 9.929688 C 4.992188 9.929688 5.152344 9.929688 5.335938 9.929688 C 5.335938 10.011719 5.335938 10.089844 5.335938 10.1875 Z M 5.335938 10.1875 "/>
<path fill-rule="nonzero" fill="rgb(100%, 20.392157%, 60.392157%)" fill-opacity="1" d="M 4.261719 8.851562 C 4.261719 8.742188 4.261719 8.644531 4.261719 8.539062 C 4.4375 8.539062 4.597656 8.539062 4.765625 8.539062 C 4.765625 8.710938 4.765625 8.878906 4.765625 9.054688 C 4.601562 9.054688 4.441406 9.054688 4.261719 9.054688 C 4.261719 8.988281 4.261719 8.925781 4.261719 8.851562 Z M 4.261719 8.851562 "/>
<path fill-rule="nonzero" fill="rgb(0.784314%, 0.392157%, 0.784314%)" fill-opacity="1" d="M 9.308594 10.953125 C 9.179688 10.953125 9.046875 10.957031 8.917969 10.953125 C 8.890625 10.953125 8.863281 10.917969 8.832031 10.890625 C 8.832031 10.769531 8.835938 10.664062 8.84375 10.535156 C 8.851562 10.496094 8.851562 10.476562 8.855469 10.460938 C 9.003906 10.457031 9.152344 10.457031 9.316406 10.464844 C 9.328125 10.472656 9.332031 10.476562 9.332031 10.476562 C 9.328125 10.605469 9.324219 10.734375 9.316406 10.878906 C 9.308594 10.914062 9.308594 10.933594 9.308594 10.953125 Z M 9.308594 10.953125 "/>
<path fill-rule="nonzero" fill="rgb(98.823529%, 21.176471%, 60.392157%)" fill-opacity="1" d="M 10.757812 6.191406 C 10.742188 6.144531 10.734375 6.097656 10.730469 6.039062 C 10.644531 6.039062 10.5625 6.039062 10.46875 6.035156 C 10.460938 5.914062 10.460938 5.792969 10.460938 5.664062 C 10.632812 5.664062 10.796875 5.664062 10.976562 5.664062 C 10.976562 5.832031 10.976562 6 10.976562 6.191406 C 10.90625 6.191406 10.839844 6.191406 10.757812 6.191406 Z M 10.757812 6.191406 "/>
<path fill-rule="nonzero" fill="rgb(4.313725%, 3.921569%, 3.529412%)" fill-opacity="1" d="M 8.847656 10.457031 C 8.851562 10.476562 8.851562 10.496094 8.847656 10.523438 C 8.839844 10.519531 8.835938 10.507812 8.832031 10.484375 C 8.828125 10.472656 8.828125 10.46875 8.828125 10.453125 C 8.832031 10.449219 8.835938 10.449219 8.847656 10.457031 Z M 8.847656 10.457031 "/>
<path fill-rule="nonzero" fill="rgb(2.745098%, 1.960784%, 2.745098%)" fill-opacity="1" d="M 8.363281 8.023438 C 8.371094 8.03125 8.367188 8.039062 8.355469 8.050781 C 8.351562 8.042969 8.355469 8.03125 8.363281 8.023438 Z M 8.363281 8.023438 "/>
<path fill-rule="nonzero" fill="rgb(2.745098%, 1.960784%, 2.745098%)" fill-opacity="1" d="M 8.351562 10.460938 C 8.359375 10.457031 8.363281 10.460938 8.371094 10.46875 C 8.363281 10.472656 8.355469 10.46875 8.351562 10.460938 Z M 8.351562 10.460938 "/>
<path fill-rule="nonzero" fill="rgb(1.568627%, 1.568627%, 1.568627%)" fill-opacity="1" d="M 13.816406 9.914062 C 13.898438 9.914062 13.96875 9.914062 14.042969 9.914062 C 14.0625 10.242188 14.082031 10.558594 14.101562 10.886719 C 14.039062 10.890625 13.996094 10.894531 13.953125 10.894531 C 12.929688 10.894531 11.902344 10.894531 10.875 10.898438 C 10.761719 10.898438 10.71875 10.871094 10.722656 10.75 C 10.730469 10.476562 10.726562 10.203125 10.726562 9.921875 C 10.875 9.921875 11.003906 9.921875 11.148438 9.921875 C 11.148438 10.089844 11.148438 10.257812 11.148438 10.4375 C 11.507812 10.4375 11.847656 10.4375 12.203125 10.4375 C 12.203125 10.265625 12.203125 10.097656 12.203125 9.921875 C 12.347656 9.921875 12.476562 9.921875 12.621094 9.921875 C 12.621094 10.089844 12.621094 10.257812 12.621094 10.4375 C 12.964844 10.4375 13.292969 10.4375 13.636719 10.4375 C 13.636719 10.265625 13.636719 10.097656 13.636719 9.914062 C 13.699219 9.914062 13.75 9.914062 13.816406 9.914062 Z M 13.816406 9.914062 "/>
<path fill-rule="nonzero" fill="rgb(99.607843%, 60%, 60%)" fill-opacity="1" d="M 9.34375 10.476562 C 9.332031 10.476562 9.328125 10.472656 9.328125 10.46875 C 9.328125 10.128906 9.328125 9.792969 9.328125 9.441406 C 9.636719 9.441406 9.925781 9.441406 10.230469 9.441406 C 10.246094 9.445312 10.246094 9.453125 10.246094 9.453125 C 10.242188 9.753906 10.238281 10.054688 10.242188 10.355469 C 10.242188 10.457031 10.207031 10.484375 10.113281 10.480469 C 9.859375 10.472656 9.609375 10.476562 9.34375 10.476562 Z M 9.34375 10.476562 "/>
<path fill-rule="nonzero" fill="rgb(2.745098%, 2.745098%, 2.745098%)" fill-opacity="1" d="M 10.257812 9.453125 C 10.246094 9.453125 10.246094 9.445312 10.242188 9.445312 C 10.242188 9.324219 10.242188 9.210938 10.253906 9.082031 C 10.425781 9.070312 10.589844 9.070312 10.757812 9.070312 C 10.757812 8.882812 10.757812 8.707031 10.757812 8.535156 C 10.890625 8.535156 11.023438 8.535156 11.160156 8.535156 C 11.160156 8.839844 11.160156 9.140625 11.160156 9.453125 C 10.863281 9.453125 10.566406 9.453125 10.257812 9.453125 Z M 10.257812 9.453125 "/>
<path fill-rule="nonzero" fill="rgb(2.745098%, 2.745098%, 2.745098%)" fill-opacity="1" d="M 14.09375 8.535156 C 14.222656 8.535156 14.355469 8.535156 14.496094 8.535156 C 14.496094 8.839844 14.496094 9.140625 14.496094 9.449219 C 14.191406 9.449219 13.890625 9.449219 13.585938 9.449219 C 13.585938 9.324219 13.585938 9.203125 13.605469 9.078125 C 13.777344 9.070312 13.929688 9.070312 14.09375 9.070312 C 14.09375 8.882812 14.09375 8.707031 14.09375 8.535156 Z M 14.09375 8.535156 "/>
<path fill-rule="nonzero" fill="rgb(98.823529%, 98.823529%, 98.823529%)" fill-opacity="1" d="M 10.746094 8.53125 C 10.757812 8.707031 10.757812 8.882812 10.757812 9.070312 C 10.589844 9.070312 10.425781 9.070312 10.253906 9.070312 C 10.238281 8.898438 10.238281 8.722656 10.238281 8.53125 C 10.417969 8.53125 10.574219 8.53125 10.746094 8.53125 Z M 10.746094 8.53125 "/>
<path fill-rule="nonzero" fill="rgb(100%, 100%, 100%)" fill-opacity="1" d="M 14.082031 8.535156 C 14.09375 8.707031 14.09375 8.882812 14.09375 9.070312 C 13.929688 9.070312 13.777344 9.070312 13.609375 9.070312 C 13.597656 8.898438 13.597656 8.726562 13.597656 8.535156 C 13.757812 8.535156 13.914062 8.535156 14.082031 8.535156 Z M 14.082031 8.535156 "/>
<path fill-rule="nonzero" fill="rgb(4.313725%, 3.921569%, 3.529412%)" fill-opacity="1" d="M 9.3125 10.960938 C 9.308594 10.933594 9.308594 10.914062 9.3125 10.890625 C 9.453125 10.886719 9.589844 10.886719 9.738281 10.886719 C 9.738281 11.046875 9.738281 11.191406 9.738281 11.347656 C 9.613281 11.359375 9.484375 11.363281 9.34375 11.363281 C 9.328125 11.234375 9.320312 11.101562 9.3125 10.960938 Z M 9.3125 10.960938 "/>
<path fill-rule="nonzero" fill="rgb(1.568627%, 1.568627%, 1.568627%)" fill-opacity="1" d="M 13.054688 9.433594 C 12.914062 9.4375 12.789062 9.4375 12.652344 9.4375 C 12.652344 9.296875 12.652344 9.160156 12.652344 9.019531 C 12.792969 9.019531 12.933594 9.019531 13.097656 9.019531 C 13.089844 9.160156 13.078125 9.296875 13.054688 9.433594 Z M 13.054688 9.433594 "/>
</svg>
