<?xml version="1.0" encoding="UTF-8"?>
<svg xmlns="http://www.w3.org/2000/svg" xmlns:xlink="http://www.w3.org/1999/xlink" width="18" height="18" viewBox="0 0 18 18">
<path fill-rule="nonzero" fill="rgb(54.509804%, 17.254902%, 98.823529%)" fill-opacity="1" d="M 3.875 3.085938 L 4.984375 3.085938 L 5.273438 3.09375 L 5.5 3.109375 L 5.597656 3.148438 L 5.695312 3.21875 L 5.792969 3.332031 L 5.851562 3.453125 L 5.890625 3.59375 L 5.90625 3.824219 L 5.90625 4.035156 L 5.890625 4.304688 L 5.851562 4.4375 L 5.792969 4.542969 L 5.703125 4.640625 L 5.589844 4.71875 L 5.511719 4.746094 L 5.441406 4.753906 L 5.273438 4.765625 L 3.664062 4.78125 L 3.515625 4.796875 L 3.460938 4.835938 L 3.429688 4.878906 L 3.390625 4.964844 L 3.382812 5.035156 L 3.375 5.308594 L 3.367188 8.269531 L 3.367188 12.648438 L 3.375 12.972656 L 3.402344 13.085938 L 3.4375 13.140625 L 3.480469 13.175781 L 3.621094 13.203125 L 3.839844 13.210938 L 6.953125 13.210938 L 7.015625 13.203125 L 7.023438 12.445312 L 7.03125 12.289062 L 7.046875 12.207031 L 7.101562 12.109375 L 7.1875 11.996094 L 7.257812 11.925781 L 7.382812 11.847656 L 7.46875 11.8125 L 7.507812 11.804688 L 7.636719 11.804688 L 7.769531 11.839844 L 7.902344 11.890625 L 8.253906 12.066406 L 8.445312 12.171875 L 8.753906 12.332031 L 8.945312 12.4375 L 9.308594 12.621094 L 9.5 12.726562 L 9.773438 12.867188 L 9.941406 12.953125 L 10.238281 13.113281 L 10.441406 13.226562 L 10.574219 13.316406 L 10.652344 13.375 L 10.742188 13.457031 L 10.835938 13.585938 L 10.90625 13.71875 L 10.953125 13.859375 L 10.96875 13.984375 L 10.96875 14.148438 L 10.953125 14.265625 L 10.90625 14.398438 L 10.835938 14.527344 L 10.773438 14.617188 L 10.703125 14.695312 L 10.609375 14.773438 L 10.449219 14.878906 L 10.292969 14.96875 L 10.070312 15.082031 L 9.90625 15.171875 L 9.5625 15.34375 L 9.324219 15.46875 L 9.132812 15.574219 L 8.992188 15.644531 L 8.753906 15.765625 L 8.507812 15.898438 L 8.234375 16.039062 L 8.113281 16.109375 L 7.910156 16.207031 L 7.734375 16.277344 L 7.648438 16.296875 L 7.515625 16.296875 L 7.410156 16.269531 L 7.285156 16.207031 L 7.1875 16.128906 L 7.09375 15.996094 L 7.046875 15.890625 L 7.03125 15.785156 L 7.023438 15.503906 L 7.023438 14.898438 L 3.613281 14.890625 L 3.375 14.871094 L 3.199219 14.84375 L 3.03125 14.800781 L 2.867188 14.738281 L 2.714844 14.667969 L 2.558594 14.570312 L 2.417969 14.457031 L 2.347656 14.398438 L 2.171875 14.21875 L 2.074219 14.097656 L 1.996094 13.984375 L 1.898438 13.816406 L 1.820312 13.640625 L 1.757812 13.457031 L 1.722656 13.28125 L 1.703125 13.140625 L 1.695312 13.007812 L 1.6875 12.691406 L 1.679688 11.679688 L 1.679688 7.046875 L 1.6875 5.0625 L 1.695312 4.859375 L 1.722656 4.65625 L 1.765625 4.492188 L 1.835938 4.304688 L 1.914062 4.140625 L 2.023438 3.964844 L 2.136719 3.8125 L 2.234375 3.699219 L 2.355469 3.578125 L 2.453125 3.5 L 2.609375 3.382812 L 2.75 3.304688 L 2.917969 3.226562 L 3.101562 3.164062 L 3.289062 3.128906 L 3.515625 3.101562 Z M 4.183594 3.640625 L 3.699219 3.648438 L 3.460938 3.664062 L 3.269531 3.699219 L 3.066406 3.769531 L 2.917969 3.851562 L 2.796875 3.9375 L 2.679688 4.035156 L 2.601562 4.113281 L 2.488281 4.273438 L 2.40625 4.414062 L 2.347656 4.554688 L 2.292969 4.710938 L 2.265625 4.84375 L 2.25 5 L 2.242188 5.167969 L 2.234375 6.554688 L 2.234375 12.859375 L 2.25 13.105469 L 2.285156 13.296875 L 2.355469 13.5 L 2.425781 13.640625 L 2.53125 13.789062 L 2.636719 13.90625 L 2.726562 13.992188 L 2.820312 14.070312 L 2.945312 14.148438 L 3.078125 14.21875 L 3.289062 14.289062 L 3.53125 14.328125 L 3.691406 14.335938 L 7.015625 14.335938 L 7.03125 14.328125 L 7.03125 13.976562 L 7.023438 13.773438 L 6.8125 13.765625 L 3.859375 13.765625 L 3.558594 13.753906 L 3.417969 13.738281 L 3.289062 13.695312 L 3.164062 13.625 L 3.050781 13.527344 L 2.960938 13.421875 L 2.890625 13.296875 L 2.847656 13.183594 L 2.820312 13.042969 L 2.8125 12.929688 L 2.804688 11.785156 L 2.804688 10.960938 L 2.8125 5.265625 L 2.820312 4.964844 L 2.839844 4.851562 L 2.882812 4.71875 L 2.945312 4.613281 L 3.023438 4.507812 L 3.058594 4.464844 L 3.128906 4.402344 L 3.21875 4.332031 L 3.332031 4.28125 L 3.480469 4.246094 L 3.664062 4.226562 L 3.953125 4.21875 L 5.289062 4.21875 L 5.34375 4.203125 L 5.351562 4.042969 L 5.351562 3.664062 L 5.308594 3.648438 L 4.949219 3.640625 Z M 4.183594 3.640625 "/>
<path fill-rule="nonzero" fill="rgb(18.039216%, 29.411765%, 98.823529%)" fill-opacity="1" d="M 10.300781 1.6875 L 10.46875 1.6875 L 10.582031 1.714844 L 10.714844 1.785156 L 10.792969 1.855469 L 10.863281 1.953125 L 10.914062 2.054688 L 10.941406 2.152344 L 10.960938 2.355469 L 10.960938 3.09375 L 12.789062 3.085938 L 14.160156 3.085938 L 14.457031 3.101562 L 14.703125 3.128906 L 14.878906 3.164062 L 15.0625 3.226562 L 15.285156 3.332031 L 15.425781 3.417969 L 15.539062 3.507812 L 15.625 3.578125 L 15.714844 3.65625 L 15.820312 3.761719 L 15.933594 3.910156 L 16.023438 4.042969 L 16.136719 4.261719 L 16.207031 4.4375 L 16.25 4.597656 L 16.277344 4.753906 L 16.296875 4.984375 L 16.304688 5.757812 L 16.304688 8.03125 L 16.296875 12.664062 L 16.285156 12.980469 L 16.269531 13.246094 L 16.226562 13.472656 L 16.15625 13.683594 L 16.074219 13.851562 L 16.003906 13.976562 L 15.898438 14.117188 L 15.828125 14.203125 L 15.734375 14.308594 L 15.671875 14.371094 L 15.574219 14.449219 L 15.484375 14.519531 L 15.371094 14.597656 L 15.222656 14.6875 L 15.046875 14.757812 L 14.890625 14.808594 L 14.6875 14.851562 L 14.429688 14.878906 L 14.246094 14.890625 L 12.613281 14.890625 L 12.480469 14.871094 L 12.367188 14.828125 L 12.277344 14.757812 L 12.21875 14.695312 L 12.148438 14.582031 L 12.109375 14.492188 L 12.09375 14.40625 L 12.09375 13.796875 L 12.109375 13.640625 L 12.136719 13.554688 L 12.191406 13.457031 L 12.296875 13.34375 L 12.417969 13.253906 L 12.472656 13.234375 L 12.53125 13.226562 L 12.699219 13.21875 L 14.125 13.210938 L 14.351562 13.203125 L 14.46875 13.183594 L 14.519531 13.148438 L 14.5625 13.09375 L 14.589844 13.023438 L 14.609375 12.851562 L 14.617188 10.589844 L 14.617188 8.085938 L 14.609375 5.878906 L 14.597656 5 L 14.570312 4.878906 L 14.527344 4.816406 L 14.449219 4.789062 L 14.359375 4.78125 L 14.019531 4.773438 L 10.960938 4.773438 L 10.96875 4.894531 L 10.96875 5.160156 L 10.960938 5.570312 L 10.941406 5.730469 L 10.90625 5.828125 L 10.855469 5.921875 L 10.757812 6.039062 L 10.695312 6.089844 L 10.589844 6.144531 L 10.449219 6.171875 L 10.335938 6.171875 L 10.1875 6.132812 L 10.019531 6.0625 L 9.851562 5.976562 L 9.578125 5.835938 L 9.386719 5.730469 L 9.167969 5.617188 L 8.972656 5.511719 L 8.210938 5.105469 L 8.042969 5.019531 L 7.679688 4.835938 L 7.46875 4.710938 L 7.355469 4.625 L 7.269531 4.542969 L 7.207031 4.484375 L 7.128906 4.359375 L 7.058594 4.191406 L 7.03125 4.085938 L 7.023438 4.023438 L 7.023438 3.859375 L 7.046875 3.699219 L 7.085938 3.59375 L 7.144531 3.472656 L 7.207031 3.382812 L 7.25 3.332031 L 7.390625 3.207031 L 7.539062 3.109375 L 7.777344 2.980469 L 7.972656 2.875 L 8.5 2.601562 L 8.691406 2.496094 L 8.914062 2.382812 L 9.105469 2.277344 L 9.40625 2.117188 L 9.640625 1.996094 L 9.808594 1.90625 L 10.011719 1.800781 L 10.179688 1.722656 Z M 11.953125 3.640625 L 10.960938 3.648438 L 10.953125 3.734375 L 10.953125 4.015625 L 10.960938 4.210938 L 10.976562 4.21875 L 14.117188 4.21875 L 14.429688 4.234375 L 14.597656 4.261719 L 14.710938 4.304688 L 14.820312 4.367188 L 14.914062 4.445312 L 15.003906 4.542969 L 15.074219 4.65625 L 15.125 4.773438 L 15.152344 4.914062 L 15.160156 5.046875 L 15.171875 5.800781 L 15.171875 6.574219 L 15.160156 12.726562 L 15.152344 12.992188 L 15.132812 13.164062 L 15.089844 13.304688 L 15.03125 13.414062 L 14.960938 13.5 L 14.890625 13.570312 L 14.800781 13.632812 L 14.679688 13.695312 L 14.546875 13.726562 L 14.40625 13.746094 L 14.265625 13.753906 L 13.789062 13.765625 L 12.683594 13.765625 L 12.648438 13.78125 L 12.640625 13.835938 L 12.628906 14.097656 L 12.628906 14.257812 L 12.640625 14.316406 L 12.683594 14.335938 L 14.335938 14.335938 L 14.527344 14.316406 L 14.738281 14.273438 L 14.871094 14.230469 L 14.992188 14.175781 L 15.132812 14.089844 L 15.230469 14.007812 L 15.335938 13.914062 L 15.398438 13.851562 L 15.511719 13.703125 L 15.59375 13.570312 L 15.644531 13.4375 L 15.6875 13.28125 L 15.714844 13.148438 L 15.734375 12.945312 L 15.742188 12.472656 L 15.742188 5.125 L 15.722656 4.859375 L 15.695312 4.703125 L 15.652344 4.5625 L 15.59375 4.421875 L 15.511719 4.28125 L 15.433594 4.175781 L 15.335938 4.0625 L 15.273438 4 L 15.125 3.882812 L 14.960938 3.789062 L 14.800781 3.726562 L 14.570312 3.671875 L 14.441406 3.65625 L 14.132812 3.640625 Z M 11.953125 3.640625 "/>
<path fill-rule="nonzero" fill="rgb(54.901961%, 17.254902%, 98.823529%)" fill-opacity="1" d="M 14.609375 5.117188 L 14.617188 5.117188 L 14.625 5.175781 L 14.632812 5.335938 L 14.652344 6.707031 L 14.667969 6.742188 L 14.6875 6.742188 L 14.695312 6.6875 L 14.703125 6.644531 L 14.722656 6.625 L 14.730469 6.695312 L 14.773438 6.765625 L 14.78125 6.835938 L 14.808594 6.925781 L 14.808594 6.953125 L 14.828125 6.945312 L 14.835938 6.917969 L 14.84375 6.820312 L 14.871094 6.757812 L 14.863281 6.707031 L 14.84375 6.671875 L 14.851562 6.644531 L 14.808594 6.601562 L 14.808594 6.53125 L 14.835938 6.523438 L 14.84375 6.503906 L 14.863281 6.503906 L 14.863281 6.433594 L 14.878906 6.398438 L 14.898438 6.257812 L 14.941406 6.222656 L 14.941406 6.1875 L 14.921875 6.1875 L 14.914062 6.160156 L 14.96875 6.152344 L 14.984375 6.144531 L 15.011719 6.089844 L 15.011719 6.03125 L 15.039062 5.96875 L 15.054688 5.90625 L 15.117188 5.898438 L 15.109375 5.851562 L 15.117188 5.800781 L 15.125 5.800781 L 15.132812 6.109375 L 15.125 6.132812 L 15.160156 6.144531 L 15.171875 5.800781 L 15.179688 5.800781 L 15.179688 6.574219 L 15.171875 12.726562 L 15.160156 12.992188 L 15.144531 13.164062 L 15.101562 13.304688 L 15.039062 13.414062 L 14.96875 13.5 L 14.890625 13.578125 L 14.800781 13.640625 L 14.679688 13.703125 L 14.546875 13.738281 L 14.40625 13.753906 L 14.265625 13.765625 L 13.789062 13.773438 L 12.683594 13.773438 L 12.65625 13.78125 L 12.648438 13.835938 L 12.640625 14.097656 L 12.640625 14.257812 L 12.648438 14.316406 L 12.683594 14.328125 L 14.335938 14.328125 L 14.527344 14.308594 L 14.738281 14.265625 L 14.871094 14.21875 L 14.992188 14.167969 L 15.132812 14.078125 L 15.230469 14 L 15.335938 13.90625 L 15.425781 13.808594 L 15.523438 13.675781 L 15.601562 13.535156 L 15.671875 13.324219 L 15.707031 13.148438 L 15.722656 12.945312 L 15.734375 12.472656 L 15.734375 11.75 L 15.742188 5.351562 L 15.757812 5.371094 L 15.757812 5.835938 L 15.765625 6.617188 L 15.785156 6.644531 L 15.804688 6.6875 L 15.875 6.671875 L 15.898438 6.714844 L 15.917969 6.765625 L 15.917969 6.8125 L 15.960938 6.828125 L 15.953125 6.785156 L 15.96875 6.765625 L 16.015625 6.777344 L 16.058594 6.757812 L 16.085938 6.765625 L 16.085938 6.75 L 16.109375 6.734375 L 16.117188 6.652344 L 16.136719 6.625 L 16.15625 6.625 L 16.171875 6.582031 L 16.1875 6.566406 L 16.179688 6.496094 L 16.207031 6.453125 L 16.214844 6.398438 L 16.234375 6.398438 L 16.214844 6.328125 L 16.226562 6.089844 L 16.226562 5.84375 L 16.25 5.609375 L 16.277344 5.519531 L 16.285156 5.519531 L 16.304688 5.757812 L 16.304688 8.03125 L 16.296875 12.664062 L 16.285156 12.980469 L 16.269531 13.246094 L 16.226562 13.472656 L 16.15625 13.683594 L 16.074219 13.851562 L 16.003906 13.976562 L 15.898438 14.117188 L 15.828125 14.203125 L 15.734375 14.308594 L 15.671875 14.371094 L 15.574219 14.449219 L 15.484375 14.519531 L 15.371094 14.597656 L 15.222656 14.6875 L 15.046875 14.757812 L 14.890625 14.808594 L 14.6875 14.851562 L 14.429688 14.878906 L 14.246094 14.890625 L 12.613281 14.890625 L 12.480469 14.871094 L 12.367188 14.828125 L 12.277344 14.757812 L 12.21875 14.695312 L 12.148438 14.582031 L 12.109375 14.492188 L 12.09375 14.40625 L 12.09375 13.796875 L 12.109375 13.640625 L 12.136719 13.554688 L 12.191406 13.457031 L 12.296875 13.34375 L 12.417969 13.253906 L 12.472656 13.234375 L 12.53125 13.226562 L 12.699219 13.21875 L 14.125 13.210938 L 14.351562 13.203125 L 14.46875 13.183594 L 14.519531 13.148438 L 14.5625 13.09375 L 14.589844 13.023438 L 14.609375 12.851562 L 14.617188 10.589844 L 14.617188 8.085938 L 14.609375 5.878906 Z M 14.609375 5.117188 "/>
<path fill-rule="nonzero" fill="rgb(18.039216%, 29.411765%, 98.823529%)" fill-opacity="1" d="M 3.875 3.085938 L 4.984375 3.085938 L 5.273438 3.09375 L 5.5 3.109375 L 5.597656 3.148438 L 5.695312 3.21875 L 5.792969 3.332031 L 5.851562 3.453125 L 5.890625 3.59375 L 5.90625 3.824219 L 5.90625 4.035156 L 5.890625 4.304688 L 5.851562 4.4375 L 5.792969 4.542969 L 5.703125 4.640625 L 5.589844 4.71875 L 5.511719 4.746094 L 5.441406 4.753906 L 5.273438 4.765625 L 3.664062 4.78125 L 3.515625 4.796875 L 3.460938 4.835938 L 3.429688 4.878906 L 3.390625 4.964844 L 3.382812 5.035156 L 3.367188 5.6875 L 3.347656 5.695312 L 3.339844 5.757812 L 3.304688 5.863281 L 3.277344 5.863281 L 3.289062 5.921875 L 3.269531 5.960938 L 3.269531 6.003906 L 3.242188 6.03125 L 3.261719 6.074219 L 3.269531 6.089844 L 3.261719 6.117188 L 3.226562 6.125 L 3.191406 6.117188 L 3.179688 6.171875 L 3.179688 6.195312 L 3.128906 6.203125 L 3.128906 6.230469 L 3.101562 6.242188 L 3.085938 6.285156 L 3.085938 6.3125 L 3.050781 6.433594 L 3.039062 6.453125 L 3.085938 6.460938 L 3.085938 6.476562 L 3.066406 6.476562 L 3.066406 6.617188 L 3.023438 6.757812 L 2.996094 6.75 L 2.980469 6.679688 L 2.945312 6.671875 L 2.917969 6.617188 L 2.910156 6.609375 L 2.910156 6.679688 L 2.867188 6.695312 L 2.855469 6.679688 L 2.875 6.679688 L 2.855469 6.617188 L 2.828125 6.59375 L 2.820312 6.414062 L 2.820312 6.355469 L 2.8125 6.3125 L 2.8125 4.964844 L 2.828125 4.851562 L 2.875 4.71875 L 2.9375 4.613281 L 3.015625 4.507812 L 3.058594 4.457031 L 3.078125 4.457031 L 3.085938 4.429688 L 3.179688 4.351562 L 3.269531 4.296875 L 3.359375 4.261719 L 3.480469 4.234375 L 3.664062 4.21875 L 3.953125 4.210938 L 5.289062 4.210938 L 5.335938 4.203125 L 5.34375 4.042969 L 5.34375 3.664062 L 5.308594 3.65625 L 4.949219 3.648438 L 4.183594 3.648438 L 3.699219 3.65625 L 3.460938 3.671875 L 3.269531 3.710938 L 3.066406 3.78125 L 2.917969 3.859375 L 2.796875 3.945312 L 2.679688 4.042969 L 2.609375 4.113281 L 2.496094 4.273438 L 2.417969 4.414062 L 2.355469 4.554688 L 2.304688 4.710938 L 2.277344 4.84375 L 2.257812 5 L 2.25 5.167969 L 2.242188 5.984375 L 2.222656 6.019531 L 2.214844 5.660156 L 2.195312 5.617188 L 2.171875 5.695312 L 2.152344 5.78125 L 2.171875 5.800781 L 2.164062 5.835938 L 2.136719 5.863281 L 2.101562 5.878906 L 2.082031 5.976562 L 2.066406 6.003906 L 2.054688 6.046875 L 2.011719 6.054688 L 2.003906 6.101562 L 1.960938 6.117188 L 1.960938 6.25 L 1.941406 6.273438 L 1.953125 6.355469 L 1.914062 6.460938 L 1.925781 6.582031 L 1.941406 6.644531 L 1.914062 6.707031 L 1.90625 6.777344 L 1.890625 6.777344 L 1.914062 6.835938 L 1.90625 6.890625 L 1.890625 6.898438 L 1.890625 6.882812 L 1.863281 6.882812 L 1.855469 6.847656 L 1.863281 6.792969 L 1.855469 6.777344 L 1.855469 6.6875 L 1.882812 6.679688 L 1.835938 6.601562 L 1.828125 6.539062 L 1.835938 6.496094 L 1.8125 6.398438 L 1.8125 6.382812 L 1.773438 6.390625 L 1.730469 6.34375 L 1.722656 6.3125 L 1.742188 6.273438 L 1.714844 6.257812 L 1.714844 6.195312 L 1.703125 6.1875 L 1.703125 6.011719 L 1.695312 6.109375 L 1.6875 6.109375 L 1.6875 5.0625 L 1.695312 4.859375 L 1.722656 4.65625 L 1.765625 4.492188 L 1.835938 4.304688 L 1.914062 4.140625 L 2.023438 3.964844 L 2.136719 3.8125 L 2.234375 3.699219 L 2.355469 3.578125 L 2.453125 3.5 L 2.609375 3.382812 L 2.75 3.304688 L 2.917969 3.226562 L 3.101562 3.164062 L 3.289062 3.128906 L 3.515625 3.101562 Z M 3.875 3.085938 "/>
<path fill-rule="nonzero" fill="rgb(18.039216%, 29.019608%, 98.823529%)" fill-opacity="1" d="M 10.941406 3.648438 L 10.960938 3.648438 L 10.960938 4.210938 L 14.117188 4.210938 L 14.429688 4.226562 L 14.597656 4.253906 L 14.710938 4.296875 L 14.820312 4.359375 L 14.914062 4.4375 L 14.976562 4.5 L 15.0625 4.625 L 15.132812 4.773438 L 15.160156 4.914062 L 15.171875 5.046875 L 15.171875 6.152344 L 15.144531 6.152344 L 15.144531 6.132812 L 15.125 6.132812 L 15.125 6.019531 L 15.117188 5.898438 L 15.054688 5.90625 L 15.046875 5.96875 L 15.019531 6.03125 L 15.019531 6.089844 L 14.984375 6.152344 L 14.941406 6.171875 L 14.921875 6.171875 L 14.921875 6.1875 L 14.941406 6.1875 L 14.949219 6.222656 L 14.914062 6.257812 L 14.898438 6.257812 L 14.890625 6.398438 L 14.871094 6.433594 L 14.863281 6.503906 L 14.84375 6.503906 L 14.835938 6.53125 L 14.808594 6.53125 L 14.820312 6.601562 L 14.863281 6.652344 L 14.851562 6.679688 L 14.878906 6.722656 L 14.871094 6.777344 L 14.851562 6.820312 L 14.84375 6.917969 L 14.828125 6.953125 L 14.808594 6.953125 L 14.765625 6.8125 L 14.757812 6.75 L 14.722656 6.6875 L 14.710938 6.644531 L 14.703125 6.6875 L 14.695312 6.757812 L 14.652344 6.734375 L 14.640625 6.707031 L 14.625 5.335938 L 14.617188 5.160156 L 14.589844 4.9375 L 14.5625 4.859375 L 14.527344 4.816406 L 14.449219 4.789062 L 14.359375 4.78125 L 14.019531 4.773438 L 10.960938 4.773438 L 10.96875 4.894531 L 10.96875 5.160156 L 10.960938 5.570312 L 10.941406 5.730469 L 10.90625 5.828125 L 10.855469 5.921875 L 10.757812 6.039062 L 10.695312 6.089844 L 10.589844 6.144531 L 10.449219 6.171875 L 10.335938 6.171875 L 10.1875 6.132812 L 10.019531 6.0625 L 9.851562 5.976562 L 9.578125 5.835938 L 9.386719 5.730469 L 9.167969 5.617188 L 8.972656 5.511719 L 8.210938 5.105469 L 8.042969 5.019531 L 7.679688 4.835938 L 7.46875 4.710938 L 7.410156 4.667969 L 7.417969 4.605469 L 7.46875 4.578125 L 7.46875 4.535156 L 7.4375 4.515625 L 7.4375 4.492188 L 7.453125 4.492188 L 7.453125 4.507812 L 7.523438 4.515625 L 7.550781 4.542969 L 7.601562 4.542969 L 7.648438 4.5 L 7.679688 4.515625 L 7.679688 4.535156 L 7.761719 4.515625 L 7.820312 4.5 L 7.859375 4.5 L 7.867188 4.457031 L 7.902344 4.4375 L 7.917969 4.394531 L 7.953125 4.402344 L 7.945312 4.375 L 8.03125 4.402344 L 8.4375 4.613281 L 8.605469 4.703125 L 8.691406 4.753906 L 8.816406 4.816406 L 8.984375 4.90625 L 9.359375 5.097656 L 9.5 5.175781 L 9.640625 5.246094 L 9.765625 5.316406 L 9.90625 5.386719 L 10.140625 5.519531 L 10.292969 5.609375 L 10.378906 5.652344 L 10.40625 5.640625 L 10.414062 5.609375 L 10.421875 4.824219 L 10.441406 4.824219 L 10.449219 4.710938 L 10.46875 4.597656 L 10.492188 4.554688 L 10.476562 4.515625 L 10.460938 4.4375 L 10.449219 4.421875 L 10.449219 4.367188 L 10.460938 4.332031 L 10.449219 4.289062 L 10.460938 4.246094 L 10.441406 4.210938 L 10.433594 4.085938 L 10.433594 3.945312 L 10.449219 3.953125 L 10.476562 4.015625 L 10.476562 4.035156 L 10.511719 4.042969 L 10.53125 4.078125 L 10.546875 4.050781 L 10.5625 4.050781 L 10.582031 4.035156 L 10.617188 4.070312 L 10.632812 4.113281 L 10.714844 4.105469 L 10.75 4.121094 L 10.730469 4.0625 L 10.703125 4.023438 L 10.730469 4.015625 L 10.722656 3.953125 L 10.714844 3.910156 L 10.730469 3.867188 L 10.730469 3.832031 L 10.75 3.8125 L 10.773438 3.753906 L 10.800781 3.742188 L 10.828125 3.664062 Z M 10.941406 3.648438 "/>
<path fill-rule="nonzero" fill="rgb(63.529412%, 66.27451%, 99.215686%)" fill-opacity="1" d="M 7.601562 12.375 L 7.664062 12.390625 L 7.789062 12.460938 L 7.890625 12.507812 L 8.042969 12.585938 L 8.148438 12.648438 L 8.269531 12.710938 L 8.464844 12.8125 L 8.605469 12.894531 L 8.746094 12.964844 L 9 13.09375 L 9.167969 13.183594 L 9.359375 13.289062 L 9.507812 13.367188 L 9.859375 13.542969 L 9.949219 13.597656 L 10.070312 13.65625 L 10.257812 13.773438 L 10.34375 13.835938 L 10.414062 13.914062 L 10.441406 13.992188 L 10.441406 14.0625 L 10.40625 14.203125 L 10.34375 14.273438 L 10.238281 14.34375 L 10.082031 14.441406 L 9.957031 14.5 L 9.765625 14.609375 L 9.5625 14.710938 L 9.367188 14.820312 L 9.070312 14.976562 L 8.875 15.082031 L 8.402344 15.335938 L 8.042969 15.523438 L 7.796875 15.664062 L 7.628906 15.757812 L 7.585938 15.757812 L 7.578125 14.519531 L 7.578125 13.976562 L 7.585938 13.035156 L 7.59375 12.621094 L 7.59375 12.410156 Z M 7.601562 12.375 "/>
<path fill-rule="nonzero" fill="rgb(63.529412%, 66.27451%, 99.215686%)" fill-opacity="1" d="M 10.335938 2.257812 L 10.378906 2.265625 L 10.398438 2.285156 L 10.40625 2.636719 L 10.40625 5.511719 L 10.378906 5.625 L 10.335938 5.617188 L 10.210938 5.546875 L 10.109375 5.492188 L 9.828125 5.335938 L 9.71875 5.28125 L 9.5625 5.195312 L 9.421875 5.125 L 9.183594 5 L 9.027344 4.914062 L 8.886719 4.84375 L 8.648438 4.71875 L 8.453125 4.613281 L 8.183594 4.472656 L 7.980469 4.359375 L 7.832031 4.273438 L 7.699219 4.175781 L 7.609375 4.09375 L 7.566406 4.035156 L 7.566406 3.839844 L 7.59375 3.753906 L 7.664062 3.699219 L 7.75 3.640625 L 7.859375 3.578125 L 8 3.507812 L 8.269531 3.359375 L 8.324219 3.332031 L 8.492188 3.242188 L 8.710938 3.128906 L 8.867188 3.039062 L 9.054688 2.953125 L 9.15625 2.890625 L 9.324219 2.8125 L 9.464844 2.734375 L 9.597656 2.664062 L 9.789062 2.558594 L 9.929688 2.476562 L 10.039062 2.425781 L 10.25 2.304688 Z M 10.335938 2.257812 "/>
<path fill-rule="nonzero" fill="rgb(9.019608%, 34.901961%, 99.607843%)" fill-opacity="1" d="M 10.300781 1.6875 L 10.46875 1.6875 L 10.582031 1.714844 L 10.714844 1.785156 L 10.792969 1.855469 L 10.863281 1.953125 L 10.914062 2.054688 L 10.941406 2.152344 L 10.960938 2.355469 L 10.960938 3.09375 L 11.023438 3.09375 L 11.046875 3.121094 L 11.03125 3.136719 L 11.003906 3.136719 L 11.003906 3.15625 L 10.976562 3.171875 L 10.996094 3.207031 L 10.996094 3.234375 L 10.976562 3.242188 L 11.003906 3.3125 L 11.003906 3.242188 L 11.054688 3.226562 L 11.066406 3.234375 L 11.066406 3.359375 L 11.03125 3.382812 L 10.976562 3.390625 L 10.976562 3.472656 L 10.960938 3.507812 L 10.953125 3.570312 L 10.925781 3.59375 L 10.871094 3.585938 L 10.898438 3.613281 L 10.960938 3.621094 L 10.960938 3.648438 L 10.941406 3.65625 L 10.828125 3.671875 L 10.800781 3.742188 L 10.765625 3.78125 L 10.75 3.824219 L 10.730469 3.859375 L 10.742188 3.875 L 10.722656 3.929688 L 10.742188 3.992188 L 10.730469 4.015625 L 10.714844 4.023438 L 10.742188 4.0625 L 10.75 4.121094 L 10.695312 4.113281 L 10.632812 4.121094 L 10.609375 4.070312 L 10.609375 4.050781 L 10.574219 4.050781 L 10.554688 4.070312 L 10.546875 4.0625 L 10.53125 4.085938 L 10.503906 4.042969 L 10.476562 4.035156 L 10.449219 3.972656 L 10.433594 3.945312 L 10.449219 4.210938 L 10.46875 4.261719 L 10.460938 4.304688 L 10.46875 4.359375 L 10.460938 4.367188 L 10.460938 4.421875 L 10.476562 4.457031 L 10.492188 4.535156 L 10.503906 4.5625 L 10.484375 4.570312 L 10.46875 4.65625 L 10.449219 4.824219 L 10.433594 4.859375 L 10.421875 5.609375 L 10.40625 5.652344 L 10.378906 5.660156 L 10.273438 5.609375 L 10.140625 5.527344 L 9.929688 5.414062 L 9.789062 5.335938 L 9.703125 5.289062 L 9.597656 5.230469 L 9.457031 5.160156 L 9.148438 5 L 8.984375 4.914062 L 8.726562 4.78125 L 8.523438 4.667969 L 8.382812 4.597656 L 8.09375 4.445312 L 8.03125 4.414062 L 7.945312 4.375 L 7.953125 4.394531 L 7.980469 4.414062 L 7.953125 4.421875 L 7.917969 4.402344 L 7.902344 4.445312 L 7.867188 4.472656 L 7.867188 4.507812 L 7.777344 4.515625 L 7.734375 4.535156 L 7.679688 4.535156 L 7.671875 4.515625 L 7.636719 4.507812 L 7.601562 4.554688 L 7.550781 4.554688 L 7.539062 4.527344 L 7.453125 4.507812 L 7.453125 4.492188 L 7.4375 4.492188 L 7.453125 4.527344 L 7.480469 4.554688 L 7.46875 4.585938 L 7.425781 4.605469 L 7.417969 4.65625 L 7.375 4.640625 L 7.257812 4.535156 L 7.179688 4.445312 L 7.101562 4.304688 L 7.046875 4.15625 L 7.023438 4.023438 L 7.023438 3.859375 L 7.046875 3.699219 L 7.085938 3.59375 L 7.144531 3.472656 L 7.207031 3.382812 L 7.25 3.332031 L 7.390625 3.207031 L 7.539062 3.109375 L 7.777344 2.980469 L 7.972656 2.875 L 8.5 2.601562 L 8.691406 2.496094 L 8.914062 2.382812 L 9.105469 2.277344 L 9.40625 2.117188 L 9.640625 1.996094 L 9.808594 1.90625 L 10.011719 1.800781 L 10.179688 1.722656 Z M 10.335938 2.257812 L 10.210938 2.320312 L 10.082031 2.398438 L 9.957031 2.46875 L 9.851562 2.523438 L 9.648438 2.636719 L 9.597656 2.664062 L 9.429688 2.75 L 9.324219 2.8125 L 9.140625 2.898438 L 9.035156 2.960938 L 8.851562 3.050781 L 8.761719 3.101562 L 8.621094 3.171875 L 8.453125 3.261719 L 8.324219 3.332031 L 8.007812 3.5 L 7.882812 3.570312 L 7.777344 3.621094 L 7.664062 3.699219 L 7.59375 3.753906 L 7.566406 3.839844 L 7.566406 4.035156 L 7.628906 4.113281 L 7.71875 4.191406 L 7.875 4.296875 L 8.042969 4.394531 L 8.269531 4.515625 L 8.492188 4.632812 L 8.683594 4.738281 L 8.902344 4.851562 L 9.070312 4.9375 L 9.308594 5.0625 L 9.535156 5.1875 L 9.675781 5.257812 L 9.800781 5.328125 L 9.921875 5.386719 L 10.125 5.5 L 10.222656 5.554688 L 10.34375 5.625 L 10.378906 5.625 L 10.40625 5.511719 L 10.40625 2.636719 L 10.398438 2.285156 L 10.363281 2.257812 Z M 10.335938 2.257812 "/>
<path fill-rule="nonzero" fill="rgb(7.058824%, 38.431373%, 100%)" fill-opacity="1" d="M 10.222656 2.117188 L 10.28125 2.136719 L 10.335938 2.195312 L 10.421875 2.1875 L 10.476562 2.179688 L 10.492188 2.195312 L 10.476562 2.207031 L 10.519531 2.234375 L 10.511719 2.328125 L 10.503906 2.335938 L 10.503906 2.433594 L 10.449219 2.417969 L 10.433594 2.433594 L 10.414062 2.40625 L 10.421875 4.359375 L 10.421875 5.609375 L 10.40625 5.652344 L 10.378906 5.660156 L 10.273438 5.609375 L 10.140625 5.527344 L 9.929688 5.414062 L 9.789062 5.335938 L 9.703125 5.289062 L 9.597656 5.230469 L 9.457031 5.160156 L 9.148438 5 L 8.984375 4.914062 L 8.726562 4.78125 L 8.523438 4.667969 L 8.382812 4.597656 L 8.09375 4.445312 L 7.890625 4.332031 L 7.769531 4.253906 L 7.699219 4.203125 L 7.636719 4.148438 L 7.636719 4.132812 L 7.601562 4.113281 L 7.558594 4.042969 L 7.550781 4.023438 L 7.550781 3.804688 L 7.578125 3.753906 L 7.65625 3.683594 L 7.75 3.621094 L 7.839844 3.570312 L 7.980469 3.5 L 8.050781 3.453125 L 8.015625 3.445312 L 8.023438 3.429688 L 8.09375 3.390625 L 8.121094 3.390625 L 8.140625 3.359375 L 8.171875 3.332031 L 8.199219 3.332031 L 8.210938 3.304688 L 8.234375 3.304688 L 8.253906 3.242188 L 8.324219 3.242188 L 8.324219 3.207031 L 8.351562 3.171875 L 8.421875 3.136719 L 8.429688 3.121094 L 8.480469 3.101562 L 8.523438 3.050781 L 8.585938 3.007812 L 8.640625 2.980469 L 8.632812 2.960938 L 8.640625 2.945312 L 8.65625 2.945312 L 8.65625 2.925781 L 8.703125 2.898438 L 8.746094 2.855469 L 8.789062 2.847656 L 8.789062 2.828125 L 8.894531 2.769531 L 8.9375 2.742188 L 8.984375 2.699219 L 9.070312 2.664062 L 9.140625 2.617188 L 9.195312 2.59375 L 9.335938 2.539062 L 9.367188 2.515625 L 9.4375 2.488281 L 9.507812 2.445312 L 9.640625 2.375 L 9.703125 2.335938 L 9.835938 2.25 L 9.941406 2.195312 L 10 2.171875 L 10.109375 2.144531 L 10.195312 2.136719 Z M 10.335938 2.257812 L 10.210938 2.320312 L 10.082031 2.398438 L 9.957031 2.46875 L 9.851562 2.523438 L 9.648438 2.636719 L 9.597656 2.664062 L 9.429688 2.75 L 9.324219 2.8125 L 9.140625 2.898438 L 9.035156 2.960938 L 8.851562 3.050781 L 8.761719 3.101562 L 8.621094 3.171875 L 8.453125 3.261719 L 8.324219 3.332031 L 8.007812 3.5 L 7.882812 3.570312 L 7.777344 3.621094 L 7.664062 3.699219 L 7.59375 3.753906 L 7.566406 3.839844 L 7.566406 4.035156 L 7.628906 4.113281 L 7.71875 4.191406 L 7.875 4.296875 L 8.042969 4.394531 L 8.269531 4.515625 L 8.492188 4.632812 L 8.683594 4.738281 L 8.902344 4.851562 L 9.070312 4.9375 L 9.308594 5.0625 L 9.535156 5.1875 L 9.675781 5.257812 L 9.800781 5.328125 L 9.921875 5.386719 L 10.125 5.5 L 10.222656 5.554688 L 10.34375 5.625 L 10.378906 5.625 L 10.40625 5.511719 L 10.40625 2.636719 L 10.398438 2.285156 L 10.363281 2.257812 Z M 10.335938 2.257812 "/>
<path fill-rule="nonzero" fill="rgb(52.156863%, 3.529412%, 87.843137%)" fill-opacity="1" d="M 7.015625 14.328125 L 7.03125 14.328125 L 7.023438 14.359375 L 6.953125 14.378906 L 6.777344 14.398438 L 5.878906 14.398438 L 4.9375 14.40625 L 4.71875 14.40625 L 4.632812 14.414062 L 4.472656 14.414062 L 4.273438 14.421875 L 4.070312 14.421875 L 3.929688 14.414062 L 3.882812 14.398438 L 3.78125 14.378906 L 3.710938 14.359375 L 3.710938 14.34375 L 3.683594 14.335938 Z M 7.015625 14.328125 "/>
<path fill-rule="nonzero" fill="rgb(52.156863%, 3.529412%, 87.843137%)" fill-opacity="1" d="M 7.046875 12.25 L 7.058594 12.25 L 7.058594 12.59375 L 7.046875 13.226562 L 7.03125 13.246094 L 6.820312 13.253906 L 6.144531 13.261719 L 5.1875 13.273438 L 3.945312 13.261719 L 3.761719 13.246094 L 3.726562 13.21875 L 6.953125 13.210938 L 7.015625 13.203125 L 7.023438 12.445312 L 7.03125 12.289062 Z M 7.046875 12.25 "/>
<path fill-rule="nonzero" fill="rgb(50.980392%, 4.313725%, 87.843137%)" fill-opacity="1" d="M 14.609375 5.117188 L 14.617188 5.117188 L 14.625 5.175781 L 14.632812 5.335938 L 14.632812 7.015625 L 14.640625 10.308594 L 14.652344 10.996094 L 14.652344 12.742188 L 14.625 12.882812 L 14.617188 12.882812 L 14.617188 8.085938 L 14.609375 5.878906 Z M 14.609375 5.117188 "/>
<path fill-rule="nonzero" fill="rgb(52.941176%, 5.882353%, 88.627451%)" fill-opacity="1" d="M 5.21875 13.703125 L 5.539062 13.710938 L 5.75 13.710938 L 6.398438 13.726562 L 6.652344 13.726562 L 6.90625 13.746094 L 7.03125 13.746094 L 7.039062 13.773438 L 7.023438 13.78125 L 6.8125 13.773438 L 3.859375 13.773438 L 3.558594 13.765625 L 3.523438 13.746094 L 3.621094 13.738281 L 3.894531 13.726562 L 3.910156 13.738281 L 3.921875 13.71875 L 4.351562 13.71875 L 4.796875 13.710938 L 5.046875 13.710938 Z M 5.21875 13.703125 "/>
<path fill-rule="nonzero" fill="rgb(49.019608%, 6.666667%, 89.019608%)" fill-opacity="1" d="M 2.8125 5 L 2.820312 5 L 2.820312 9 L 2.828125 11.320312 L 2.828125 13.070312 L 2.8125 13.042969 L 2.804688 12.929688 L 2.796875 11.785156 L 2.796875 10.960938 L 2.804688 5.265625 Z M 2.8125 5 "/>
<path fill-rule="nonzero" fill="rgb(49.019608%, 5.882353%, 88.627451%)" fill-opacity="1" d="M 15.742188 8.121094 L 15.75 8.121094 L 15.757812 9.097656 L 15.765625 10.828125 L 15.777344 11.769531 L 15.765625 12.78125 L 15.75 12.910156 L 15.734375 12.929688 L 15.734375 11.75 Z M 15.742188 8.121094 "/>
<path fill-rule="nonzero" fill="rgb(52.54902%, 5.098039%, 89.019608%)" fill-opacity="1" d="M 4.472656 14.851562 L 5.96875 14.851562 L 6.863281 14.871094 L 6.945312 14.878906 L 6.945312 14.890625 L 3.613281 14.890625 L 3.578125 14.871094 L 3.972656 14.863281 L 4.121094 14.863281 Z M 4.472656 14.851562 "/>
<path fill-rule="nonzero" fill="rgb(7.058824%, 38.823529%, 100%)" fill-opacity="1" d="M 10.632812 1.953125 L 10.757812 1.953125 L 10.792969 2.03125 L 10.792969 2.046875 L 10.828125 2.066406 L 10.855469 2.195312 L 10.84375 2.265625 L 10.84375 2.363281 L 10.8125 2.347656 L 10.785156 2.445312 L 10.765625 2.476562 L 10.730469 2.460938 L 10.703125 2.382812 L 10.660156 2.304688 L 10.644531 2.242188 L 10.625 2.207031 L 10.601562 2.195312 L 10.601562 2.144531 L 10.609375 2.125 L 10.601562 2.082031 L 10.617188 2.046875 L 10.625 1.960938 Z M 10.632812 1.953125 "/>
<path fill-rule="nonzero" fill="rgb(51.372549%, 4.705882%, 88.235294%)" fill-opacity="1" d="M 12.640625 14.328125 L 14.316406 14.335938 L 14.300781 14.351562 L 14.1875 14.398438 L 14.140625 14.386719 L 14.140625 14.40625 L 13.964844 14.40625 L 13.816406 14.398438 L 13.332031 14.386719 L 12.8125 14.386719 L 12.671875 14.359375 L 12.640625 14.34375 Z M 12.640625 14.328125 "/>
<path fill-rule="nonzero" fill="rgb(49.411765%, 5.490196%, 88.235294%)" fill-opacity="1" d="M 14.609375 5.117188 L 14.617188 5.117188 L 14.625 5.175781 L 14.632812 5.335938 L 14.632812 10.308594 L 14.625 10.308594 L 14.609375 5.878906 Z M 14.609375 5.117188 "/>
<path fill-rule="nonzero" fill="rgb(51.764706%, 4.313725%, 87.843137%)" fill-opacity="1" d="M 14.125 13.210938 L 14.328125 13.210938 L 14.300781 13.226562 L 14.230469 13.253906 L 14.007812 13.261719 L 12.683594 13.261719 L 12.488281 13.253906 L 12.488281 13.234375 L 12.53125 13.226562 L 12.699219 13.21875 Z M 14.125 13.210938 "/>
<path fill-rule="nonzero" fill="rgb(49.803922%, 7.45098%, 88.627451%)" fill-opacity="1" d="M 1.6875 10.019531 L 1.695312 10.019531 L 1.703125 10.441406 L 1.714844 11.546875 L 1.714844 12.15625 L 1.703125 12.851562 L 1.695312 12.851562 L 1.6875 12.691406 L 1.679688 11.679688 L 1.679688 10.027344 Z M 1.6875 10.019531 "/>
<path fill-rule="nonzero" fill="rgb(18.039216%, 29.411765%, 99.215686%)" fill-opacity="1" d="M 7.390625 4.042969 L 7.410156 4.050781 L 7.410156 4.085938 L 7.425781 4.09375 L 7.417969 4.132812 L 7.398438 4.140625 L 7.398438 4.164062 L 7.445312 4.183594 L 7.425781 4.21875 L 7.417969 4.246094 L 7.375 4.261719 L 7.398438 4.304688 L 7.390625 4.34375 L 7.367188 4.332031 L 7.347656 4.289062 L 7.296875 4.273438 L 7.296875 4.246094 L 7.199219 4.21875 L 7.179688 4.21875 L 7.171875 4.246094 L 7.136719 4.21875 L 7.136719 4.183594 L 7.101562 4.203125 L 7.09375 4.21875 L 7.066406 4.21875 L 7.046875 4.132812 L 7.101562 4.085938 L 7.164062 4.09375 L 7.1875 4.121094 L 7.1875 4.140625 L 7.234375 4.121094 L 7.234375 4.085938 L 7.296875 4.078125 L 7.328125 4.085938 L 7.347656 4.050781 Z M 7.390625 4.042969 "/>
<path fill-rule="nonzero" fill="rgb(53.72549%, 12.54902%, 89.411765%)" fill-opacity="1" d="M 12.910156 13.726562 L 13.351562 13.726562 L 13.625 13.738281 L 13.9375 13.738281 L 14.34375 13.746094 L 14.34375 13.753906 L 14.265625 13.765625 L 13.789062 13.773438 L 12.65625 13.773438 L 12.664062 13.746094 L 12.691406 13.738281 Z M 12.910156 13.726562 "/>
<path fill-rule="nonzero" fill="rgb(17.647059%, 30.196078%, 99.215686%)" fill-opacity="1" d="M 7.839844 2.945312 L 7.902344 2.953125 L 7.902344 2.96875 L 7.882812 2.96875 L 7.882812 3.007812 L 7.859375 3.058594 L 7.796875 3.109375 L 7.75 3.136719 L 7.734375 3.136719 L 7.734375 3.15625 L 7.671875 3.164062 L 7.609375 3.199219 L 7.585938 3.21875 L 7.550781 3.207031 L 7.53125 3.164062 L 7.496094 3.136719 L 7.636719 3.058594 Z M 7.839844 2.945312 "/>
<path fill-rule="nonzero" fill="rgb(47.058824%, 8.627451%, 89.411765%)" fill-opacity="1" d="M 14.609375 5.117188 L 14.617188 5.117188 L 14.625 5.175781 L 14.632812 5.335938 L 14.632812 7.003906 L 14.617188 7.015625 L 14.609375 5.878906 Z M 14.609375 5.117188 "/>
<path fill-rule="nonzero" fill="rgb(18.039216%, 29.803922%, 99.215686%)" fill-opacity="1" d="M 7.15625 3.460938 L 7.1875 3.472656 L 7.207031 3.515625 L 7.214844 3.601562 L 7.234375 3.601562 L 7.214844 3.65625 L 7.207031 3.691406 L 7.164062 3.71875 L 7.109375 3.761719 L 7.046875 3.769531 L 7.039062 3.734375 L 7.085938 3.59375 L 7.144531 3.472656 Z M 7.15625 3.460938 "/>
<path fill-rule="nonzero" fill="rgb(52.54902%, 18.823529%, 99.215686%)" fill-opacity="1" d="M 10.292969 6.03125 L 10.328125 6.03125 L 10.328125 6.046875 L 10.378906 6.039062 L 10.433594 6.082031 L 10.53125 6.117188 L 10.5625 6.144531 L 10.449219 6.171875 L 10.335938 6.171875 L 10.25 6.152344 L 10.222656 6.117188 L 10.222656 6.039062 L 10.273438 6.039062 Z M 10.292969 6.03125 "/>
<path fill-rule="nonzero" fill="rgb(52.54902%, 3.529412%, 87.843137%)" fill-opacity="1" d="M 15.160156 10.152344 L 15.171875 10.152344 L 15.171875 11.839844 L 15.160156 11.839844 L 15.152344 11.726562 L 15.144531 11.355469 L 15.144531 10.8125 L 15.152344 10.730469 L 15.144531 10.609375 L 15.152344 10.53125 L 15.152344 10.335938 Z M 15.160156 10.152344 "/>
<path fill-rule="nonzero" fill="rgb(50.196078%, 5.882353%, 88.627451%)" fill-opacity="1" d="M 5.335938 4.203125 L 5.335938 4.226562 L 5.28125 4.234375 L 4.824219 4.234375 L 3.921875 4.226562 L 3.953125 4.210938 L 5.289062 4.210938 Z M 5.335938 4.203125 "/>
<path fill-rule="nonzero" fill="rgb(52.54902%, 3.529412%, 87.843137%)" fill-opacity="1" d="M 13.316406 14.863281 L 13.640625 14.863281 L 13.949219 14.871094 L 13.949219 14.890625 L 12.804688 14.890625 L 12.804688 14.878906 L 12.851562 14.871094 Z M 13.316406 14.863281 "/>
<path fill-rule="nonzero" fill="rgb(18.039216%, 30.196078%, 99.215686%)" fill-opacity="1" d="M 10.300781 1.6875 L 10.46875 1.6875 L 10.539062 1.703125 L 10.503906 1.742188 L 10.46875 1.75 L 10.300781 1.765625 L 10.25 1.765625 L 10.210938 1.742188 L 10.210938 1.714844 Z M 10.300781 1.6875 "/>
<path fill-rule="nonzero" fill="rgb(56.470588%, 25.882353%, 91.764706%)" fill-opacity="1" d="M 6.953125 14.871094 L 7.015625 14.871094 L 7.039062 14.890625 L 7.039062 15.664062 L 7.03125 15.664062 L 7.023438 15.503906 L 7.023438 14.898438 L 6.722656 14.898438 L 6.722656 14.890625 L 6.945312 14.878906 Z M 6.953125 14.871094 "/>
<path fill-rule="nonzero" fill="rgb(15.294118%, 34.509804%, 99.215686%)" fill-opacity="1" d="M 10.933594 2.265625 L 10.953125 2.265625 L 10.960938 2.355469 L 10.960938 2.898438 L 10.953125 3.058594 L 10.941406 3.058594 L 10.933594 2.867188 Z M 10.933594 2.265625 "/>
<path fill-rule="nonzero" fill="rgb(54.901961%, 17.254902%, 99.215686%)" fill-opacity="1" d="M 1.800781 6.1875 L 1.835938 6.195312 L 1.835938 6.25 L 1.828125 6.285156 L 1.84375 6.3125 L 1.84375 6.371094 L 1.828125 6.382812 L 1.800781 6.371094 L 1.773438 6.320312 L 1.773438 6.230469 Z M 1.800781 6.1875 "/>
<path fill-rule="nonzero" fill="rgb(52.941176%, 6.27451%, 89.019608%)" fill-opacity="1" d="M 7.507812 11.804688 L 7.636719 11.804688 L 7.699219 11.820312 L 7.707031 11.847656 L 7.671875 11.855469 L 7.539062 11.855469 L 7.539062 11.828125 L 7.460938 11.828125 L 7.46875 11.8125 Z M 7.507812 11.804688 "/>
<path fill-rule="nonzero" fill="rgb(51.372549%, 10.588235%, 92.941176%)" fill-opacity="1" d="M 3.359375 5.125 L 3.375 5.148438 L 3.375 5.308594 L 3.367188 5.5625 L 3.347656 5.527344 L 3.347656 5.167969 Z M 3.359375 5.125 "/>
<path fill-rule="nonzero" fill="rgb(8.627451%, 34.901961%, 100%)" fill-opacity="1" d="M 15.734375 4.929688 L 15.765625 4.949219 L 15.785156 5.007812 L 15.792969 5.097656 L 15.742188 5.097656 L 15.734375 5.054688 Z M 15.734375 4.929688 "/>
<path fill-rule="nonzero" fill="rgb(21.568627%, 27.843137%, 99.215686%)" fill-opacity="1" d="M 10.941406 2.726562 L 10.953125 2.726562 L 10.960938 2.898438 L 10.953125 3.058594 L 10.941406 3.058594 L 10.933594 2.867188 L 10.933594 2.734375 Z M 10.941406 2.726562 "/>
<path fill-rule="nonzero" fill="rgb(35.686275%, 22.352941%, 94.117647%)" fill-opacity="1" d="M 6.953125 14.871094 L 7.015625 14.871094 L 7.039062 14.890625 L 7.03125 14.933594 L 7.023438 14.898438 L 6.722656 14.898438 L 6.722656 14.890625 L 6.945312 14.878906 Z M 6.953125 14.871094 "/>
<path fill-rule="nonzero" fill="rgb(54.901961%, 17.254902%, 99.215686%)" fill-opacity="1" d="M 14.738281 6.574219 L 14.757812 6.574219 L 14.773438 6.617188 L 14.773438 6.671875 L 14.738281 6.679688 L 14.730469 6.582031 Z M 14.738281 6.574219 "/>
<path fill-rule="nonzero" fill="rgb(18.039216%, 29.411765%, 99.215686%)" fill-opacity="1" d="M 3.121094 6.257812 L 3.148438 6.285156 L 3.136719 6.320312 L 3.101562 6.3125 L 3.09375 6.273438 Z M 3.121094 6.257812 "/>
<path fill-rule="nonzero" fill="rgb(9.019608%, 34.901961%, 100%)" fill-opacity="1" d="M 7.65625 4.570312 L 7.691406 4.570312 L 7.726562 4.605469 L 7.726562 4.625 L 7.679688 4.613281 L 7.65625 4.585938 Z M 7.65625 4.570312 "/>
</svg>
