<?xml version="1.0" encoding="UTF-8"?>
<svg xmlns="http://www.w3.org/2000/svg" xmlns:xlink="http://www.w3.org/1999/xlink" width="16" height="16" viewBox="0 0 16 16">
<path fill-rule="nonzero" fill="rgb(0%, 0%, 0%)" fill-opacity="1" d="M 16.132812 6.398438 C 16.132812 9.6875 16.132812 12.910156 16.132812 16.132812 C 10.800781 16.132812 5.464844 16.132812 0.132812 16.132812 C 0.132812 10.800781 0.132812 5.464844 0.132812 0.132812 C 5.464844 0.132812 10.800781 0.132812 16.132812 0.132812 C 16.132812 2.199219 16.132812 4.265625 16.132812 6.398438 M 14.902344 7.667969 C 14.902344 6.378906 14.933594 5.089844 14.894531 3.800781 C 14.859375 2.617188 14.453125 1.980469 13.117188 1.988281 C 9.808594 2.015625 6.496094 2.027344 3.1875 1.980469 C 1.964844 1.964844 1.316406 2.65625 1.324219 3.851562 C 1.34375 6.675781 1.332031 9.496094 1.332031 12.316406 C 1.332031 13.753906 1.824219 14.25 3.261719 14.253906 C 6.503906 14.253906 9.75 14.253906 12.992188 14.253906 C 14.289062 14.253906 14.894531 13.644531 14.902344 12.332031 C 14.90625 10.820312 14.902344 9.3125 14.902344 7.667969 Z M 14.902344 7.667969 "/>
<path fill-rule="nonzero" fill="rgb(90.980392%, 90.980392%, 91.764706%)" fill-opacity="1" d="M 14.902344 7.734375 C 14.902344 9.3125 14.90625 10.820312 14.902344 12.332031 C 14.894531 13.644531 14.289062 14.253906 12.992188 14.253906 C 9.75 14.253906 6.503906 14.253906 3.261719 14.253906 C 1.824219 14.25 1.332031 13.753906 1.332031 12.316406 C 1.332031 9.496094 1.34375 6.675781 1.324219 3.851562 C 1.316406 2.65625 1.964844 1.964844 3.1875 1.980469 C 6.496094 2.027344 9.808594 2.015625 13.117188 1.988281 C 14.453125 1.980469 14.859375 2.617188 14.894531 3.800781 C 14.933594 5.089844 14.902344 6.378906 14.902344 7.734375 M 2.847656 13.402344 C 6.289062 13.410156 9.730469 13.417969 13.171875 13.421875 C 13.730469 13.421875 14.042969 13.152344 14.042969 12.566406 C 14.039062 9.609375 14.039062 6.65625 14.042969 3.703125 C 14.042969 3.117188 13.734375 2.84375 13.175781 2.84375 C 9.824219 2.839844 6.46875 2.839844 3.117188 2.84375 C 2.523438 2.84375 2.21875 3.125 2.222656 3.742188 C 2.230469 6.675781 2.210938 9.605469 2.246094 12.539062 C 2.25 12.816406 2.566406 13.09375 2.847656 13.402344 Z M 2.847656 13.402344 "/>
<path fill-rule="nonzero" fill="rgb(29.411765%, 26.666667%, 46.27451%)" fill-opacity="1" d="M 2.792969 13.386719 C 2.566406 13.09375 2.25 12.816406 2.246094 12.539062 C 2.210938 9.605469 2.230469 6.675781 2.222656 3.742188 C 2.21875 3.125 2.523438 2.84375 3.117188 2.84375 C 6.46875 2.839844 9.824219 2.839844 13.175781 2.84375 C 13.734375 2.84375 14.042969 3.117188 14.042969 3.703125 C 14.039062 6.65625 14.039062 9.609375 14.042969 12.566406 C 14.042969 13.152344 13.730469 13.421875 13.171875 13.421875 C 9.730469 13.417969 6.289062 13.410156 2.792969 13.386719 M 2.695312 5.347656 C 2.695312 7.675781 2.695312 10.003906 2.683594 12.335938 C 2.679688 12.738281 2.773438 12.941406 3.234375 12.9375 C 6.496094 12.921875 9.757812 12.925781 13.019531 12.933594 C 13.40625 12.9375 13.585938 12.832031 13.585938 12.410156 C 13.5625 10.015625 13.558594 7.621094 13.570312 5.101562 C 13.574219 4.789062 13.542969 4.476562 13.585938 4.171875 C 13.683594 3.476562 13.382812 3.316406 12.722656 3.324219 C 9.953125 3.359375 7.183594 3.339844 4.410156 3.339844 C 2.574219 3.339844 2.574219 3.339844 2.695312 5.347656 Z M 2.695312 5.347656 "/>
<path fill-rule="nonzero" fill="rgb(84.705882%, 92.941176%, 99.607843%)" fill-opacity="1" d="M 13.546875 5.226562 C 13.558594 7.621094 13.5625 10.015625 13.585938 12.410156 C 13.585938 12.832031 13.40625 12.9375 13.019531 12.933594 C 9.757812 12.925781 6.496094 12.921875 3.234375 12.9375 C 2.773438 12.941406 2.679688 12.738281 2.683594 12.335938 C 2.695312 10.003906 2.695312 7.675781 2.765625 5.285156 C 6.40625 5.222656 9.976562 5.226562 13.546875 5.226562 M 6.734375 10.535156 C 7.417969 10.535156 8.101562 10.546875 8.789062 10.523438 C 8.921875 10.519531 9.050781 10.375 9.183594 10.296875 C 9.054688 10.203125 8.925781 10.03125 8.796875 10.027344 C 7.339844 10.007812 5.878906 10.007812 4.421875 10.027344 C 4.289062 10.03125 4.160156 10.195312 4.027344 10.289062 C 4.179688 10.371094 4.328125 10.519531 4.480469 10.523438 C 5.1875 10.550781 5.894531 10.535156 6.734375 10.535156 M 6.734375 7.472656 C 7.15625 7.472656 7.578125 7.484375 8 7.472656 C 8.394531 7.457031 8.792969 7.417969 9.1875 7.390625 C 8.585938 6.9375 4.417969 6.980469 4.019531 7.46875 C 4.878906 7.472656 5.738281 7.472656 6.734375 7.472656 M 10.648438 9.855469 C 10.664062 10.039062 10.695312 10.222656 10.695312 10.40625 C 10.691406 10.539062 10.644531 10.675781 10.617188 10.808594 C 10.769531 10.78125 10.921875 10.769531 11.066406 10.722656 C 11.144531 10.699219 11.207031 10.617188 11.269531 10.566406 C 11.476562 10.695312 11.667969 10.816406 11.859375 10.9375 C 11.921875 10.894531 11.980469 10.851562 12.039062 10.808594 C 11.941406 10.601562 11.761719 10.398438 11.765625 10.191406 C 11.765625 9.972656 11.933594 9.753906 12.03125 9.53125 C 11.988281 9.492188 11.949219 9.453125 11.910156 9.414062 C 11.691406 9.515625 11.472656 9.617188 11.332031 9.679688 C 11.027344 9.707031 10.71875 8.929688 10.648438 9.855469 M 10.332031 7.164062 C 10.636719 7.355469 10.753906 7.976562 11.25 7.679688 C 11.617188 7.460938 11.898438 7.085938 12.183594 6.753906 C 12.253906 6.671875 12.199219 6.484375 12.199219 6.347656 C 12.066406 6.382812 11.902344 6.378906 11.804688 6.457031 C 11.550781 6.660156 11.328125 6.898438 11.152344 7.066406 C 10.796875 7.128906 10.550781 6.359375 10.332031 7.164062 Z M 10.332031 7.164062 "/>
<path fill-rule="nonzero" fill="rgb(61.568627%, 64.705882%, 89.803922%)" fill-opacity="1" d="M 13.558594 5.164062 C 9.976562 5.226562 6.40625 5.222656 2.777344 5.226562 C 2.574219 3.339844 2.574219 3.339844 4.410156 3.339844 C 7.183594 3.339844 9.953125 3.359375 12.722656 3.324219 C 13.382812 3.316406 13.683594 3.476562 13.585938 4.171875 C 13.542969 4.476562 13.574219 4.789062 13.558594 5.164062 Z M 13.558594 5.164062 "/>
<path fill-rule="nonzero" fill="rgb(48.235294%, 76.862745%, 100%)" fill-opacity="1" d="M 6.667969 10.535156 C 5.894531 10.535156 5.1875 10.550781 4.480469 10.523438 C 4.328125 10.519531 4.179688 10.371094 4.027344 10.289062 C 4.160156 10.195312 4.289062 10.03125 4.421875 10.027344 C 5.878906 10.007812 7.339844 10.007812 8.796875 10.027344 C 8.925781 10.03125 9.054688 10.203125 9.183594 10.296875 C 9.050781 10.375 8.921875 10.519531 8.789062 10.523438 C 8.101562 10.546875 7.417969 10.535156 6.667969 10.535156 Z M 6.667969 10.535156 "/>
<path fill-rule="nonzero" fill="rgb(43.921569%, 74.901961%, 100%)" fill-opacity="1" d="M 6.667969 7.472656 C 5.738281 7.472656 4.878906 7.472656 4.019531 7.46875 C 4.417969 6.980469 8.585938 6.9375 9.1875 7.390625 C 8.792969 7.417969 8.394531 7.457031 8 7.472656 C 7.578125 7.484375 7.15625 7.472656 6.667969 7.472656 Z M 6.667969 7.472656 "/>
<path fill-rule="nonzero" fill="rgb(94.901961%, 43.921569%, 40.784314%)" fill-opacity="1" d="M 10.617188 9.816406 C 10.71875 8.929688 11.027344 9.707031 11.332031 9.679688 C 11.472656 9.617188 11.691406 9.515625 11.910156 9.414062 C 11.949219 9.453125 11.988281 9.492188 12.03125 9.53125 C 11.933594 9.753906 11.765625 9.972656 11.765625 10.191406 C 11.761719 10.398438 11.941406 10.601562 12.039062 10.808594 C 11.980469 10.851562 11.921875 10.894531 11.859375 10.9375 C 11.667969 10.816406 11.476562 10.695312 11.269531 10.566406 C 11.207031 10.617188 11.144531 10.699219 11.066406 10.722656 C 10.921875 10.769531 10.769531 10.78125 10.617188 10.808594 C 10.644531 10.675781 10.691406 10.539062 10.695312 10.40625 C 10.695312 10.222656 10.664062 10.039062 10.617188 9.816406 Z M 10.617188 9.816406 "/>
<path fill-rule="nonzero" fill="rgb(49.803922%, 65.882353%, 38.431373%)" fill-opacity="1" d="M 10.3125 7.121094 C 10.550781 6.359375 10.796875 7.128906 11.152344 7.066406 C 11.328125 6.898438 11.550781 6.660156 11.804688 6.457031 C 11.902344 6.378906 12.066406 6.382812 12.199219 6.347656 C 12.199219 6.484375 12.253906 6.671875 12.183594 6.753906 C 11.898438 7.085938 11.617188 7.460938 11.25 7.679688 C 10.753906 7.976562 10.636719 7.355469 10.3125 7.121094 Z M 10.3125 7.121094 "/>
</svg>
