<?xml version="1.0" encoding="UTF-8"?>
<svg xmlns="http://www.w3.org/2000/svg" xmlns:xlink="http://www.w3.org/1999/xlink" width="16" height="16" viewBox="0 0 16 16">
<path fill-rule="nonzero" fill="rgb(100%, 0%, 0%)" fill-opacity="1" d="M 0.0078125 8.542969 C 0.0078125 8.105469 0.0078125 7.664062 0.0117188 7.21875 C 0.0195312 7.191406 0.0234375 7.171875 0.0234375 7.152344 C 0.0234375 7.035156 0.0234375 6.921875 0.0273438 6.804688 C 0.03125 6.667969 0.0351562 6.527344 0.0390625 6.386719 C 0.0429688 6.242188 0.046875 6.101562 0.0507812 5.960938 C 0.0585938 5.800781 0.0664062 5.644531 0.0742188 5.484375 C 0.0820312 5.316406 0.0898438 5.148438 0.0976562 4.976562 C 0.113281 4.753906 0.125 4.527344 0.140625 4.304688 C 0.15625 4.089844 0.171875 3.875 0.195312 3.65625 C 0.226562 3.332031 0.265625 3.003906 0.316406 2.683594 C 0.359375 2.414062 0.421875 2.152344 0.515625 1.90625 C 0.636719 1.582031 0.792969 1.304688 0.988281 1.070312 C 1.257812 0.742188 1.570312 0.535156 1.917969 0.4375 C 2.164062 0.367188 2.410156 0.324219 2.660156 0.289062 C 2.824219 0.265625 2.988281 0.246094 3.152344 0.226562 C 3.265625 0.214844 3.378906 0.203125 3.496094 0.191406 C 3.558594 0.1875 3.625 0.183594 3.691406 0.175781 C 3.804688 0.164062 3.917969 0.15625 4.035156 0.144531 C 4.105469 0.140625 4.175781 0.136719 4.25 0.132812 C 4.277344 0.128906 4.308594 0.128906 4.335938 0.128906 C 4.429688 0.121094 4.523438 0.113281 4.613281 0.109375 C 4.695312 0.105469 4.777344 0.101562 4.859375 0.0976562 C 4.996094 0.0898438 5.128906 0.0820312 5.265625 0.0742188 C 5.355469 0.0703125 5.445312 0.0664062 5.535156 0.0625 C 5.644531 0.0585938 5.753906 0.0507812 5.863281 0.0507812 C 6.046875 0.046875 6.230469 0.0429688 6.414062 0.0390625 C 6.488281 0.0351562 6.566406 0.0351562 6.644531 0.0351562 C 6.65625 0.0351562 6.667969 0.03125 6.679688 0.0273438 C 6.679688 0.0273438 6.683594 0.0195312 6.683594 0.0117188 C 7.570312 0.0117188 8.457031 0.0117188 9.34375 0.015625 C 9.355469 0.0234375 9.367188 0.03125 9.378906 0.0351562 C 9.535156 0.0390625 9.691406 0.0429688 9.851562 0.046875 C 9.972656 0.0507812 10.097656 0.0546875 10.222656 0.0585938 C 10.332031 0.0625 10.4375 0.0664062 10.542969 0.0703125 C 10.636719 0.0742188 10.730469 0.078125 10.824219 0.0820312 C 10.984375 0.0898438 11.144531 0.0976562 11.308594 0.105469 C 11.441406 0.113281 11.574219 0.121094 11.707031 0.128906 C 11.820312 0.136719 11.9375 0.144531 12.050781 0.152344 C 12.148438 0.160156 12.246094 0.167969 12.34375 0.175781 C 12.472656 0.1875 12.601562 0.199219 12.730469 0.210938 C 12.871094 0.226562 13.007812 0.242188 13.148438 0.261719 C 13.285156 0.277344 13.421875 0.296875 13.5625 0.320312 C 13.734375 0.347656 13.90625 0.382812 14.078125 0.429688 C 14.292969 0.484375 14.496094 0.582031 14.6875 0.726562 C 14.894531 0.886719 15.078125 1.089844 15.234375 1.335938 C 15.457031 1.691406 15.609375 2.101562 15.691406 2.566406 C 15.734375 2.8125 15.769531 3.058594 15.796875 3.308594 C 15.820312 3.511719 15.839844 3.710938 15.855469 3.914062 C 15.871094 4.074219 15.882812 4.230469 15.894531 4.390625 C 15.90625 4.589844 15.917969 4.792969 15.933594 4.992188 C 15.9375 5.074219 15.9375 5.160156 15.945312 5.242188 C 15.949219 5.382812 15.957031 5.523438 15.964844 5.667969 C 15.96875 5.757812 15.972656 5.851562 15.976562 5.945312 C 15.980469 6.109375 15.984375 6.273438 15.988281 6.4375 C 15.992188 6.492188 15.992188 6.546875 15.992188 6.601562 C 15.992188 6.613281 15.988281 6.640625 16.007812 6.628906 C 16.007812 7.550781 16.007812 8.46875 16.003906 9.394531 C 16 9.414062 15.992188 9.429688 15.992188 9.445312 C 15.988281 9.628906 15.984375 9.8125 15.976562 9.996094 C 15.96875 10.207031 15.960938 10.417969 15.953125 10.628906 C 15.941406 10.8125 15.933594 10.992188 15.925781 11.175781 C 15.914062 11.371094 15.898438 11.566406 15.882812 11.761719 C 15.871094 11.953125 15.859375 12.140625 15.839844 12.328125 C 15.808594 12.660156 15.769531 12.992188 15.714844 13.320312 C 15.675781 13.566406 15.625 13.804688 15.546875 14.03125 C 15.433594 14.363281 15.277344 14.652344 15.085938 14.898438 C 14.878906 15.164062 14.648438 15.359375 14.382812 15.484375 C 14.195312 15.574219 14 15.621094 13.804688 15.660156 C 13.707031 15.679688 13.613281 15.695312 13.515625 15.710938 C 13.394531 15.730469 13.273438 15.75 13.148438 15.765625 C 13.066406 15.777344 12.980469 15.785156 12.898438 15.792969 C 12.769531 15.808594 12.640625 15.824219 12.511719 15.835938 C 12.425781 15.847656 12.339844 15.855469 12.25 15.859375 C 12.144531 15.871094 12.039062 15.878906 11.933594 15.886719 C 11.816406 15.894531 11.699219 15.902344 11.578125 15.910156 C 11.441406 15.917969 11.300781 15.925781 11.160156 15.933594 C 11.078125 15.9375 10.996094 15.941406 10.914062 15.945312 C 10.828125 15.949219 10.742188 15.953125 10.660156 15.957031 C 10.558594 15.960938 10.457031 15.964844 10.359375 15.96875 C 10.246094 15.972656 10.128906 15.976562 10.015625 15.980469 C 9.820312 15.984375 9.625 15.988281 9.433594 15.992188 C 9.328125 15.992188 9.226562 15.996094 9.125 15.996094 C 9.113281 15.996094 9.101562 16 9.089844 16.003906 C 9.089844 16.003906 9.089844 16.011719 9.089844 16.019531 C 8.375 16.019531 7.65625 16.019531 6.941406 16.011719 C 6.925781 16.003906 6.910156 15.996094 6.894531 15.996094 C 6.722656 15.992188 6.550781 15.988281 6.378906 15.984375 C 6.238281 15.980469 6.097656 15.976562 5.957031 15.972656 C 5.847656 15.96875 5.738281 15.964844 5.628906 15.960938 C 5.523438 15.957031 5.421875 15.953125 5.320312 15.949219 C 5.234375 15.945312 5.144531 15.941406 5.058594 15.9375 C 4.980469 15.933594 4.898438 15.929688 4.820312 15.925781 C 4.753906 15.921875 4.683594 15.917969 4.613281 15.914062 C 4.484375 15.90625 4.355469 15.898438 4.222656 15.890625 C 4.117188 15.882812 4.007812 15.875 3.902344 15.863281 C 3.804688 15.859375 3.707031 15.851562 3.609375 15.839844 C 3.484375 15.828125 3.359375 15.820312 3.234375 15.804688 C 3.101562 15.789062 2.964844 15.777344 2.832031 15.757812 C 2.671875 15.734375 2.511719 15.714844 2.355469 15.683594 C 2.210938 15.65625 2.066406 15.625 1.925781 15.585938 C 1.742188 15.539062 1.570312 15.460938 1.40625 15.34375 C 1.167969 15.179688 0.964844 14.957031 0.789062 14.675781 C 0.632812 14.429688 0.515625 14.15625 0.425781 13.851562 C 0.355469 13.597656 0.3125 13.332031 0.273438 13.0625 C 0.222656 12.707031 0.1875 12.347656 0.160156 11.984375 C 0.136719 11.707031 0.121094 11.425781 0.101562 11.148438 C 0.0898438 10.988281 0.0859375 10.824219 0.078125 10.664062 C 0.0664062 10.460938 0.0585938 10.257812 0.0507812 10.054688 C 0.046875 9.878906 0.0390625 9.707031 0.0351562 9.53125 C 0.03125 9.382812 0.03125 9.230469 0.0273438 9.082031 C 0.0273438 9.058594 0.0234375 9.039062 0.0195312 9.015625 C 0.015625 9.019531 0.0117188 9.019531 0.0078125 9.019531 C 0.0078125 8.957031 0.0078125 8.894531 0.0117188 8.828125 C 0.015625 8.824219 0.0195312 8.820312 0.0195312 8.816406 C 0.0195312 8.734375 0.0195312 8.648438 0.0195312 8.5625 C 0.0195312 8.558594 0.0117188 8.550781 0.0078125 8.542969 M 9.339844 6.996094 C 9.191406 6.875 9.046875 6.753906 8.898438 6.632812 C 8.085938 5.960938 7.273438 5.292969 6.460938 4.621094 C 6.445312 4.609375 6.433594 4.601562 6.414062 4.585938 C 6.414062 4.617188 6.414062 4.640625 6.414062 4.660156 C 6.414062 6.914062 6.414062 9.164062 6.414062 11.417969 C 6.414062 11.421875 6.417969 11.421875 6.417969 11.421875 C 6.417969 11.425781 6.421875 11.425781 6.425781 11.425781 C 7.804688 10.289062 9.183594 9.152344 10.570312 8.011719 C 10.15625 7.667969 9.75 7.335938 9.339844 6.996094 Z M 9.339844 6.996094 "/>
<path fill-rule="nonzero" fill="rgb(0.392157%, 0%, 0%)" fill-opacity="1" d="M 0.0078125 9.027344 C 0.0117188 9.019531 0.015625 9.019531 0.0195312 9.015625 C 0.0234375 9.039062 0.0273438 9.058594 0.0273438 9.082031 C 0.03125 9.230469 0.03125 9.382812 0.0351562 9.53125 C 0.0390625 9.707031 0.046875 9.878906 0.0507812 10.054688 C 0.0585938 10.257812 0.0664062 10.460938 0.078125 10.664062 C 0.0859375 10.824219 0.0898438 10.988281 0.101562 11.148438 C 0.121094 11.425781 0.136719 11.707031 0.160156 11.984375 C 0.1875 12.347656 0.222656 12.707031 0.273438 13.0625 C 0.3125 13.332031 0.355469 13.597656 0.425781 13.851562 C 0.515625 14.15625 0.632812 14.429688 0.789062 14.675781 C 0.964844 14.957031 1.167969 15.179688 1.40625 15.34375 C 1.570312 15.460938 1.742188 15.539062 1.925781 15.585938 C 2.066406 15.625 2.210938 15.65625 2.355469 15.683594 C 2.511719 15.714844 2.671875 15.734375 2.832031 15.757812 C 2.964844 15.777344 3.101562 15.789062 3.234375 15.804688 C 3.359375 15.820312 3.484375 15.828125 3.609375 15.839844 C 3.707031 15.851562 3.804688 15.859375 3.902344 15.863281 C 4.007812 15.875 4.117188 15.882812 4.222656 15.890625 C 4.355469 15.898438 4.484375 15.90625 4.613281 15.914062 C 4.683594 15.917969 4.753906 15.921875 4.820312 15.925781 C 4.898438 15.929688 4.980469 15.933594 5.058594 15.9375 C 5.144531 15.941406 5.234375 15.945312 5.320312 15.949219 C 5.421875 15.953125 5.523438 15.957031 5.628906 15.960938 C 5.738281 15.964844 5.847656 15.96875 5.957031 15.972656 C 6.097656 15.976562 6.238281 15.980469 6.378906 15.984375 C 6.550781 15.988281 6.722656 15.992188 6.894531 15.996094 C 6.910156 15.996094 6.925781 16.003906 6.9375 16.011719 C 4.625 16.019531 2.316406 16.019531 0.0078125 16.019531 C 0.0078125 13.6875 0.0078125 11.359375 0.0078125 9.027344 Z M 0.0078125 9.027344 "/>
<path fill-rule="nonzero" fill="rgb(0.392157%, 0%, 0%)" fill-opacity="1" d="M 6.679688 0.0117188 C 6.683594 0.0195312 6.679688 0.0273438 6.679688 0.0273438 C 6.667969 0.03125 6.65625 0.0351562 6.644531 0.0351562 C 6.566406 0.0351562 6.488281 0.0351562 6.414062 0.0390625 C 6.230469 0.0429688 6.046875 0.046875 5.863281 0.0507812 C 5.753906 0.0507812 5.644531 0.0585938 5.535156 0.0625 C 5.445312 0.0664062 5.355469 0.0703125 5.265625 0.0742188 C 5.128906 0.0820312 4.996094 0.0898438 4.859375 0.0976562 C 4.777344 0.101562 4.695312 0.105469 4.613281 0.109375 C 4.523438 0.113281 4.429688 0.121094 4.335938 0.128906 C 4.308594 0.128906 4.277344 0.128906 4.25 0.132812 C 4.175781 0.136719 4.105469 0.140625 4.035156 0.144531 C 3.917969 0.15625 3.804688 0.164062 3.691406 0.175781 C 3.625 0.183594 3.558594 0.1875 3.496094 0.191406 C 3.378906 0.203125 3.265625 0.214844 3.152344 0.226562 C 2.988281 0.246094 2.824219 0.265625 2.660156 0.289062 C 2.410156 0.324219 2.164062 0.367188 1.917969 0.4375 C 1.570312 0.535156 1.257812 0.742188 0.988281 1.070312 C 0.792969 1.304688 0.636719 1.582031 0.515625 1.90625 C 0.421875 2.152344 0.359375 2.414062 0.316406 2.683594 C 0.265625 3.003906 0.226562 3.332031 0.195312 3.65625 C 0.171875 3.875 0.15625 4.089844 0.140625 4.304688 C 0.125 4.527344 0.113281 4.753906 0.0976562 4.976562 C 0.0898438 5.148438 0.0820312 5.316406 0.0742188 5.484375 C 0.0664062 5.644531 0.0585938 5.800781 0.0507812 5.960938 C 0.046875 6.101562 0.0429688 6.242188 0.0390625 6.386719 C 0.0351562 6.527344 0.03125 6.667969 0.0273438 6.804688 C 0.0234375 6.921875 0.0234375 7.035156 0.0234375 7.152344 C 0.0234375 7.171875 0.0195312 7.191406 0.0117188 7.210938 C 0.0078125 4.8125 0.0078125 2.414062 0.0078125 0.0117188 C 2.230469 0.0117188 4.453125 0.0117188 6.679688 0.0117188 Z M 6.679688 0.0117188 "/>
<path fill-rule="nonzero" fill="rgb(0.392157%, 0%, 0%)" fill-opacity="1" d="M 9.09375 16.019531 C 9.089844 16.011719 9.089844 16.003906 9.089844 16.003906 C 9.101562 16 9.113281 15.996094 9.125 15.996094 C 9.226562 15.996094 9.328125 15.992188 9.433594 15.992188 C 9.625 15.988281 9.820312 15.984375 10.015625 15.980469 C 10.128906 15.976562 10.246094 15.972656 10.359375 15.96875 C 10.457031 15.964844 10.558594 15.960938 10.660156 15.957031 C 10.742188 15.953125 10.828125 15.949219 10.914062 15.945312 C 10.996094 15.941406 11.078125 15.9375 11.160156 15.933594 C 11.300781 15.925781 11.441406 15.917969 11.578125 15.910156 C 11.699219 15.902344 11.816406 15.894531 11.933594 15.886719 C 12.039062 15.878906 12.144531 15.871094 12.25 15.859375 C 12.339844 15.855469 12.425781 15.847656 12.511719 15.835938 C 12.640625 15.824219 12.769531 15.808594 12.898438 15.792969 C 12.980469 15.785156 13.066406 15.777344 13.148438 15.765625 C 13.273438 15.75 13.394531 15.730469 13.515625 15.710938 C 13.613281 15.695312 13.707031 15.679688 13.804688 15.660156 C 14 15.621094 14.195312 15.574219 14.382812 15.484375 C 14.648438 15.359375 14.878906 15.164062 15.085938 14.898438 C 15.277344 14.652344 15.433594 14.363281 15.546875 14.03125 C 15.625 13.804688 15.675781 13.566406 15.714844 13.320312 C 15.769531 12.992188 15.808594 12.660156 15.839844 12.328125 C 15.859375 12.140625 15.871094 11.953125 15.882812 11.761719 C 15.898438 11.566406 15.914062 11.371094 15.925781 11.175781 C 15.933594 10.992188 15.941406 10.8125 15.953125 10.628906 C 15.960938 10.417969 15.96875 10.207031 15.976562 9.996094 C 15.984375 9.8125 15.988281 9.628906 15.992188 9.445312 C 15.992188 9.429688 16 9.414062 16.003906 9.398438 C 16.007812 11.605469 16.007812 13.8125 16.007812 16.019531 C 13.707031 16.019531 11.402344 16.019531 9.09375 16.019531 Z M 9.09375 16.019531 "/>
<path fill-rule="nonzero" fill="rgb(0.392157%, 0%, 0%)" fill-opacity="1" d="M 16.007812 6.621094 C 15.988281 6.640625 15.992188 6.613281 15.992188 6.601562 C 15.992188 6.546875 15.992188 6.492188 15.988281 6.4375 C 15.984375 6.273438 15.980469 6.109375 15.976562 5.945312 C 15.972656 5.851562 15.96875 5.757812 15.964844 5.667969 C 15.957031 5.523438 15.949219 5.382812 15.945312 5.242188 C 15.9375 5.160156 15.9375 5.074219 15.933594 4.992188 C 15.917969 4.792969 15.90625 4.589844 15.894531 4.390625 C 15.882812 4.230469 15.871094 4.074219 15.855469 3.914062 C 15.839844 3.710938 15.820312 3.511719 15.796875 3.308594 C 15.769531 3.058594 15.734375 2.8125 15.691406 2.566406 C 15.609375 2.101562 15.457031 1.691406 15.234375 1.335938 C 15.078125 1.089844 14.894531 0.886719 14.6875 0.726562 C 14.496094 0.582031 14.292969 0.484375 14.078125 0.429688 C 13.90625 0.382812 13.734375 0.347656 13.5625 0.320312 C 13.421875 0.296875 13.285156 0.277344 13.148438 0.261719 C 13.007812 0.242188 12.871094 0.226562 12.730469 0.210938 C 12.601562 0.199219 12.472656 0.1875 12.34375 0.175781 C 12.246094 0.167969 12.148438 0.160156 12.050781 0.152344 C 11.9375 0.144531 11.820312 0.136719 11.707031 0.128906 C 11.574219 0.121094 11.441406 0.113281 11.308594 0.105469 C 11.144531 0.0976562 10.984375 0.0898438 10.824219 0.0820312 C 10.730469 0.078125 10.636719 0.0742188 10.542969 0.0703125 C 10.4375 0.0664062 10.332031 0.0625 10.222656 0.0585938 C 10.097656 0.0546875 9.972656 0.0507812 9.851562 0.046875 C 9.691406 0.0429688 9.535156 0.0390625 9.378906 0.0351562 C 9.367188 0.03125 9.355469 0.0234375 9.347656 0.015625 C 11.570312 0.0117188 13.789062 0.0117188 16.007812 0.0117188 C 16.007812 2.214844 16.007812 4.414062 16.007812 6.621094 Z M 16.007812 6.621094 "/>
<path fill-rule="nonzero" fill="rgb(30.588235%, 0%, 0%)" fill-opacity="1" d="M 0.0078125 8.550781 C 0.0117188 8.550781 0.0195312 8.558594 0.0195312 8.5625 C 0.0195312 8.648438 0.0195312 8.734375 0.0195312 8.816406 C 0.0195312 8.820312 0.015625 8.824219 0.0117188 8.820312 C 0.0078125 8.730469 0.0078125 8.644531 0.0078125 8.550781 Z M 0.0078125 8.550781 "/>
<path fill-rule="nonzero" fill="rgb(100%, 100%, 100%)" fill-opacity="1" d="M 9.34375 6.996094 C 9.75 7.335938 10.15625 7.667969 10.570312 8.011719 C 9.183594 9.152344 7.804688 10.289062 6.425781 11.425781 C 6.421875 11.425781 6.417969 11.425781 6.417969 11.421875 C 6.417969 11.421875 6.414062 11.421875 6.414062 11.417969 C 6.414062 9.164062 6.414062 6.914062 6.414062 4.660156 C 6.414062 4.640625 6.414062 4.617188 6.414062 4.585938 C 6.433594 4.601562 6.445312 4.609375 6.460938 4.621094 C 7.273438 5.292969 8.085938 5.960938 8.898438 6.632812 C 9.046875 6.753906 9.191406 6.875 9.34375 6.996094 Z M 9.34375 6.996094 "/>
</svg>
