<?xml version="1.0" encoding="UTF-8"?>
<svg xmlns="http://www.w3.org/2000/svg" xmlns:xlink="http://www.w3.org/1999/xlink" width="18" height="18" viewBox="0 0 18 18">
<path fill-rule="nonzero" fill="rgb(82.745098%, 31.372549%, 67.058824%)" fill-opacity="1" d="M 3.21875 3.78125 L 4.21875 3.78125 L 5.007812 3.792969 L 6.152344 3.8125 L 8.953125 3.835938 L 13.285156 3.835938 L 14.109375 3.824219 L 14.445312 3.8125 L 14.761719 3.8125 L 15.0625 3.859375 L 15.300781 3.925781 L 15.503906 4.015625 L 15.671875 4.117188 L 15.785156 4.207031 L 15.894531 4.308594 L 15.996094 4.433594 L 16.066406 4.523438 L 16.15625 4.679688 L 16.246094 4.925781 L 16.300781 5.1875 L 16.335938 5.589844 L 16.359375 6.140625 L 16.414062 7.683594 L 16.558594 11.496094 L 16.59375 12.421875 L 16.59375 13.363281 L 16.546875 13.734375 L 16.492188 13.972656 L 16.414062 14.1875 L 16.3125 14.398438 L 16.222656 14.546875 L 16.109375 14.703125 L 15.964844 14.859375 L 15.785156 14.996094 L 15.605469 15.085938 L 15.457031 15.140625 L 15.242188 15.1875 L 14.917969 15.210938 L 14.109375 15.234375 L 11.09375 15.300781 L 9.539062 15.332031 L 8.71875 15.355469 L 6.378906 15.402344 L 4.703125 15.445312 L 3.769531 15.445312 L 3.375 15.414062 L 3.09375 15.367188 L 2.757812 15.277344 L 2.484375 15.175781 L 2.304688 15.085938 L 2.148438 14.996094 L 1.992188 14.882812 L 1.855469 14.761719 L 1.699219 14.601562 L 1.597656 14.457031 L 1.507812 14.296875 L 1.441406 14.140625 L 1.40625 13.90625 L 1.351562 13.164062 L 1.292969 12.410156 L 1.261719 11.722656 L 1.238281 11.023438 L 1.238281 9.730469 L 1.269531 8.730469 L 1.328125 7.605469 L 1.382812 6.625 L 1.441406 5.804688 L 1.472656 5.480469 L 1.53125 5.1875 L 1.585938 5.007812 L 1.652344 4.828125 L 1.734375 4.679688 L 1.867188 4.488281 L 2.023438 4.320312 L 2.214844 4.171875 L 2.339844 4.09375 L 2.597656 3.960938 L 2.867188 3.847656 L 3.027344 3.800781 Z M 4.09375 4.511719 L 3.902344 4.546875 L 3.734375 4.601562 L 3.542969 4.691406 L 3.386719 4.816406 L 3.296875 4.917969 L 3.238281 5.027344 L 3.230469 5.085938 L 3.261719 5.164062 L 3.339844 5.253906 L 3.421875 5.332031 L 3.554688 5.433594 L 3.703125 5.523438 L 3.824219 5.578125 L 3.992188 5.625 L 4.050781 5.636719 L 4.242188 5.636719 L 4.476562 5.570312 L 4.613281 5.511719 L 4.792969 5.410156 L 4.984375 5.265625 L 5.0625 5.1875 L 5.097656 5.117188 L 5.085938 5.027344 L 5.007812 4.847656 L 4.917969 4.734375 L 4.769531 4.636719 L 4.625 4.566406 L 4.453125 4.523438 L 4.375 4.511719 Z M 7.324219 4.511719 L 7.167969 4.554688 L 6.984375 4.644531 L 6.875 4.734375 L 6.785156 4.835938 L 6.695312 4.996094 L 6.683594 5.097656 L 6.761719 5.1875 L 6.894531 5.289062 L 7.019531 5.390625 L 7.175781 5.5 L 7.335938 5.578125 L 7.503906 5.636719 L 7.730469 5.660156 L 7.910156 5.625 L 8.132812 5.535156 L 8.300781 5.421875 L 8.414062 5.332031 L 8.484375 5.230469 L 8.492188 5.164062 L 8.460938 5.027344 L 8.359375 4.835938 L 8.246094 4.714844 L 8.132812 4.636719 L 8 4.566406 L 7.785156 4.523438 L 7.671875 4.511719 Z M 10.640625 4.523438 L 10.382812 4.566406 L 10.203125 4.644531 L 10.070312 4.734375 L 9.988281 4.816406 L 9.878906 4.972656 L 9.84375 5.0625 L 9.832031 5.117188 L 9.832031 5.207031 L 9.867188 5.308594 L 9.980469 5.457031 L 10.101562 5.578125 L 10.25 5.679688 L 10.371094 5.738281 L 10.550781 5.78125 L 10.753906 5.78125 L 11.035156 5.703125 L 11.195312 5.636719 L 11.40625 5.511719 L 11.65625 5.355469 L 11.710938 5.289062 L 11.722656 5.207031 L 11.675781 5.039062 L 11.597656 4.882812 L 11.476562 4.746094 L 11.375 4.65625 L 11.25 4.589844 L 11.125 4.546875 L 11.023438 4.523438 Z M 13.828125 4.625 L 13.578125 4.65625 L 13.433594 4.703125 L 13.308594 4.769531 L 13.183594 4.871094 L 13.105469 4.960938 L 13.027344 5.128906 L 13.027344 5.230469 L 13.0625 5.320312 L 13.164062 5.46875 L 13.242188 5.546875 L 13.386719 5.648438 L 13.535156 5.703125 L 13.636719 5.726562 L 13.734375 5.738281 L 13.925781 5.738281 L 14.117188 5.703125 L 14.277344 5.648438 L 14.445312 5.558594 L 14.625 5.421875 L 14.703125 5.34375 L 14.761719 5.253906 L 14.769531 5.207031 L 14.769531 5.109375 L 14.726562 4.972656 L 14.660156 4.859375 L 14.546875 4.746094 L 14.457031 4.691406 L 14.296875 4.636719 L 14.242188 4.625 Z M 13.636719 12.972656 L 13.445312 13.003906 L 13.265625 13.082031 L 13.152344 13.152344 L 12.960938 13.332031 L 12.890625 13.453125 L 12.882812 13.476562 L 12.882812 13.566406 L 12.984375 13.679688 L 13.09375 13.78125 L 13.207031 13.859375 L 13.386719 13.9375 L 13.511719 13.960938 L 13.667969 13.960938 L 13.871094 13.925781 L 14.085938 13.847656 L 14.207031 13.78125 L 14.34375 13.679688 L 14.421875 13.589844 L 14.457031 13.488281 L 14.433594 13.386719 L 14.367188 13.273438 L 14.320312 13.21875 L 14.1875 13.117188 L 13.996094 13.027344 L 13.816406 12.984375 Z M 10.25 13.09375 L 10.023438 13.128906 L 9.84375 13.183594 L 9.707031 13.242188 L 9.539062 13.332031 L 9.394531 13.464844 L 9.328125 13.566406 L 9.316406 13.601562 L 9.316406 13.679688 L 9.382812 13.78125 L 9.539062 13.9375 L 9.609375 14.015625 L 9.789062 14.140625 L 9.933594 14.199219 L 10.089844 14.230469 L 10.359375 14.230469 L 10.574219 14.1875 L 10.753906 14.117188 L 10.921875 14.027344 L 11.070312 13.917969 L 11.136719 13.859375 L 11.183594 13.792969 L 11.183594 13.65625 L 11.113281 13.476562 L 11.015625 13.332031 L 10.902344 13.230469 L 10.765625 13.152344 L 10.621094 13.105469 L 10.5625 13.09375 Z M 3.273438 13.152344 L 3.09375 13.207031 L 2.914062 13.296875 L 2.757812 13.433594 L 2.6875 13.535156 L 2.667969 13.589844 L 2.667969 13.65625 L 2.734375 13.78125 L 2.835938 13.894531 L 2.914062 13.984375 L 3.039062 14.097656 L 3.160156 14.175781 L 3.308594 14.21875 L 3.464844 14.230469 L 3.644531 14.199219 L 3.78125 14.140625 L 3.949219 14.039062 L 4.0625 13.949219 L 4.105469 13.882812 L 4.128906 13.816406 L 4.117188 13.703125 L 4.039062 13.523438 L 3.949219 13.398438 L 3.859375 13.308594 L 3.734375 13.230469 L 3.601562 13.171875 L 3.488281 13.152344 Z M 6.300781 13.265625 L 6.074219 13.296875 L 5.839844 13.375 L 5.660156 13.464844 L 5.535156 13.546875 L 5.457031 13.625 L 5.421875 13.726562 L 5.46875 13.792969 L 5.546875 13.871094 L 5.625 13.960938 L 5.75 14.097656 L 5.859375 14.1875 L 6.042969 14.289062 L 6.242188 14.34375 L 6.445312 14.34375 L 6.648438 14.296875 L 6.917969 14.175781 L 7.132812 14.039062 L 7.265625 13.9375 L 7.335938 13.871094 L 7.335938 13.804688 L 7.265625 13.691406 L 7.144531 13.554688 L 7.066406 13.488281 L 6.90625 13.398438 L 6.726562 13.332031 L 6.503906 13.273438 Z M 6.300781 13.265625 "/>
<path fill-rule="nonzero" fill="rgb(99.607843%, 99.607843%, 99.607843%)" fill-opacity="1" d="M 8.054688 6.90625 L 8.167969 6.917969 L 8.347656 7.007812 L 8.492188 7.109375 L 8.695312 7.257812 L 8.886719 7.390625 L 9.089844 7.539062 L 9.246094 7.648438 L 9.371094 7.738281 L 9.6875 7.964844 L 9.832031 8.078125 L 10.035156 8.222656 L 10.214844 8.347656 L 10.292969 8.414062 L 10.40625 8.492188 L 10.585938 8.628906 L 10.742188 8.742188 L 10.855469 8.820312 L 11.003906 8.933594 L 11.316406 9.167969 L 11.441406 9.257812 L 11.566406 9.371094 L 11.644531 9.425781 L 11.800781 9.609375 L 11.867188 9.742188 L 11.867188 9.867188 L 11.835938 9.96875 L 11.65625 10.148438 L 11.554688 10.226562 L 11.417969 10.328125 L 11.273438 10.429688 L 11.035156 10.5625 L 10.652344 10.765625 L 10.472656 10.855469 L 10.304688 10.945312 L 10.089844 11.046875 L 9.832031 11.195312 L 9.675781 11.285156 L 9.484375 11.394531 L 9.335938 11.476562 L 9.167969 11.578125 L 8.933594 11.722656 L 8.664062 11.902344 L 8.414062 12.058594 L 8.191406 12.195312 L 8.066406 12.238281 L 7.910156 12.238281 L 7.796875 12.195312 L 7.671875 12.105469 L 7.617188 12.039062 L 7.582031 11.9375 L 7.582031 11.699219 L 7.648438 10.84375 L 7.695312 10.011719 L 7.71875 9.347656 L 7.71875 7.144531 L 7.75 7.085938 L 7.851562 7.007812 Z M 8.054688 6.90625 "/>
<path fill-rule="nonzero" fill="rgb(98.823529%, 56.862745%, 1.176471%)" fill-opacity="1" d="M 0.910156 1.855469 L 0.988281 1.855469 L 1.136719 1.933594 L 1.25 2.023438 L 1.359375 2.125 L 1.453125 2.203125 L 1.824219 2.554688 L 1.980469 2.710938 L 2.058594 2.800781 L 2.183594 2.9375 L 2.304688 3.09375 L 2.386719 3.25 L 2.394531 3.296875 L 2.394531 3.375 L 2.328125 3.5 L 2.238281 3.601562 L 2.105469 3.679688 L 2.082031 3.703125 L 2.023438 3.691406 L 1.855469 3.601562 L 1.734375 3.5 L 1.496094 3.261719 L 1.417969 3.171875 L 0.820312 2.578125 L 0.742188 2.484375 L 0.628906 2.339844 L 0.574219 2.226562 L 0.585938 2.171875 L 0.675781 2.046875 L 0.753906 1.957031 L 0.878906 1.867188 Z M 0.910156 1.855469 "/>
<path fill-rule="nonzero" fill="rgb(98.823529%, 56.862745%, 1.176471%)" fill-opacity="1" d="M 5.050781 1.621094 L 5.207031 1.621094 L 5.332031 1.664062 L 5.433594 1.742188 L 5.511719 1.832031 L 5.535156 1.890625 L 5.535156 1.992188 L 5.457031 2.148438 L 5.332031 2.316406 L 5.21875 2.464844 L 5.0625 2.65625 L 4.960938 2.777344 L 4.566406 3.171875 L 4.363281 3.320312 L 4.273438 3.375 L 4.207031 3.398438 L 4.0625 3.410156 L 3.949219 3.351562 L 3.871094 3.261719 L 3.78125 3.105469 L 3.78125 2.992188 L 3.824219 2.890625 L 3.925781 2.765625 L 4.09375 2.597656 L 4.183594 2.519531 L 4.464844 2.238281 L 4.566406 2.113281 L 4.667969 2.003906 L 4.769531 1.878906 L 4.917969 1.710938 L 4.996094 1.640625 Z M 5.050781 1.621094 "/>
<path fill-rule="nonzero" fill="rgb(55.686275%, 76.862745%, 20%)" fill-opacity="1" d="M 13.769531 1.292969 L 13.859375 1.292969 L 13.960938 1.359375 L 14.039062 1.460938 L 14.308594 2.003906 L 14.480469 2.296875 L 14.671875 2.585938 L 14.804688 2.8125 L 14.859375 2.957031 L 14.859375 3.046875 L 14.792969 3.148438 L 14.738281 3.207031 L 14.625 3.308594 L 14.523438 3.363281 L 14.421875 3.339844 L 14.308594 3.273438 L 14.199219 3.171875 L 14.0625 2.992188 L 13.9375 2.800781 L 13.804688 2.566406 L 13.679688 2.339844 L 13.5 1.933594 L 13.398438 1.710938 L 13.375 1.597656 L 13.445312 1.484375 L 13.554688 1.394531 Z M 13.769531 1.292969 "/>
<path fill-rule="nonzero" fill="rgb(55.686275%, 76.862745%, 20%)" fill-opacity="1" d="M 15.851562 1.292969 L 15.929688 1.292969 L 16.078125 1.351562 L 16.175781 1.417969 L 16.257812 1.507812 L 16.289062 1.597656 L 16.289062 1.675781 L 16.234375 1.902344 L 16.121094 2.226562 L 15.996094 2.53125 L 15.953125 2.644531 L 15.839844 2.789062 L 15.738281 2.859375 L 15.636719 2.867188 L 15.46875 2.8125 L 15.402344 2.765625 L 15.300781 2.65625 L 15.289062 2.621094 L 15.289062 2.441406 L 15.332031 2.261719 L 15.414062 2.023438 L 15.46875 1.890625 L 15.535156 1.6875 L 15.625 1.507812 L 15.703125 1.394531 L 15.804688 1.316406 Z M 15.851562 1.292969 "/>
<path fill-rule="nonzero" fill="rgb(98.823529%, 56.862745%, 1.176471%)" fill-opacity="1" d="M 3.410156 1.507812 L 3.554688 1.53125 L 3.757812 1.609375 L 3.800781 1.664062 L 3.824219 1.742188 L 3.824219 1.890625 L 3.78125 2.136719 L 3.703125 2.453125 L 3.578125 2.8125 L 3.511719 2.925781 L 3.421875 3.003906 L 3.320312 3.039062 L 3.171875 3.027344 L 3.058594 2.96875 L 3.003906 2.925781 L 2.925781 2.8125 L 2.890625 2.734375 L 2.890625 2.621094 L 2.96875 2.316406 L 3.046875 2.070312 L 3.128906 1.800781 L 3.195312 1.640625 L 3.261719 1.5625 L 3.351562 1.519531 Z M 3.410156 1.507812 "/>
<path fill-rule="nonzero" fill="rgb(55.686275%, 76.862745%, 20%)" fill-opacity="1" d="M 16.738281 2.699219 L 16.875 2.699219 L 16.976562 2.734375 L 17.054688 2.800781 L 17.132812 2.914062 L 17.167969 3.003906 L 17.179688 3.09375 L 17.15625 3.195312 L 17.089844 3.285156 L 16.964844 3.363281 L 16.738281 3.464844 L 16.367188 3.644531 L 16.210938 3.722656 L 16.121094 3.746094 L 16.066406 3.734375 L 15.929688 3.609375 L 15.851562 3.5 L 15.816406 3.386719 L 15.816406 3.273438 L 15.863281 3.183594 L 15.964844 3.070312 L 16.121094 2.957031 L 16.277344 2.867188 L 16.539062 2.757812 L 16.671875 2.710938 Z M 16.738281 2.699219 "/>
<path fill-rule="nonzero" fill="rgb(14.901961%, 54.117647%, 81.176471%)" fill-opacity="1" d="M 6.019531 16.097656 L 6.121094 16.109375 L 6.234375 16.167969 L 6.300781 16.222656 L 6.390625 16.347656 L 6.421875 16.414062 L 6.433594 16.515625 L 6.402344 16.605469 L 6.3125 16.71875 L 6.210938 16.828125 L 6.132812 16.921875 L 5.816406 17.234375 L 5.714844 17.28125 L 5.601562 17.300781 L 5.46875 17.269531 L 5.378906 17.203125 L 5.296875 17.101562 L 5.253906 17.011719 L 5.242188 16.910156 L 5.320312 16.75 L 5.421875 16.628906 L 5.5 16.527344 L 5.761719 16.265625 L 5.816406 16.199219 L 5.929688 16.132812 Z M 6.019531 16.097656 "/>
<path fill-rule="nonzero" fill="rgb(14.901961%, 54.117647%, 81.176471%)" fill-opacity="1" d="M 9.753906 16.007812 L 9.867188 16.007812 L 9.988281 16.054688 L 10.089844 16.132812 L 10.214844 16.277344 L 10.316406 16.402344 L 10.40625 16.515625 L 10.519531 16.671875 L 10.585938 16.820312 L 10.609375 16.929688 L 10.574219 17 L 10.472656 17.109375 L 10.382812 17.191406 L 10.316406 17.234375 L 10.28125 17.246094 L 10.191406 17.246094 L 10.058594 17.179688 L 9.910156 17.042969 L 9.808594 16.921875 L 9.699219 16.785156 L 9.5625 16.59375 L 9.449219 16.402344 L 9.4375 16.347656 L 9.472656 16.246094 L 9.597656 16.109375 L 9.675781 16.042969 Z M 9.753906 16.007812 "/>
<path fill-rule="nonzero" fill="rgb(12.54902%, 14.509804%, 13.333333%)" fill-opacity="1" d="M 5.445312 13.792969 L 5.488281 13.804688 L 5.660156 13.984375 L 5.738281 14.074219 L 5.828125 14.152344 L 5.996094 14.253906 L 6.109375 14.296875 L 6.242188 14.332031 L 6.445312 14.332031 L 6.648438 14.289062 L 6.917969 14.164062 L 7.132812 14.027344 L 7.265625 13.925781 L 7.3125 13.882812 L 7.359375 13.90625 L 7.46875 14.015625 L 7.492188 14.074219 L 7.492188 14.140625 L 7.402344 14.253906 L 7.289062 14.355469 L 7.078125 14.488281 L 6.90625 14.570312 L 6.714844 14.625 L 6.558594 14.660156 L 6.46875 14.671875 L 6.222656 14.671875 L 6.03125 14.636719 L 5.804688 14.558594 L 5.625 14.445312 L 5.5 14.34375 L 5.410156 14.265625 L 5.320312 14.140625 L 5.265625 14.027344 L 5.265625 13.949219 L 5.296875 13.882812 L 5.398438 13.816406 Z M 5.445312 13.792969 "/>
<path fill-rule="nonzero" fill="rgb(12.54902%, 14.509804%, 13.333333%)" fill-opacity="1" d="M 9.347656 13.746094 L 9.425781 13.816406 L 9.550781 13.9375 L 9.609375 14.007812 L 9.789062 14.128906 L 9.933594 14.1875 L 10.089844 14.21875 L 10.359375 14.21875 L 10.574219 14.175781 L 10.753906 14.109375 L 10.921875 14.015625 L 11.070312 13.90625 L 11.125 13.859375 L 11.183594 13.78125 L 11.238281 13.835938 L 11.351562 13.984375 L 11.386719 14.050781 L 11.386719 14.109375 L 11.261719 14.21875 L 11.082031 14.332031 L 10.878906 14.445312 L 10.652344 14.523438 L 10.453125 14.570312 L 10.359375 14.578125 L 10.070312 14.578125 L 9.878906 14.546875 L 9.6875 14.480469 L 9.472656 14.367188 L 9.328125 14.242188 L 9.257812 14.152344 L 9.214844 14.0625 L 9.203125 14.027344 L 9.203125 13.90625 L 9.246094 13.835938 Z M 9.347656 13.746094 "/>
<path fill-rule="nonzero" fill="rgb(14.901961%, 54.117647%, 81.176471%)" fill-opacity="1" d="M 7.976562 15.828125 L 8.144531 15.828125 L 8.300781 15.863281 L 8.390625 15.90625 L 8.460938 15.984375 L 8.484375 16.066406 L 8.484375 16.246094 L 8.425781 16.683594 L 8.382812 16.886719 L 8.324219 17 L 8.269531 17.054688 L 8.203125 17.078125 L 8.019531 17.078125 L 7.875 17.03125 L 7.785156 16.964844 L 7.730469 16.875 L 7.707031 16.75 L 7.730469 16.515625 L 7.773438 16.167969 L 7.808594 16.019531 L 7.851562 15.929688 L 7.898438 15.875 Z M 7.976562 15.828125 "/>
<path fill-rule="nonzero" fill="rgb(12.156863%, 14.117647%, 13.333333%)" fill-opacity="1" d="M 14.769531 5.175781 L 14.828125 5.230469 L 14.960938 5.421875 L 14.960938 5.511719 L 14.929688 5.578125 L 14.828125 5.691406 L 14.804688 5.691406 L 14.804688 5.714844 L 14.671875 5.816406 L 14.46875 5.929688 L 14.34375 5.984375 L 14.109375 6.042969 L 14.027344 6.050781 L 13.644531 6.050781 L 13.433594 6.019531 L 13.183594 5.929688 L 13.050781 5.851562 L 12.914062 5.714844 L 12.835938 5.558594 L 12.824219 5.480469 L 12.847656 5.410156 L 12.972656 5.355469 L 13.027344 5.367188 L 13.050781 5.320312 L 13.082031 5.332031 L 13.164062 5.457031 L 13.242188 5.535156 L 13.386719 5.636719 L 13.535156 5.691406 L 13.636719 5.714844 L 13.734375 5.726562 L 13.925781 5.726562 L 14.117188 5.691406 L 14.277344 5.636719 L 14.445312 5.546875 L 14.625 5.410156 L 14.726562 5.296875 Z M 14.769531 5.175781 "/>
<path fill-rule="nonzero" fill="rgb(12.54902%, 14.509804%, 13.333333%)" fill-opacity="1" d="M 8.492188 5.140625 L 8.574219 5.207031 L 8.730469 5.367188 L 8.742188 5.46875 L 8.671875 5.570312 L 8.527344 5.679688 L 8.371094 5.78125 L 8.191406 5.871094 L 8 5.941406 L 7.875 5.960938 L 7.660156 5.972656 L 7.480469 5.960938 L 7.300781 5.917969 L 7.019531 5.804688 L 6.90625 5.738281 L 6.796875 5.648438 L 6.683594 5.546875 L 6.613281 5.421875 L 6.613281 5.289062 L 6.738281 5.1875 L 6.796875 5.199219 L 7.109375 5.445312 L 7.210938 5.511719 L 7.425781 5.601562 L 7.570312 5.636719 L 7.730469 5.648438 L 7.910156 5.613281 L 8.132812 5.523438 L 8.300781 5.410156 L 8.414062 5.320312 L 8.472656 5.230469 Z M 8.492188 5.140625 "/>
<path fill-rule="nonzero" fill="rgb(12.54902%, 14.509804%, 13.333333%)" fill-opacity="1" d="M 9.84375 5.277344 L 9.890625 5.320312 L 9.980469 5.445312 L 10.101562 5.570312 L 10.25 5.671875 L 10.371094 5.726562 L 10.550781 5.769531 L 10.753906 5.769531 L 11.035156 5.691406 L 11.195312 5.625 L 11.40625 5.5 L 11.65625 5.34375 L 11.675781 5.320312 L 11.710938 5.320312 L 11.757812 5.390625 L 11.800781 5.480469 L 11.800781 5.558594 L 11.765625 5.636719 L 11.6875 5.726562 L 11.566406 5.816406 L 11.464844 5.871094 L 11.304688 5.960938 L 11.082031 6.042969 L 10.921875 6.074219 L 10.789062 6.097656 L 10.542969 6.097656 L 10.269531 6.042969 L 10.136719 5.984375 L 9.945312 5.882812 L 9.820312 5.78125 L 9.71875 5.671875 L 9.675781 5.578125 L 9.675781 5.46875 L 9.808594 5.367188 Z M 9.84375 5.277344 "/>
<path fill-rule="nonzero" fill="rgb(12.54902%, 14.509804%, 13.333333%)" fill-opacity="1" d="M 14.457031 13.445312 L 14.511719 13.476562 L 14.601562 13.5 L 14.714844 13.589844 L 14.75 13.636719 L 14.726562 13.734375 L 14.679688 13.804688 L 14.558594 13.9375 L 14.390625 14.074219 L 14.207031 14.175781 L 14.0625 14.230469 L 13.871094 14.277344 L 13.792969 14.277344 L 13.757812 14.296875 L 13.65625 14.308594 L 13.476562 14.308594 L 13.332031 14.289062 L 13.128906 14.21875 L 12.972656 14.117188 L 12.859375 14.015625 L 12.8125 13.960938 L 12.769531 13.835938 L 12.78125 13.714844 L 12.824219 13.644531 L 12.882812 13.601562 L 12.925781 13.613281 L 13.003906 13.691406 L 13.128906 13.792969 L 13.230469 13.859375 L 13.386719 13.925781 L 13.511719 13.949219 L 13.667969 13.949219 L 13.871094 13.917969 L 14.085938 13.835938 L 14.207031 13.769531 L 14.34375 13.667969 L 14.410156 13.589844 L 14.445312 13.488281 Z M 14.457031 13.445312 "/>
<path fill-rule="nonzero" fill="rgb(12.54902%, 14.509804%, 13.333333%)" fill-opacity="1" d="M 5.0625 5.175781 L 5.097656 5.175781 L 5.199219 5.320312 L 5.230469 5.390625 L 5.230469 5.46875 L 5.175781 5.535156 L 4.835938 5.761719 L 4.65625 5.851562 L 4.535156 5.894531 L 4.433594 5.929688 L 4.195312 5.960938 L 4.039062 5.960938 L 3.800781 5.917969 L 3.578125 5.839844 L 3.375 5.726562 L 3.238281 5.613281 L 3.160156 5.5 L 3.140625 5.433594 L 3.140625 5.355469 L 3.171875 5.265625 L 3.285156 5.230469 L 3.339844 5.242188 L 3.421875 5.320312 L 3.554688 5.421875 L 3.703125 5.511719 L 3.824219 5.570312 L 3.992188 5.613281 L 4.050781 5.625 L 4.242188 5.625 L 4.476562 5.558594 L 4.613281 5.5 L 4.792969 5.398438 L 4.984375 5.253906 Z M 5.0625 5.175781 "/>
<path fill-rule="nonzero" fill="rgb(79.607843%, 25.490196%, 63.137255%)" fill-opacity="1" d="M 3.21875 3.78125 L 4.21875 3.78125 L 5.007812 3.792969 L 6.152344 3.8125 L 7.347656 3.824219 L 7.367188 3.835938 L 7.863281 3.847656 L 7.988281 3.859375 L 7.988281 3.890625 L 7.910156 3.890625 L 7.863281 3.902344 L 7.640625 3.902344 L 7.582031 3.890625 L 7.515625 3.902344 L 7.449219 3.890625 L 7.4375 3.902344 L 7.1875 3.902344 L 7.144531 3.914062 L 7.132812 3.9375 L 7.109375 3.925781 L 7.109375 3.902344 L 6.90625 3.902344 L 6.839844 3.914062 L 6.816406 3.902344 L 6.816406 3.925781 L 6.773438 3.902344 L 6.613281 3.902344 L 6.605469 3.925781 L 6.582031 3.925781 L 6.515625 3.902344 L 6.515625 3.925781 L 6.457031 3.9375 L 6.433594 3.914062 L 6.378906 3.914062 L 6.367188 3.9375 L 6.300781 3.925781 L 6.300781 3.902344 L 6.242188 3.9375 L 6.03125 3.925781 L 6.019531 3.9375 L 5.960938 3.9375 L 5.929688 3.902344 L 5.929688 3.925781 L 5.894531 3.9375 L 5.816406 3.9375 L 5.761719 3.925781 L 5.769531 3.890625 L 5.703125 3.902344 L 5.648438 3.902344 L 5.613281 3.914062 L 5.589844 3.902344 L 5.578125 3.9375 L 5.546875 3.914062 L 5.546875 3.890625 L 5.421875 3.902344 L 5.410156 3.925781 L 5.410156 3.902344 L 5.320312 3.902344 L 5.296875 3.890625 L 5.289062 3.914062 L 5.265625 3.902344 L 5.117188 3.902344 L 5.085938 3.925781 L 5.085938 3.9375 L 4.9375 3.949219 L 4.792969 3.9375 L 4.734375 3.949219 L 4.636719 3.949219 L 4.566406 3.960938 L 4.535156 3.984375 L 4.445312 3.984375 L 4.332031 3.972656 L 4.253906 3.992188 L 4.207031 3.984375 L 4.183594 3.992188 L 4.117188 3.992188 L 4.082031 4.003906 L 4.039062 3.992188 L 4.039062 4.015625 L 3.984375 4.039062 L 3.984375 4.003906 L 3.882812 3.992188 L 3.757812 3.992188 L 3.722656 4.003906 L 3.710938 3.984375 L 3.667969 3.984375 L 3.542969 3.992188 L 3.566406 3.984375 L 3.566406 3.960938 L 3.421875 3.972656 L 3.363281 3.960938 L 3.261719 3.972656 L 3.261719 3.949219 L 3.171875 3.972656 L 3.105469 3.972656 L 3.082031 3.992188 L 2.949219 3.992188 L 2.847656 4.003906 L 2.824219 3.984375 L 2.757812 3.972656 L 2.746094 4.003906 L 2.65625 4.039062 L 2.578125 4.0625 L 2.519531 4.09375 L 2.417969 4.105469 L 2.394531 4.105469 L 2.394531 4.140625 L 2.351562 4.152344 L 2.339844 4.128906 L 2.316406 4.164062 L 2.261719 4.183594 L 2.261719 4.140625 L 2.464844 4.027344 L 2.699219 3.914062 L 2.867188 3.847656 L 3.027344 3.800781 Z M 3.21875 3.78125 "/>
<path fill-rule="nonzero" fill="rgb(12.54902%, 14.509804%, 13.333333%)" fill-opacity="1" d="M 2.675781 13.703125 L 2.699219 13.703125 L 2.765625 13.804688 L 2.902344 13.960938 L 2.980469 14.039062 L 3.140625 14.152344 L 3.25 14.199219 L 3.398438 14.21875 L 3.554688 14.207031 L 3.710938 14.164062 L 3.9375 14.039062 L 4.0625 13.9375 L 4.074219 13.917969 L 4.105469 13.925781 L 4.183594 14.015625 L 4.253906 14.109375 L 4.242188 14.207031 L 4.195312 14.265625 L 4.0625 14.367188 L 3.902344 14.457031 L 3.769531 14.511719 L 3.644531 14.546875 L 3.5 14.570312 L 3.320312 14.570312 L 3.148438 14.535156 L 3.003906 14.480469 L 2.800781 14.355469 L 2.667969 14.230469 L 2.578125 14.109375 L 2.519531 14.007812 L 2.519531 13.847656 L 2.585938 13.757812 Z M 2.675781 13.703125 "/>
<path fill-rule="nonzero" fill="rgb(16.862745%, 16.470588%, 17.254902%)" fill-opacity="1" d="M 5.445312 13.792969 L 5.480469 13.804688 L 5.46875 13.847656 L 5.480469 13.894531 L 5.5 13.9375 L 5.523438 14.007812 L 5.480469 14.085938 L 5.480469 14.199219 L 5.488281 14.230469 L 5.511719 14.230469 L 5.511719 14.265625 L 5.535156 14.265625 L 5.589844 14.367188 L 5.671875 14.433594 L 5.816406 14.523438 L 5.953125 14.570312 L 6.007812 14.578125 L 6.019531 14.535156 L 6.109375 14.488281 L 6.1875 14.488281 L 6.210938 14.480469 L 6.175781 14.445312 L 6.085938 14.410156 L 6.050781 14.367188 L 6.050781 14.34375 L 6.199219 14.367188 L 6.253906 14.378906 L 6.3125 14.367188 L 6.324219 14.398438 L 6.414062 14.398438 L 6.457031 14.433594 L 6.445312 14.480469 L 6.402344 14.488281 L 6.3125 14.480469 L 6.3125 14.511719 L 6.414062 14.5 L 6.535156 14.511719 L 6.558594 14.5 L 6.75 14.480469 L 6.941406 14.433594 L 7.007812 14.457031 L 7.007812 14.480469 L 7.109375 14.433594 L 7.15625 14.421875 L 7.15625 14.398438 L 7.246094 14.332031 L 7.222656 14.296875 L 7.257812 14.21875 L 7.277344 14.164062 L 7.265625 14.0625 L 7.277344 14.007812 L 7.265625 13.925781 L 7.3125 13.882812 L 7.359375 13.90625 L 7.46875 14.015625 L 7.492188 14.074219 L 7.492188 14.140625 L 7.402344 14.253906 L 7.289062 14.355469 L 7.078125 14.488281 L 6.90625 14.570312 L 6.714844 14.625 L 6.558594 14.660156 L 6.46875 14.671875 L 6.222656 14.671875 L 6.03125 14.636719 L 5.804688 14.558594 L 5.625 14.445312 L 5.5 14.34375 L 5.410156 14.265625 L 5.320312 14.140625 L 5.265625 14.027344 L 5.265625 13.949219 L 5.296875 13.882812 L 5.398438 13.816406 Z M 5.445312 13.792969 "/>
<path fill-rule="nonzero" fill="rgb(12.156863%, 14.117647%, 13.333333%)" fill-opacity="1" d="M 6.738281 5.1875 L 6.796875 5.199219 L 7.109375 5.445312 L 7.132812 5.457031 L 7.121094 5.488281 L 7.097656 5.488281 L 7.132812 5.558594 L 7.167969 5.570312 L 7.167969 5.589844 L 7.210938 5.613281 L 7.3125 5.648438 L 7.378906 5.660156 L 7.390625 5.691406 L 7.480469 5.726562 L 7.480469 5.75 L 7.546875 5.769531 L 7.570312 5.78125 L 7.570312 5.804688 L 7.628906 5.78125 L 7.640625 5.804688 L 7.605469 5.839844 L 7.582031 5.839844 L 7.570312 5.917969 L 7.546875 5.929688 L 7.425781 5.917969 L 7.246094 5.871094 L 7.078125 5.804688 L 6.929688 5.726562 L 6.816406 5.636719 L 6.703125 5.535156 L 6.671875 5.46875 L 6.683594 5.398438 L 6.703125 5.398438 L 6.703125 5.320312 L 6.695312 5.265625 Z M 6.738281 5.1875 "/>
<path fill-rule="nonzero" fill="rgb(79.607843%, 25.490196%, 63.137255%)" fill-opacity="1" d="M 5.421875 13.78125 L 5.46875 13.792969 L 5.320312 13.871094 L 5.289062 13.917969 L 5.277344 13.949219 L 5.277344 14.027344 L 5.367188 14.199219 L 5.46875 14.308594 L 5.660156 14.457031 L 5.804688 14.546875 L 6.074219 14.636719 L 6.222656 14.660156 L 6.46875 14.660156 L 6.660156 14.625 L 6.875 14.570312 L 7.007812 14.511719 L 7.132812 14.445312 L 7.300781 14.332031 L 7.425781 14.21875 L 7.480469 14.140625 L 7.480469 14.074219 L 7.449219 14.007812 L 7.324219 13.882812 L 7.359375 13.882812 L 7.46875 13.984375 L 7.527344 14.097656 L 7.515625 14.164062 L 7.390625 14.296875 L 7.300781 14.378906 L 7.246094 14.398438 L 7.246094 14.433594 L 7.210938 14.46875 L 7.199219 14.488281 L 7.175781 14.480469 L 7.175781 14.5 L 7.066406 14.558594 L 7.054688 14.578125 L 6.996094 14.578125 L 6.984375 14.601562 L 6.984375 14.625 L 6.917969 14.648438 L 6.90625 14.679688 L 6.851562 14.679688 L 6.839844 14.703125 L 6.703125 14.761719 L 6.648438 14.78125 L 6.546875 14.792969 L 6.503906 14.804688 L 6.332031 14.828125 L 6.289062 14.816406 L 6.289062 14.792969 L 6.132812 14.78125 L 6.085938 14.726562 L 6.0625 14.703125 L 5.917969 14.679688 L 5.859375 14.636719 L 5.828125 14.648438 L 5.828125 14.625 L 5.769531 14.613281 L 5.75 14.625 L 5.703125 14.601562 L 5.679688 14.613281 L 5.679688 14.578125 L 5.636719 14.570312 L 5.636719 14.546875 L 5.589844 14.535156 L 5.558594 14.5 L 5.558594 14.480469 L 5.5 14.480469 L 5.5 14.457031 L 5.457031 14.445312 L 5.398438 14.378906 L 5.355469 14.355469 L 5.355469 14.320312 L 5.320312 14.308594 L 5.320312 14.277344 L 5.289062 14.277344 L 5.242188 14.207031 L 5.230469 14.164062 L 5.242188 14.140625 L 5.21875 14.140625 L 5.21875 14.109375 L 5.199219 14.109375 L 5.164062 13.972656 L 5.164062 13.925781 L 5.1875 13.925781 L 5.199219 13.882812 L 5.230469 13.882812 L 5.253906 13.835938 L 5.296875 13.835938 L 5.296875 13.816406 L 5.398438 13.792969 Z M 5.421875 13.78125 "/>
<path fill-rule="nonzero" fill="rgb(16.862745%, 16.470588%, 17.254902%)" fill-opacity="1" d="M 9.347656 13.746094 L 9.394531 13.792969 L 9.382812 13.871094 L 9.347656 13.996094 L 9.292969 14.015625 L 9.292969 14.117188 L 9.335938 14.199219 L 9.335938 14.21875 L 9.382812 14.242188 L 9.394531 14.277344 L 9.4375 14.296875 L 9.550781 14.378906 L 9.742188 14.46875 L 9.820312 14.46875 L 9.777344 14.410156 L 9.765625 14.367188 L 9.878906 14.332031 L 9.957031 14.34375 L 10.113281 14.34375 L 10.214844 14.367188 L 10.382812 14.367188 L 10.453125 14.433594 L 10.542969 14.421875 L 10.609375 14.421875 L 10.632812 14.398438 L 10.6875 14.378906 L 10.777344 14.367188 L 10.832031 14.390625 L 10.832031 14.421875 L 10.945312 14.378906 L 10.980469 14.390625 L 10.824219 14.46875 L 10.652344 14.523438 L 10.453125 14.570312 L 10.359375 14.578125 L 10.070312 14.578125 L 9.878906 14.546875 L 9.6875 14.480469 L 9.472656 14.367188 L 9.328125 14.242188 L 9.257812 14.152344 L 9.214844 14.0625 L 9.203125 14.027344 L 9.203125 13.90625 L 9.246094 13.835938 Z M 9.347656 13.746094 "/>
<path fill-rule="nonzero" fill="rgb(79.607843%, 25.490196%, 63.137255%)" fill-opacity="1" d="M 14.445312 3.8125 L 14.761719 3.8125 L 15.007812 3.847656 L 15.03125 3.871094 L 14.917969 3.914062 L 14.90625 3.890625 L 14.828125 3.902344 L 14.761719 3.890625 L 14.660156 3.882812 L 14.660156 3.914062 L 14.613281 3.914062 L 14.613281 3.890625 L 14.589844 3.890625 L 14.578125 3.914062 L 14.558594 3.9375 L 14.421875 3.9375 L 14.398438 3.949219 L 14.355469 3.9375 L 14.289062 3.949219 L 13.894531 3.949219 L 13.714844 3.9375 L 13.230469 3.9375 L 13.171875 3.949219 L 13.003906 3.9375 L 12.667969 3.9375 L 12.566406 3.902344 L 12.554688 3.9375 L 12.476562 3.925781 L 12.429688 3.902344 L 12.429688 3.925781 L 12.410156 3.925781 L 12.410156 3.902344 L 12.308594 3.902344 L 12.285156 3.890625 L 12.273438 3.914062 L 12.183594 3.902344 L 12.140625 3.925781 L 12.140625 3.902344 L 12.082031 3.914062 L 12.082031 3.882812 L 12.046875 3.882812 L 12.046875 3.859375 L 12.542969 3.859375 L 13.601562 3.847656 L 14.074219 3.835938 L 14.109375 3.824219 Z M 14.445312 3.8125 "/>
<path fill-rule="nonzero" fill="rgb(16.862745%, 16.470588%, 16.862745%)" fill-opacity="1" d="M 3.285156 5.230469 L 3.339844 5.242188 L 3.421875 5.320312 L 3.554688 5.421875 L 3.578125 5.445312 L 3.53125 5.511719 L 3.421875 5.511719 L 3.320312 5.535156 L 3.320312 5.511719 L 3.261719 5.523438 L 3.285156 5.601562 L 3.363281 5.671875 L 3.511719 5.761719 L 3.589844 5.804688 L 3.769531 5.859375 L 3.925781 5.882812 L 3.984375 5.882812 L 3.972656 5.851562 L 3.9375 5.839844 L 3.914062 5.761719 L 3.902344 5.703125 L 3.9375 5.679688 L 4.074219 5.691406 L 4.105469 5.738281 L 4.105469 5.761719 L 4.230469 5.761719 L 4.296875 5.769531 L 4.296875 5.828125 L 4.355469 5.839844 L 4.511719 5.816406 L 4.511719 5.78125 L 4.589844 5.761719 L 4.601562 5.792969 L 4.578125 5.839844 L 4.679688 5.804688 L 4.816406 5.75 L 4.847656 5.75 L 4.757812 5.804688 L 4.578125 5.882812 L 4.433594 5.929688 L 4.195312 5.960938 L 4.039062 5.960938 L 3.800781 5.917969 L 3.578125 5.839844 L 3.375 5.726562 L 3.238281 5.613281 L 3.160156 5.5 L 3.140625 5.433594 L 3.140625 5.355469 L 3.171875 5.265625 Z M 3.285156 5.230469 "/>
<path fill-rule="nonzero" fill="rgb(12.156863%, 14.117647%, 13.333333%)" fill-opacity="1" d="M 12.882812 13.601562 L 12.925781 13.613281 L 13.003906 13.691406 L 13.128906 13.792969 L 13.140625 13.828125 L 13.117188 13.828125 L 13.140625 13.894531 L 13.195312 13.9375 L 13.265625 13.984375 L 13.265625 14.007812 L 13.363281 14.039062 L 13.433594 14.074219 L 13.5 14.097656 L 13.566406 14.128906 L 13.523438 14.152344 L 13.488281 14.164062 L 13.476562 14.207031 L 13.511719 14.242188 L 13.5 14.265625 L 13.386719 14.277344 L 13.171875 14.21875 L 13.0625 14.164062 L 12.984375 14.128906 L 12.847656 14.007812 L 12.792969 13.917969 L 12.769531 13.835938 L 12.78125 13.714844 L 12.824219 13.644531 Z M 12.882812 13.601562 "/>
<path fill-rule="nonzero" fill="rgb(17.254902%, 16.862745%, 17.254902%)" fill-opacity="1" d="M 8.492188 5.140625 L 8.574219 5.207031 L 8.730469 5.367188 L 8.742188 5.46875 L 8.671875 5.570312 L 8.527344 5.679688 L 8.371094 5.78125 L 8.191406 5.871094 L 8 5.941406 L 7.875 5.960938 L 7.660156 5.972656 L 7.480469 5.960938 L 7.300781 5.917969 L 7.019531 5.804688 L 6.90625 5.738281 L 6.796875 5.648438 L 6.683594 5.546875 L 6.613281 5.421875 L 6.613281 5.289062 L 6.726562 5.199219 L 6.726562 5.230469 L 6.703125 5.265625 L 6.714844 5.367188 L 6.703125 5.398438 L 6.683594 5.398438 L 6.683594 5.46875 L 6.714844 5.535156 L 6.851562 5.660156 L 7.007812 5.761719 L 7.175781 5.839844 L 7.3125 5.882812 L 7.480469 5.917969 L 7.570312 5.917969 L 7.582031 5.839844 L 7.628906 5.792969 L 7.570312 5.804688 L 7.570312 5.78125 L 7.503906 5.761719 L 7.480469 5.75 L 7.480469 5.726562 L 7.378906 5.691406 L 7.367188 5.671875 L 7.210938 5.625 L 7.167969 5.589844 L 7.167969 5.570312 L 7.121094 5.558594 L 7.097656 5.488281 L 7.144531 5.46875 L 7.257812 5.535156 L 7.457031 5.613281 L 7.570312 5.636719 L 7.695312 5.648438 L 7.75 5.679688 L 7.75 5.714844 L 7.875 5.726562 L 7.898438 5.761719 L 7.929688 5.78125 L 7.929688 5.804688 L 7.773438 5.804688 L 7.773438 5.78125 L 7.730469 5.792969 L 7.71875 5.828125 L 7.738281 5.859375 L 7.808594 5.851562 L 7.953125 5.851562 L 8.054688 5.828125 L 8.144531 5.839844 L 8.246094 5.816406 L 8.449219 5.703125 L 8.582031 5.601562 L 8.640625 5.558594 L 8.664062 5.421875 L 8.664062 5.320312 L 8.617188 5.296875 L 8.5625 5.230469 L 8.503906 5.175781 Z M 8.492188 5.140625 "/>
<path fill-rule="nonzero" fill="rgb(79.607843%, 25.490196%, 63.137255%)" fill-opacity="1" d="M 9.335938 13.734375 L 9.359375 13.746094 L 9.234375 13.859375 L 9.214844 13.90625 L 9.214844 14.027344 L 9.257812 14.128906 L 9.328125 14.230469 L 9.4375 14.332031 L 9.597656 14.421875 L 9.742188 14.488281 L 9.921875 14.546875 L 10.070312 14.570312 L 10.359375 14.570312 L 10.5625 14.535156 L 10.734375 14.488281 L 10.945312 14.398438 L 11.160156 14.277344 L 11.285156 14.1875 L 11.375 14.109375 L 11.363281 14.027344 L 11.339844 13.960938 L 11.375 13.996094 L 11.394531 14.039062 L 11.394531 14.117188 L 11.25 14.277344 L 11.214844 14.308594 L 11.183594 14.308594 L 11.183594 14.378906 L 11.171875 14.410156 L 11.09375 14.410156 L 11.070312 14.46875 L 11.003906 14.488281 L 10.992188 14.511719 L 10.957031 14.511719 L 10.914062 14.558594 L 10.84375 14.589844 L 10.753906 14.625 L 10.734375 14.613281 L 10.722656 14.636719 L 10.652344 14.648438 L 10.460938 14.648438 L 10.40625 14.660156 L 9.980469 14.648438 L 9.878906 14.648438 L 9.84375 14.625 L 9.796875 14.613281 L 9.699219 14.589844 L 9.6875 14.570312 L 9.597656 14.535156 L 9.5625 14.488281 L 9.484375 14.445312 L 9.472656 14.46875 L 9.460938 14.433594 L 9.40625 14.421875 L 9.371094 14.398438 L 9.371094 14.355469 L 9.328125 14.34375 L 9.328125 14.320312 L 9.28125 14.308594 L 9.269531 14.277344 L 9.234375 14.242188 L 9.226562 14.199219 L 9.191406 14.1875 L 9.15625 14.085938 L 9.15625 14.007812 L 9.203125 13.859375 L 9.257812 13.804688 Z M 9.335938 13.734375 "/>
<path fill-rule="nonzero" fill="rgb(79.607843%, 25.490196%, 63.137255%)" fill-opacity="1" d="M 14.523438 13.464844 L 14.589844 13.476562 L 14.660156 13.523438 L 14.761719 13.613281 L 14.769531 13.679688 L 14.738281 13.769531 L 14.679688 13.847656 L 14.660156 13.847656 L 14.660156 13.871094 L 14.636719 13.871094 L 14.625 13.917969 L 14.523438 14.007812 L 14.410156 14.085938 L 14.398438 14.117188 L 14.332031 14.140625 L 14.332031 14.164062 L 14.296875 14.1875 L 14.253906 14.1875 L 14.242188 14.21875 L 14.207031 14.230469 L 14.207031 14.253906 L 14.117188 14.289062 L 14.085938 14.320312 L 14.027344 14.332031 L 13.984375 14.367188 L 13.925781 14.378906 L 13.917969 14.398438 L 13.816406 14.421875 L 13.667969 14.433594 L 13.601562 14.421875 L 13.5 14.433594 L 13.433594 14.421875 L 13.363281 14.421875 L 13.363281 14.390625 L 13.253906 14.367188 L 13.253906 14.332031 L 13.171875 14.34375 L 13.140625 14.34375 L 13.105469 14.320312 L 13.105469 14.296875 L 12.972656 14.277344 L 12.972656 14.253906 L 12.890625 14.230469 L 12.847656 14.140625 L 12.835938 14.097656 L 12.792969 14.050781 L 12.757812 13.949219 L 12.722656 13.960938 L 12.710938 13.917969 L 12.703125 13.859375 L 12.710938 13.835938 L 12.746094 13.828125 L 12.769531 13.714844 L 12.78125 13.714844 L 12.78125 13.835938 L 12.824219 13.960938 L 12.902344 14.050781 L 13.015625 14.140625 L 13.128906 14.207031 L 13.332031 14.277344 L 13.476562 14.296875 L 13.65625 14.296875 L 13.578125 14.289062 L 13.578125 14.277344 L 13.78125 14.277344 L 13.792969 14.265625 L 13.9375 14.253906 L 14.164062 14.1875 L 14.355469 14.085938 L 14.511719 13.960938 L 14.625 13.859375 L 14.703125 13.757812 L 14.738281 13.667969 L 14.726562 13.613281 L 14.625 13.523438 L 14.578125 13.5 L 14.511719 13.488281 Z M 14.523438 13.464844 "/>
<path fill-rule="nonzero" fill="rgb(17.254902%, 16.862745%, 17.254902%)" fill-opacity="1" d="M 13.140625 13.816406 L 13.355469 13.917969 L 13.511719 13.949219 L 13.464844 13.972656 L 13.523438 13.996094 L 13.601562 14.015625 L 13.65625 14.0625 L 13.757812 14.050781 L 13.828125 14.085938 L 13.90625 14.097656 L 13.949219 14.085938 L 13.960938 14.0625 L 13.984375 14.0625 L 13.996094 14.039062 L 14.015625 14.050781 L 14.007812 14.109375 L 14.117188 14.074219 L 14.128906 14.027344 L 14.175781 14.039062 L 14.1875 14.074219 L 14.230469 14.117188 L 14.308594 14.109375 L 14.277344 14.140625 L 14.128906 14.207031 L 13.9375 14.265625 L 13.792969 14.277344 L 13.757812 14.296875 L 13.65625 14.308594 L 13.476562 14.308594 L 13.332031 14.289062 L 13.128906 14.21875 L 13.039062 14.164062 L 13.0625 14.152344 L 13.207031 14.21875 L 13.386719 14.265625 L 13.5 14.265625 L 13.5 14.230469 L 13.464844 14.199219 L 13.488281 14.152344 L 13.554688 14.128906 L 13.488281 14.097656 L 13.375 14.0625 L 13.265625 14.007812 L 13.21875 13.960938 L 13.152344 13.917969 L 13.117188 13.882812 L 13.117188 13.828125 Z M 13.140625 13.816406 "/>
<path fill-rule="nonzero" fill="rgb(17.647059%, 17.647059%, 17.254902%)" fill-opacity="1" d="M 13.050781 5.320312 L 13.082031 5.332031 L 13.164062 5.457031 L 13.242188 5.535156 L 13.386719 5.636719 L 13.535156 5.691406 L 13.636719 5.714844 L 13.734375 5.726562 L 13.996094 5.726562 L 13.949219 5.738281 L 13.960938 5.792969 L 13.917969 5.804688 L 13.871094 5.78125 L 13.871094 5.75 L 13.78125 5.761719 L 13.734375 5.804688 L 13.644531 5.804688 L 13.445312 5.78125 L 13.410156 5.75 L 13.332031 5.714844 L 13.308594 5.671875 L 13.207031 5.636719 L 13.117188 5.578125 L 13.117188 5.558594 L 13.039062 5.535156 L 12.925781 5.5 L 12.890625 5.480469 L 12.871094 5.480469 L 12.882812 5.523438 L 12.890625 5.558594 L 12.914062 5.558594 L 12.902344 5.648438 L 12.9375 5.703125 L 12.992188 5.761719 L 13.09375 5.851562 L 13.230469 5.917969 L 13.421875 5.984375 L 13.566406 6.007812 L 13.667969 6.019531 L 14.007812 6.019531 L 14.175781 5.996094 L 14.398438 5.929688 L 14.625 5.816406 L 14.648438 5.828125 L 14.46875 5.929688 L 14.34375 5.984375 L 14.109375 6.042969 L 14.027344 6.050781 L 13.644531 6.050781 L 13.433594 6.019531 L 13.183594 5.929688 L 13.050781 5.851562 L 12.914062 5.714844 L 12.835938 5.558594 L 12.824219 5.480469 L 12.847656 5.410156 L 12.972656 5.355469 L 13.027344 5.367188 Z M 13.050781 5.320312 "/>
<path fill-rule="nonzero" fill="rgb(61.568627%, 21.568627%, 50.980392%)" fill-opacity="1" d="M 6.714844 5.175781 L 6.761719 5.1875 L 6.625 5.289062 L 6.625 5.421875 L 6.695312 5.546875 L 6.828125 5.671875 L 6.941406 5.75 L 7.121094 5.839844 L 7.335938 5.917969 L 7.480469 5.953125 L 7.730469 5.960938 L 7.941406 5.941406 L 8.066406 5.90625 L 8.210938 5.851562 L 8.390625 5.761719 L 8.539062 5.660156 L 8.671875 5.558594 L 8.730469 5.46875 L 8.71875 5.367188 L 8.59375 5.242188 L 8.628906 5.242188 L 8.742188 5.332031 L 8.773438 5.390625 L 8.773438 5.488281 L 8.71875 5.570312 L 8.425781 5.792969 L 8.359375 5.851562 L 8.257812 5.90625 L 8.210938 5.917969 L 8.203125 5.941406 L 8.089844 5.972656 L 7.785156 6.042969 L 7.683594 6.03125 L 7.558594 6.03125 L 7.503906 6.007812 L 7.359375 5.996094 L 7.359375 5.972656 L 7.246094 5.960938 L 7.175781 5.941406 L 7.175781 5.917969 L 7.121094 5.90625 L 6.941406 5.816406 L 6.941406 5.792969 L 6.886719 5.78125 L 6.816406 5.738281 L 6.738281 5.648438 L 6.683594 5.601562 L 6.613281 5.511719 L 6.582031 5.410156 L 6.582031 5.320312 L 6.613281 5.242188 L 6.683594 5.21875 L 6.683594 5.199219 Z M 6.714844 5.175781 "/>
<path fill-rule="nonzero" fill="rgb(61.568627%, 21.568627%, 50.980392%)" fill-opacity="1" d="M 9.832031 5.253906 L 9.855469 5.253906 L 9.832031 5.34375 L 9.777344 5.398438 L 9.6875 5.46875 L 9.6875 5.578125 L 9.742188 5.679688 L 9.84375 5.792969 L 9.96875 5.882812 L 10.160156 5.984375 L 10.316406 6.042969 L 10.542969 6.085938 L 10.789062 6.085938 L 11.046875 6.042969 L 11.285156 5.960938 L 11.453125 5.871094 L 11.542969 5.816406 L 11.667969 5.738281 L 11.746094 5.660156 L 11.777344 5.601562 L 11.789062 5.558594 L 11.789062 5.480469 L 11.746094 5.390625 L 11.710938 5.34375 L 11.710938 5.320312 L 11.6875 5.308594 L 11.722656 5.308594 L 11.800781 5.410156 L 11.835938 5.480469 L 11.835938 5.589844 L 11.765625 5.679688 L 11.722656 5.726562 L 11.699219 5.726562 L 11.675781 5.769531 L 11.554688 5.859375 L 11.429688 5.929688 L 11.25 6.019531 L 11.214844 6.042969 L 11.148438 6.0625 L 11.09375 6.085938 L 10.914062 6.132812 L 10.710938 6.152344 L 10.550781 6.152344 L 10.40625 6.132812 L 10.203125 6.074219 L 10.078125 6.019531 L 10.046875 6.007812 L 10.046875 5.984375 L 10.011719 5.996094 L 10.011719 5.972656 L 9.957031 5.960938 L 9.957031 5.941406 L 9.878906 5.917969 L 9.808594 5.839844 L 9.742188 5.78125 L 9.71875 5.726562 L 9.699219 5.726562 L 9.640625 5.613281 L 9.628906 5.578125 L 9.628906 5.46875 L 9.640625 5.433594 L 9.71875 5.390625 L 9.789062 5.355469 L 9.808594 5.355469 Z M 9.832031 5.253906 "/>
<path fill-rule="nonzero" fill="rgb(79.607843%, 25.490196%, 63.137255%)" fill-opacity="1" d="M 8.773438 5.390625 L 8.785156 5.390625 L 8.785156 5.5 L 8.730469 5.589844 L 8.671875 5.625 L 8.640625 5.636719 L 8.640625 5.660156 L 8.617188 5.660156 L 8.617188 5.679688 L 8.59375 5.703125 L 8.59375 5.738281 L 8.5625 5.769531 L 8.492188 5.78125 L 8.472656 5.828125 L 8.449219 5.859375 L 8.425781 5.859375 L 8.390625 5.871094 L 8.382812 5.90625 L 8.324219 5.929688 L 8.292969 5.929688 L 8.292969 5.953125 L 8.234375 5.953125 L 8.234375 5.972656 L 8.121094 6.03125 L 8.109375 6.042969 L 7.910156 6.0625 L 7.820312 6.085938 L 7.773438 6.085938 L 7.738281 6.109375 L 7.71875 6.097656 L 7.617188 6.097656 L 7.570312 6.0625 L 7.4375 6.03125 L 7.414062 6.019531 L 7.402344 6.042969 L 7.367188 6.019531 L 7.300781 6.007812 L 7.222656 6.007812 L 7.109375 5.960938 L 7.078125 5.960938 L 7.078125 5.929688 L 7.019531 5.929688 L 7.019531 5.90625 L 6.894531 5.882812 L 6.875 5.828125 L 6.816406 5.804688 L 6.816406 5.78125 L 6.761719 5.792969 L 6.75 5.726562 L 6.726562 5.726562 L 6.714844 5.660156 L 6.683594 5.671875 L 6.660156 5.601562 L 6.636719 5.601562 L 6.582031 5.488281 L 6.582031 5.410156 L 6.648438 5.546875 L 6.683594 5.578125 L 6.683594 5.601562 L 6.726562 5.625 L 6.773438 5.671875 L 6.773438 5.691406 L 6.816406 5.714844 L 6.816406 5.738281 L 6.863281 5.761719 L 6.941406 5.792969 L 6.976562 5.828125 L 7.132812 5.90625 L 7.175781 5.917969 L 7.175781 5.941406 L 7.234375 5.941406 L 7.300781 5.960938 L 7.359375 5.972656 L 7.390625 5.984375 L 7.546875 6.007812 L 7.605469 6.019531 L 7.707031 6.019531 L 7.808594 6.03125 L 7.988281 5.984375 L 8.089844 5.960938 L 8.144531 5.941406 L 8.203125 5.941406 L 8.210938 5.90625 L 8.300781 5.871094 L 8.359375 5.839844 L 8.382812 5.839844 L 8.402344 5.792969 L 8.527344 5.703125 L 8.671875 5.589844 L 8.71875 5.570312 L 8.742188 5.523438 L 8.765625 5.488281 Z M 8.773438 5.390625 "/>
<path fill-rule="nonzero" fill="rgb(63.921569%, 22.745098%, 52.941176%)" fill-opacity="1" d="M 3.21875 3.78125 L 4.21875 3.78125 L 5.007812 3.792969 L 5.480469 3.800781 L 5.636719 3.8125 L 5.601562 3.835938 L 4.453125 3.835938 L 4.265625 3.847656 L 3.003906 3.847656 L 3.027344 3.800781 Z M 3.21875 3.78125 "/>
<path fill-rule="nonzero" fill="rgb(16.862745%, 16.470588%, 17.254902%)" fill-opacity="1" d="M 9.84375 5.277344 L 9.867188 5.296875 L 9.832031 5.378906 L 9.789062 5.433594 L 9.796875 5.46875 L 9.890625 5.488281 L 9.890625 5.511719 L 9.957031 5.488281 L 9.980469 5.5 L 9.988281 5.601562 L 9.957031 5.601562 L 9.910156 5.578125 L 9.855469 5.578125 L 9.84375 5.570312 L 9.789062 5.570312 L 9.777344 5.625 L 9.820312 5.726562 L 9.84375 5.738281 L 9.84375 5.761719 L 9.867188 5.761719 L 9.867188 5.78125 L 9.910156 5.804688 L 10.023438 5.882812 L 10.203125 5.972656 L 10.328125 6.019531 L 10.542969 6.042969 L 10.84375 6.042969 L 11.125 5.996094 L 11.285156 5.941406 L 11.441406 5.851562 L 11.578125 5.761719 L 11.644531 5.726562 L 11.675781 5.714844 L 11.699219 5.671875 L 11.722656 5.671875 L 11.746094 5.625 L 11.765625 5.546875 L 11.746094 5.546875 L 11.746094 5.445312 L 11.710938 5.378906 L 11.699219 5.332031 L 11.675781 5.320312 L 11.710938 5.320312 L 11.757812 5.390625 L 11.800781 5.480469 L 11.800781 5.558594 L 11.765625 5.636719 L 11.6875 5.726562 L 11.566406 5.816406 L 11.464844 5.871094 L 11.304688 5.960938 L 11.082031 6.042969 L 10.921875 6.074219 L 10.789062 6.097656 L 10.542969 6.097656 L 10.269531 6.042969 L 10.136719 5.984375 L 9.945312 5.882812 L 9.820312 5.78125 L 9.71875 5.671875 L 9.675781 5.578125 L 9.675781 5.46875 L 9.808594 5.367188 Z M 9.84375 5.277344 "/>
<path fill-rule="nonzero" fill="rgb(61.568627%, 21.568627%, 50.980392%)" fill-opacity="1" d="M 5.421875 13.78125 L 5.46875 13.792969 L 5.320312 13.871094 L 5.289062 13.917969 L 5.277344 13.949219 L 5.277344 14.027344 L 5.367188 14.199219 L 5.46875 14.308594 L 5.660156 14.457031 L 5.804688 14.546875 L 6.074219 14.636719 L 6.222656 14.660156 L 6.46875 14.660156 L 6.660156 14.625 L 6.875 14.570312 L 7.007812 14.511719 L 7.132812 14.445312 L 7.300781 14.332031 L 7.425781 14.21875 L 7.480469 14.140625 L 7.480469 14.074219 L 7.449219 14.007812 L 7.324219 13.882812 L 7.359375 13.882812 L 7.46875 13.984375 L 7.527344 14.097656 L 7.515625 14.164062 L 7.390625 14.296875 L 7.300781 14.378906 L 7.144531 14.480469 L 7.03125 14.546875 L 6.941406 14.589844 L 6.796875 14.648438 L 6.695312 14.691406 L 6.605469 14.703125 L 6.523438 14.726562 L 6.414062 14.738281 L 6.152344 14.703125 L 5.972656 14.660156 L 5.804688 14.589844 L 5.714844 14.546875 L 5.535156 14.421875 L 5.457031 14.367188 L 5.457031 14.34375 L 5.410156 14.320312 L 5.308594 14.199219 L 5.253906 14.109375 L 5.21875 14.027344 L 5.21875 13.949219 L 5.265625 13.882812 L 5.355469 13.816406 Z M 5.421875 13.78125 "/>
<path fill-rule="nonzero" fill="rgb(61.176471%, 21.568627%, 50.588235%)" fill-opacity="1" d="M 5.074219 5.152344 L 5.117188 5.175781 L 5.21875 5.308594 L 5.265625 5.410156 L 5.253906 5.46875 L 5.175781 5.558594 L 5.050781 5.660156 L 4.996094 5.679688 L 4.996094 5.703125 L 4.960938 5.703125 L 4.960938 5.726562 L 4.925781 5.726562 L 4.925781 5.75 L 4.894531 5.75 L 4.894531 5.769531 L 4.816406 5.816406 L 4.769531 5.816406 L 4.769531 5.839844 L 4.679688 5.882812 L 4.546875 5.941406 L 4.363281 5.984375 L 4.152344 6.007812 L 3.9375 5.996094 L 3.78125 5.972656 L 3.679688 5.929688 L 3.609375 5.90625 L 3.441406 5.828125 L 3.441406 5.804688 L 3.386719 5.78125 L 3.308594 5.738281 L 3.238281 5.660156 L 3.183594 5.601562 L 3.117188 5.480469 L 3.117188 5.34375 L 3.148438 5.253906 L 3.207031 5.21875 L 3.320312 5.21875 L 3.285156 5.242188 L 3.171875 5.277344 L 3.148438 5.355469 L 3.148438 5.433594 L 3.183594 5.511719 L 3.230469 5.578125 L 3.273438 5.636719 L 3.398438 5.726562 L 3.53125 5.804688 L 3.703125 5.871094 L 3.847656 5.917969 L 4.039062 5.953125 L 4.195312 5.953125 L 4.433594 5.917969 L 4.601562 5.859375 L 4.828125 5.761719 L 4.949219 5.671875 L 5.128906 5.558594 L 5.207031 5.488281 L 5.21875 5.46875 L 5.21875 5.390625 L 5.1875 5.320312 L 5.097656 5.199219 L 5.097656 5.175781 L 5.0625 5.164062 Z M 5.074219 5.152344 "/>
<path fill-rule="nonzero" fill="rgb(61.568627%, 21.568627%, 50.980392%)" fill-opacity="1" d="M 9.335938 13.734375 L 9.359375 13.746094 L 9.234375 13.859375 L 9.214844 13.90625 L 9.214844 14.027344 L 9.257812 14.128906 L 9.328125 14.230469 L 9.4375 14.332031 L 9.597656 14.421875 L 9.742188 14.488281 L 9.921875 14.546875 L 10.070312 14.570312 L 10.359375 14.570312 L 10.5625 14.535156 L 10.734375 14.488281 L 10.945312 14.398438 L 11.160156 14.277344 L 11.285156 14.1875 L 11.375 14.109375 L 11.363281 14.027344 L 11.339844 13.960938 L 11.375 13.996094 L 11.394531 14.039062 L 11.394531 14.117188 L 11.273438 14.230469 L 11.148438 14.320312 L 11.035156 14.390625 L 10.933594 14.457031 L 10.878906 14.480469 L 10.777344 14.523438 L 10.597656 14.578125 L 10.417969 14.613281 L 10.125 14.625 L 9.910156 14.601562 L 9.765625 14.558594 L 9.640625 14.5 L 9.550781 14.457031 L 9.472656 14.421875 L 9.472656 14.398438 L 9.417969 14.378906 L 9.269531 14.230469 L 9.191406 14.109375 L 9.167969 14.039062 L 9.167969 13.960938 L 9.214844 13.847656 L 9.269531 13.792969 Z M 9.335938 13.734375 "/>
<path fill-rule="nonzero" fill="rgb(61.568627%, 21.568627%, 50.588235%)" fill-opacity="1" d="M 14.523438 13.464844 L 14.589844 13.476562 L 14.660156 13.523438 L 14.761719 13.613281 L 14.769531 13.679688 L 14.738281 13.769531 L 14.679688 13.847656 L 14.660156 13.847656 L 14.660156 13.871094 L 14.636719 13.871094 L 14.625 13.917969 L 14.523438 14.007812 L 14.378906 14.109375 L 14.277344 14.175781 L 14.074219 14.265625 L 13.925781 14.308594 L 13.78125 14.332031 L 13.679688 14.367188 L 13.464844 14.355469 L 13.363281 14.332031 L 13.21875 14.289062 L 13.027344 14.207031 L 12.984375 14.199219 L 12.902344 14.109375 L 12.882812 14.097656 L 12.882812 14.074219 L 12.859375 14.074219 L 12.859375 14.050781 L 12.835938 14.050781 L 12.792969 13.984375 L 12.757812 13.882812 L 12.757812 13.769531 L 12.769531 13.714844 L 12.78125 13.714844 L 12.78125 13.835938 L 12.824219 13.960938 L 12.902344 14.050781 L 13.015625 14.140625 L 13.128906 14.207031 L 13.332031 14.277344 L 13.476562 14.296875 L 13.65625 14.296875 L 13.578125 14.289062 L 13.578125 14.277344 L 13.78125 14.277344 L 13.792969 14.265625 L 13.9375 14.253906 L 14.164062 14.1875 L 14.355469 14.085938 L 14.511719 13.960938 L 14.625 13.859375 L 14.703125 13.757812 L 14.738281 13.667969 L 14.726562 13.613281 L 14.625 13.523438 L 14.578125 13.5 L 14.511719 13.488281 Z M 14.523438 13.464844 "/>
<path fill-rule="nonzero" fill="rgb(79.607843%, 25.490196%, 63.137255%)" fill-opacity="1" d="M 9.730469 5.355469 L 9.789062 5.355469 L 9.742188 5.390625 L 9.675781 5.421875 L 9.640625 5.433594 L 9.640625 5.578125 L 9.6875 5.679688 L 9.699219 5.726562 L 9.71875 5.726562 L 9.742188 5.78125 L 9.789062 5.804688 L 9.789062 5.828125 L 9.832031 5.851562 L 9.878906 5.894531 L 9.878906 5.917969 L 9.933594 5.929688 L 9.957031 5.941406 L 9.957031 5.960938 L 10.011719 5.972656 L 10.046875 5.984375 L 10.046875 6.007812 L 10.113281 6.019531 L 10.203125 6.0625 L 10.453125 6.132812 L 10.550781 6.140625 L 10.710938 6.140625 L 10.914062 6.121094 L 11.09375 6.074219 L 11.148438 6.050781 L 11.285156 5.996094 L 11.429688 5.917969 L 11.566406 5.839844 L 11.585938 5.851562 L 11.53125 5.90625 L 11.496094 5.90625 L 11.484375 5.941406 L 11.417969 5.972656 L 11.375 5.984375 L 11.316406 5.996094 L 11.304688 6.03125 L 11.238281 6.050781 L 11.25 6.074219 L 11.160156 6.121094 L 11.023438 6.140625 L 10.96875 6.140625 L 10.945312 6.152344 L 10.878906 6.152344 L 10.765625 6.175781 L 10.40625 6.175781 L 10.40625 6.152344 L 10.316406 6.152344 L 10.148438 6.097656 L 10.035156 6.0625 L 9.988281 6.019531 L 9.957031 6.019531 L 9.957031 5.996094 L 9.910156 5.984375 L 9.910156 5.960938 L 9.867188 5.972656 L 9.808594 5.90625 L 9.789062 5.90625 L 9.777344 5.851562 L 9.730469 5.851562 L 9.699219 5.792969 L 9.699219 5.761719 L 9.675781 5.761719 L 9.628906 5.679688 L 9.628906 5.636719 L 9.609375 5.636719 L 9.585938 5.5 L 9.597656 5.457031 L 9.652344 5.398438 Z M 9.730469 5.355469 "/>
<path fill-rule="nonzero" fill="rgb(61.568627%, 21.568627%, 50.980392%)" fill-opacity="1" d="M 13.027344 5.289062 L 13.0625 5.296875 L 13.039062 5.367188 L 12.992188 5.378906 L 12.960938 5.367188 L 12.871094 5.410156 L 12.847656 5.410156 L 12.835938 5.523438 L 12.902344 5.679688 L 13.003906 5.792969 L 13.082031 5.859375 L 13.242188 5.941406 L 13.433594 6.007812 L 13.644531 6.042969 L 14.027344 6.042969 L 14.207031 6.007812 L 14.378906 5.960938 L 14.636719 5.828125 L 14.761719 5.738281 L 14.804688 5.714844 L 14.761719 5.769531 L 14.625 5.871094 L 14.5 5.953125 L 14.355469 6.007812 L 14.21875 6.050781 L 14.074219 6.085938 L 13.949219 6.097656 L 13.667969 6.097656 L 13.386719 6.042969 L 13.164062 5.953125 L 13.039062 5.882812 L 13.039062 5.859375 L 13.003906 5.851562 L 12.925781 5.761719 L 12.847656 5.636719 L 12.8125 5.558594 L 12.8125 5.445312 L 12.847656 5.390625 L 12.949219 5.320312 L 13.015625 5.308594 Z M 13.027344 5.289062 "/>
<path fill-rule="nonzero" fill="rgb(80%, 26.27451%, 63.529412%)" fill-opacity="1" d="M 14.1875 15.132812 L 14.242188 15.132812 L 14.253906 15.164062 L 14.355469 15.152344 L 14.355469 15.175781 L 14.390625 15.175781 L 14.390625 15.152344 L 14.5 15.152344 L 14.589844 15.164062 L 14.601562 15.140625 L 14.625 15.152344 L 14.625 15.175781 L 14.738281 15.164062 L 14.769531 15.199219 L 14.601562 15.222656 L 14.109375 15.234375 L 13.375 15.234375 L 13.375 15.222656 L 13.511719 15.210938 L 13.554688 15.175781 L 13.589844 15.175781 L 13.589844 15.164062 L 13.769531 15.152344 L 13.792969 15.140625 L 13.871094 15.152344 L 13.972656 15.140625 L 14.097656 15.175781 L 14.109375 15.152344 L 14.152344 15.152344 L 14.175781 15.140625 Z M 14.1875 15.132812 "/>
<path fill-rule="nonzero" fill="rgb(79.607843%, 25.490196%, 63.137255%)" fill-opacity="1" d="M 12.859375 5.660156 L 12.902344 5.714844 L 12.972656 5.792969 L 12.972656 5.816406 L 13.003906 5.828125 L 13.039062 5.859375 L 13.039062 5.882812 L 13.09375 5.90625 L 13.296875 5.996094 L 13.386719 6.03125 L 13.546875 6.0625 L 13.691406 6.085938 L 13.949219 6.085938 L 14.117188 6.0625 L 14.289062 6.019531 L 14.390625 5.996094 L 14.390625 6.019531 L 14.277344 6.0625 L 14.242188 6.050781 L 14.242188 6.074219 L 14.074219 6.109375 L 13.972656 6.140625 L 13.871094 6.152344 L 13.65625 6.152344 L 13.601562 6.140625 L 13.523438 6.140625 L 13.523438 6.121094 L 13.398438 6.085938 L 13.363281 6.074219 L 13.363281 6.050781 L 13.273438 6.050781 L 13.195312 6.03125 L 13.183594 6.007812 L 13.140625 5.996094 L 13.09375 5.972656 L 13.050781 5.960938 L 13.027344 5.953125 L 13.027344 5.90625 L 12.984375 5.894531 L 12.960938 5.851562 L 12.925781 5.828125 L 12.914062 5.804688 L 12.890625 5.816406 L 12.871094 5.703125 L 12.847656 5.691406 Z M 12.859375 5.660156 "/>
<path fill-rule="nonzero" fill="rgb(79.607843%, 25.490196%, 63.137255%)" fill-opacity="1" d="M 10.203125 3.859375 L 12.039062 3.859375 L 12.027344 3.882812 L 11.902344 3.890625 L 11.464844 3.890625 L 11.417969 3.902344 L 11.261719 3.902344 L 11.273438 3.925781 L 11.238281 3.925781 L 11.238281 3.902344 L 11.160156 3.914062 L 11.125 3.914062 L 10.980469 3.902344 L 10.980469 3.925781 L 10.957031 3.914062 L 10.96875 3.890625 L 10.878906 3.914062 L 10.878906 3.890625 L 10.777344 3.902344 L 10.742188 3.902344 L 10.699219 3.914062 L 10.609375 3.890625 L 10.585938 3.902344 L 10.519531 3.902344 L 10.460938 3.914062 L 10.394531 3.890625 L 10.269531 3.914062 L 10.261719 3.890625 L 10.238281 3.890625 L 10.238281 3.871094 L 10.203125 3.882812 Z M 10.203125 3.859375 "/>
<path fill-rule="nonzero" fill="rgb(61.568627%, 21.568627%, 50.980392%)" fill-opacity="1" d="M 2.507812 13.847656 L 2.519531 13.847656 L 2.53125 14.007812 L 2.621094 14.164062 L 2.746094 14.296875 L 2.890625 14.398438 L 3.003906 14.46875 L 3.148438 14.523438 L 3.320312 14.558594 L 3.5 14.558594 L 3.703125 14.523438 L 3.882812 14.457031 L 4.027344 14.378906 L 4.105469 14.320312 L 4.128906 14.332031 L 4.027344 14.410156 L 3.871094 14.5 L 3.746094 14.546875 L 3.632812 14.578125 L 3.554688 14.589844 L 3.261719 14.589844 L 3.105469 14.546875 L 2.925781 14.457031 L 2.777344 14.367188 L 2.667969 14.265625 L 2.597656 14.1875 L 2.53125 14.085938 L 2.496094 13.996094 L 2.496094 13.871094 Z M 2.507812 13.847656 "/>
<path fill-rule="nonzero" fill="rgb(79.215686%, 25.098039%, 62.745098%)" fill-opacity="1" d="M 6.582031 5.410156 L 6.648438 5.546875 L 6.683594 5.578125 L 6.683594 5.601562 L 6.726562 5.625 L 6.773438 5.671875 L 6.773438 5.691406 L 6.816406 5.714844 L 6.816406 5.738281 L 6.863281 5.761719 L 6.941406 5.792969 L 6.976562 5.828125 L 7.132812 5.90625 L 7.175781 5.917969 L 7.175781 5.941406 L 7.234375 5.941406 L 7.300781 5.960938 L 7.359375 5.972656 L 7.367188 6.019531 L 7.300781 6.007812 L 7.222656 6.007812 L 7.109375 5.960938 L 7.078125 5.960938 L 7.078125 5.929688 L 7.019531 5.929688 L 7.019531 5.90625 L 6.894531 5.882812 L 6.875 5.828125 L 6.816406 5.804688 L 6.816406 5.78125 L 6.761719 5.792969 L 6.75 5.726562 L 6.726562 5.726562 L 6.714844 5.660156 L 6.683594 5.671875 L 6.660156 5.601562 L 6.636719 5.601562 L 6.582031 5.488281 Z M 6.582031 5.410156 "/>
<path fill-rule="nonzero" fill="rgb(79.607843%, 25.490196%, 63.137255%)" fill-opacity="1" d="M 5.0625 5.636719 L 5.085938 5.648438 L 5.0625 5.714844 L 4.984375 5.761719 L 4.9375 5.804688 L 4.882812 5.792969 L 4.882812 5.816406 L 4.859375 5.828125 L 4.847656 5.851562 L 4.792969 5.871094 L 4.769531 5.90625 L 4.703125 5.917969 L 4.679688 5.953125 L 4.589844 5.960938 L 4.566406 5.984375 L 4.410156 5.996094 L 4.296875 6.019531 L 4.242188 6.050781 L 4.242188 6.03125 L 4.21875 6.042969 L 4.09375 6.042969 L 4.039062 6.019531 L 3.890625 6.007812 L 3.882812 5.984375 L 4.164062 5.996094 L 4.363281 5.972656 L 4.546875 5.929688 L 4.679688 5.871094 L 4.746094 5.839844 L 4.769531 5.839844 L 4.769531 5.816406 L 4.847656 5.78125 L 4.894531 5.769531 L 4.894531 5.75 L 4.925781 5.75 L 4.925781 5.726562 L 4.960938 5.726562 L 4.960938 5.703125 L 4.996094 5.703125 L 4.996094 5.679688 Z M 5.0625 5.636719 "/>
<path fill-rule="nonzero" fill="rgb(79.607843%, 25.490196%, 63.137255%)" fill-opacity="1" d="M 2.484375 13.894531 L 2.496094 13.894531 L 2.519531 14.039062 L 2.585938 14.152344 L 2.65625 14.242188 L 2.746094 14.332031 L 2.890625 14.421875 L 3.046875 14.511719 L 3.207031 14.570312 L 3.261719 14.578125 L 3.554688 14.589844 L 3.511719 14.613281 L 3.296875 14.613281 L 3.128906 14.589844 L 3.039062 14.558594 L 2.96875 14.535156 L 2.96875 14.511719 L 2.9375 14.5 L 2.9375 14.480469 L 2.914062 14.480469 L 2.902344 14.5 L 2.902344 14.46875 L 2.847656 14.46875 L 2.847656 14.445312 L 2.765625 14.433594 L 2.710938 14.398438 L 2.710938 14.367188 L 2.667969 14.34375 L 2.65625 14.320312 L 2.621094 14.320312 L 2.609375 14.242188 L 2.585938 14.242188 L 2.566406 14.164062 L 2.496094 14.050781 L 2.476562 13.984375 L 2.476562 13.917969 Z M 2.484375 13.894531 "/>
<path fill-rule="nonzero" fill="rgb(76.078431%, 25.490196%, 61.176471%)" fill-opacity="1" d="M 12.261719 15.234375 L 12.746094 15.234375 L 12.769531 15.253906 L 12.621094 15.265625 L 11.554688 15.289062 L 11.195312 15.289062 L 11.238281 15.253906 L 11.710938 15.242188 L 11.902344 15.242188 Z M 12.261719 15.234375 "/>
<path fill-rule="nonzero" fill="rgb(17.254902%, 16.862745%, 17.254902%)" fill-opacity="1" d="M 14.457031 13.445312 L 14.511719 13.476562 L 14.601562 13.5 L 14.714844 13.589844 L 14.75 13.636719 L 14.726562 13.734375 L 14.679688 13.804688 L 14.558594 13.9375 L 14.488281 13.996094 L 14.46875 13.984375 L 14.613281 13.847656 L 14.671875 13.757812 L 14.671875 13.65625 L 14.679688 13.636719 L 14.636719 13.613281 L 14.535156 13.625 L 14.421875 13.578125 Z M 14.457031 13.445312 "/>
<path fill-rule="nonzero" fill="rgb(18.039216%, 18.039216%, 17.254902%)" fill-opacity="1" d="M 2.957031 14.027344 L 3.027344 14.074219 L 3.140625 14.152344 L 3.25 14.199219 L 3.238281 14.21875 L 3.320312 14.277344 L 3.328125 14.332031 L 3.320312 14.34375 L 3.25 14.34375 L 3.230469 14.332031 L 3.230469 14.308594 L 3.171875 14.289062 L 3.117188 14.242188 L 3.070312 14.230469 L 3.070312 14.207031 L 2.992188 14.1875 L 2.949219 14.140625 L 2.949219 14.117188 L 2.902344 14.097656 L 2.914062 14.0625 Z M 2.957031 14.027344 "/>
<path fill-rule="nonzero" fill="rgb(16.862745%, 16.470588%, 17.254902%)" fill-opacity="1" d="M 12.882812 5.648438 L 12.914062 5.660156 L 12.9375 5.703125 L 12.992188 5.761719 L 13.09375 5.851562 L 13.230469 5.917969 L 13.421875 5.984375 L 13.566406 6.007812 L 13.667969 6.019531 L 14.007812 6.019531 L 14.175781 5.996094 L 14.398438 5.929688 L 14.625 5.816406 L 14.648438 5.828125 L 14.46875 5.929688 L 14.34375 5.984375 L 14.109375 6.042969 L 14.027344 6.050781 L 13.644531 6.050781 L 13.433594 6.019531 L 13.183594 5.929688 L 13.050781 5.851562 L 12.914062 5.714844 Z M 12.882812 5.648438 "/>
<path fill-rule="nonzero" fill="rgb(79.607843%, 25.490196%, 63.137255%)" fill-opacity="1" d="M 3.105469 5.367188 L 3.117188 5.367188 L 3.128906 5.480469 L 3.195312 5.601562 L 3.21875 5.648438 L 3.261719 5.671875 L 3.261719 5.691406 L 3.308594 5.714844 L 3.308594 5.738281 L 3.363281 5.761719 L 3.441406 5.804688 L 3.441406 5.828125 L 3.488281 5.839844 L 3.621094 5.90625 L 3.734375 5.941406 L 3.835938 5.972656 L 3.871094 5.972656 L 3.871094 5.996094 L 3.710938 5.996094 L 3.609375 5.953125 L 3.519531 5.90625 L 3.441406 5.882812 L 3.421875 5.871094 L 3.386719 5.816406 L 3.308594 5.78125 L 3.308594 5.761719 L 3.261719 5.75 L 3.261719 5.714844 L 3.21875 5.691406 L 3.195312 5.636719 L 3.148438 5.601562 L 3.117188 5.546875 L 3.105469 5.488281 Z M 3.105469 5.367188 "/>
<path fill-rule="nonzero" fill="rgb(18.823529%, 18.431373%, 18.039216%)" fill-opacity="1" d="M 10.035156 5.625 L 10.171875 5.636719 L 10.25 5.671875 L 10.371094 5.726562 L 10.550781 5.769531 L 10.507812 5.792969 L 10.441406 5.804688 L 10.339844 5.792969 L 10.179688 5.75 L 10.046875 5.671875 Z M 10.035156 5.625 "/>
<path fill-rule="nonzero" fill="rgb(18.431373%, 19.215686%, 17.254902%)" fill-opacity="1" d="M 3.632812 5.480469 L 3.824219 5.570312 L 3.890625 5.589844 L 3.871094 5.648438 L 3.8125 5.703125 L 3.757812 5.691406 L 3.746094 5.648438 L 3.679688 5.625 L 3.632812 5.570312 L 3.621094 5.5 Z M 3.632812 5.480469 "/>
<path fill-rule="nonzero" fill="rgb(16.470588%, 16.078431%, 16.862745%)" fill-opacity="1" d="M 8.492188 5.140625 L 8.574219 5.207031 L 8.730469 5.367188 L 8.742188 5.46875 L 8.671875 5.570312 L 8.605469 5.625 L 8.582031 5.613281 L 8.640625 5.558594 L 8.664062 5.421875 L 8.664062 5.320312 L 8.617188 5.296875 L 8.5625 5.230469 L 8.503906 5.175781 Z M 8.492188 5.140625 "/>
<path fill-rule="nonzero" fill="rgb(16.862745%, 16.470588%, 17.254902%)" fill-opacity="1" d="M 5.128906 5.242188 L 5.175781 5.289062 L 5.21875 5.367188 L 5.230469 5.390625 L 5.230469 5.46875 L 5.175781 5.535156 L 4.90625 5.714844 L 4.882812 5.703125 L 4.996094 5.625 L 5.140625 5.523438 L 5.152344 5.457031 L 5.164062 5.398438 L 5.164062 5.320312 L 5.128906 5.277344 Z M 5.128906 5.242188 "/>
<path fill-rule="nonzero" fill="rgb(80.392157%, 27.058824%, 64.313725%)" fill-opacity="1" d="M 12.261719 15.234375 L 12.746094 15.234375 L 12.769531 15.253906 L 12.621094 15.265625 L 12.25 15.265625 Z M 12.261719 15.234375 "/>
<path fill-rule="nonzero" fill="rgb(63.137255%, 22.352941%, 52.156863%)" fill-opacity="1" d="M 1.269531 8.863281 L 1.28125 8.863281 L 1.28125 9.449219 L 1.261719 9.496094 L 1.25 9.496094 L 1.261719 9.035156 Z M 1.269531 8.863281 "/>
<path fill-rule="nonzero" fill="rgb(79.607843%, 25.490196%, 63.137255%)" fill-opacity="1" d="M 11.722656 5.289062 L 11.734375 5.308594 L 11.757812 5.308594 L 11.757812 5.332031 L 11.789062 5.34375 L 11.847656 5.457031 L 11.847656 5.601562 L 11.835938 5.636719 L 11.8125 5.636719 L 11.800781 5.679688 L 11.722656 5.75 L 11.6875 5.78125 L 11.632812 5.804688 L 11.699219 5.726562 L 11.789062 5.648438 L 11.824219 5.589844 L 11.824219 5.480469 L 11.765625 5.378906 L 11.710938 5.296875 Z M 11.722656 5.289062 "/>
<path fill-rule="nonzero" fill="rgb(16.862745%, 16.470588%, 17.254902%)" fill-opacity="1" d="M 2.519531 13.847656 L 2.53125 13.847656 L 2.542969 13.996094 L 2.632812 14.140625 L 2.667969 14.1875 L 2.667969 14.207031 L 2.6875 14.207031 L 2.6875 14.230469 L 2.710938 14.230469 L 2.757812 14.289062 L 2.824219 14.34375 L 2.789062 14.34375 L 2.675781 14.242188 L 2.585938 14.128906 L 2.519531 14.007812 Z M 2.519531 13.847656 "/>
<path fill-rule="nonzero" fill="rgb(83.137255%, 31.764706%, 67.45098%)" fill-opacity="1" d="M 7.367188 3.835938 L 8.066406 3.835938 L 8.042969 3.859375 L 8 3.859375 L 7.988281 3.882812 L 7.988281 3.859375 L 7.367188 3.847656 Z M 7.367188 3.835938 "/>
<path fill-rule="nonzero" fill="rgb(61.568627%, 21.568627%, 50.980392%)" fill-opacity="1" d="M 14.859375 5.277344 L 14.917969 5.332031 L 14.984375 5.421875 L 14.984375 5.523438 L 14.90625 5.636719 L 14.828125 5.714844 L 14.804688 5.714844 L 14.804688 5.691406 L 14.882812 5.625 L 14.941406 5.546875 L 14.953125 5.511719 L 14.953125 5.421875 L 14.859375 5.296875 Z M 14.859375 5.277344 "/>
<path fill-rule="nonzero" fill="rgb(16.862745%, 16.470588%, 17.254902%)" fill-opacity="1" d="M 12.925781 13.625 L 13.003906 13.691406 L 12.984375 13.734375 L 12.949219 13.757812 L 12.902344 13.757812 L 12.902344 13.734375 L 12.882812 13.734375 L 12.890625 13.679688 L 12.914062 13.679688 Z M 12.925781 13.625 "/>
<path fill-rule="nonzero" fill="rgb(17.254902%, 17.254902%, 17.254902%)" fill-opacity="1" d="M 11.675781 5.320312 L 11.710938 5.320312 L 11.757812 5.390625 L 11.800781 5.480469 L 11.800781 5.558594 L 11.789062 5.601562 L 11.765625 5.601562 L 11.765625 5.546875 L 11.746094 5.546875 L 11.746094 5.445312 L 11.710938 5.378906 L 11.699219 5.332031 Z M 11.675781 5.320312 "/>
<path fill-rule="nonzero" fill="rgb(13.333333%, 15.686275%, 13.72549%)" fill-opacity="1" d="M 13.074219 5.355469 L 13.09375 5.355469 L 13.164062 5.457031 L 13.164062 5.488281 L 13.117188 5.511719 L 13.09375 5.5 L 13.09375 5.480469 L 13.0625 5.46875 Z M 13.074219 5.355469 "/>
<path fill-rule="nonzero" fill="rgb(16.862745%, 16.470588%, 17.254902%)" fill-opacity="1" d="M 4.140625 13.984375 L 4.21875 14.050781 L 4.253906 14.109375 L 4.242188 14.207031 L 4.195312 14.265625 L 4.171875 14.253906 L 4.21875 14.140625 L 4.230469 14.097656 L 4.207031 14.097656 L 4.171875 14.039062 L 4.140625 14.007812 Z M 4.140625 13.984375 "/>
<path fill-rule="nonzero" fill="rgb(61.568627%, 21.568627%, 50.980392%)" fill-opacity="1" d="M 4.105469 13.925781 L 4.183594 13.996094 L 4.253906 14.074219 L 4.273438 14.117188 L 4.265625 14.199219 L 4.230469 14.253906 L 4.207031 14.242188 L 4.230469 14.207031 L 4.242188 14.109375 L 4.171875 14.015625 L 4.105469 13.949219 Z M 4.105469 13.925781 "/>
<path fill-rule="nonzero" fill="rgb(79.607843%, 25.490196%, 63.137255%)" fill-opacity="1" d="M 3.824219 14.5 L 3.882812 14.511719 L 3.835938 14.535156 L 3.769531 14.546875 L 3.769531 14.570312 L 3.667969 14.589844 L 3.554688 14.589844 L 3.554688 14.578125 L 3.667969 14.558594 L 3.792969 14.523438 Z M 3.824219 14.5 "/>
<path fill-rule="nonzero" fill="rgb(79.607843%, 25.490196%, 63.137255%)" fill-opacity="1" d="M 14.613281 13.917969 L 14.625 13.949219 L 14.535156 14.027344 L 14.46875 14.074219 L 14.445312 14.074219 L 14.445312 14.097656 L 14.398438 14.085938 L 14.546875 13.972656 Z M 14.613281 13.917969 "/>
<path fill-rule="nonzero" fill="rgb(79.607843%, 25.490196%, 63.137255%)" fill-opacity="1" d="M 7.503906 14.164062 L 7.515625 14.1875 L 7.46875 14.253906 L 7.289062 14.410156 L 7.265625 14.390625 L 7.359375 14.320312 L 7.46875 14.207031 Z M 7.503906 14.164062 "/>
<path fill-rule="nonzero" fill="rgb(20%, 19.215686%, 18.431373%)" fill-opacity="1" d="M 13.925781 5.726562 L 13.996094 5.726562 L 13.949219 5.738281 L 13.960938 5.792969 L 13.917969 5.804688 L 13.871094 5.78125 L 13.871094 5.738281 Z M 13.925781 5.726562 "/>
<path fill-rule="nonzero" fill="rgb(79.607843%, 25.490196%, 63.137255%)" fill-opacity="1" d="M 5.230469 5.488281 L 5.230469 5.523438 L 5.175781 5.589844 L 5.117188 5.613281 L 5.117188 5.636719 L 5.085938 5.625 Z M 5.230469 5.488281 "/>
<path fill-rule="nonzero" fill="rgb(20.784314%, 20%, 18.431373%)" fill-opacity="1" d="M 13.039062 13.726562 L 13.128906 13.792969 L 13.105469 13.816406 L 13.050781 13.792969 L 13.015625 13.757812 L 13.015625 13.734375 Z M 13.039062 13.726562 "/>
<path fill-rule="nonzero" fill="rgb(79.607843%, 25.490196%, 63.137255%)" fill-opacity="1" d="M 14.75 13.726562 L 14.761719 13.769531 L 14.679688 13.871094 L 14.636719 13.90625 L 14.636719 13.871094 L 14.660156 13.871094 L 14.660156 13.847656 L 14.679688 13.847656 L 14.703125 13.804688 Z M 14.75 13.726562 "/>
<path fill-rule="nonzero" fill="rgb(15.294118%, 18.431373%, 14.117647%)" fill-opacity="1" d="M 3.769531 5.570312 L 3.859375 5.578125 L 3.847656 5.613281 L 3.792969 5.625 Z M 3.769531 5.570312 "/>
<path fill-rule="nonzero" fill="rgb(80.392157%, 27.058824%, 63.921569%)" fill-opacity="1" d="M 2.339844 4.09375 L 2.363281 4.105469 L 2.316406 4.164062 L 2.261719 4.183594 L 2.261719 4.140625 Z M 2.339844 4.09375 "/>
<path fill-rule="nonzero" fill="rgb(79.607843%, 25.490196%, 63.137255%)" fill-opacity="1" d="M 8.03125 3.847656 L 8.132812 3.859375 L 8.144531 3.882812 L 8.019531 3.890625 L 8 3.882812 L 8 3.859375 Z M 8.03125 3.847656 "/>
<path fill-rule="nonzero" fill="rgb(70.980392%, 29.803922%, 54.117647%)" fill-opacity="1" d="M 1.269531 9.292969 L 1.28125 9.292969 L 1.28125 9.449219 L 1.261719 9.496094 L 1.25 9.496094 L 1.25 9.417969 L 1.269531 9.417969 Z M 1.269531 9.292969 "/>
<path fill-rule="nonzero" fill="rgb(79.607843%, 25.882353%, 63.137255%)" fill-opacity="1" d="M 5.398438 13.734375 L 5.445312 13.746094 L 5.457031 13.78125 L 5.367188 13.816406 L 5.378906 13.757812 L 5.398438 13.757812 Z M 5.398438 13.734375 "/>
<path fill-rule="nonzero" fill="rgb(79.607843%, 25.490196%, 63.137255%)" fill-opacity="1" d="M 12.984375 5.253906 L 13.027344 5.265625 L 13.015625 5.320312 L 12.949219 5.320312 L 12.972656 5.308594 Z M 12.984375 5.253906 "/>
</svg>
