<?xml version="1.0" encoding="UTF-8"?>
<svg version="1.1" viewBox="0 0 1600 1600" width="100" height="100" xmlns="http://www.w3.org/2000/svg">
<path transform="translate(295,234)" d="m0 0h965l37 1 11 2 9 5 10 8 6 5 7 8 7 7 11 14 5 10 2 9 1 37v759l-1 187-2 19-6 11-13 15-11 12-11 10-8 6-9 4-23 2h-961l-28-2-12-7-13-12-8-7-10-11-9-12-6-7-2-11-2-34-1-42v-585l1-116 1-213 4-15 7-11 10-11 7-8 9-9 8-7 7-6 7-4z" fill="#73CF52"/>
<path transform="translate(1137,509)" d="m0 0h12l10 3 14 9 12 9 14 11 5 4v2l4 2 14 14 8 11 4 9v9l-5 9-11 13-7 8-11 13-14 17-9 10-9 11-10 11-9 11-10 11-7 8-13 14-7 8-10 11-7 8-9 10-11 13-7 8-12 14-9 11-12 13-9 11-9 10-12 13-9 10-8 10h-2l-2 4-12 13-7 9-7 8-8 9-9 11-11 12-7 8-10 11-9 11-16 17-11 13-11 12-7 8-11 13-9 10-7 8-11 13-12 13-7 7-7 8-7 7-8 7-12 10-18 11-12 4h-12l-13-4-13-7-16-12-10-9-8-7-5-4v-2h-2v-2l-4-2-126-126v-2h-2v-2h-2l-6-7-59-59-6-7-8-7-52-52-14-16-10-16-3-9 1-10 7-12 11-14 25-25 11-9 11-8 10-5 11 1 10 5 13 10 11 9v2l4 2 8 8 8 7 37 37 13 12 38 38 4 3v2l4 2v2l3 1 5 6 8 7v2l3 1 5 6 7 6 7 8 5 4 5 5v2l3 1 5 6 4 3v2l4 2 4 4v2l4 2 8 7 7 8 9 8 7 8 11 11 7 9 8 3h3l2-5 6-9 11-13 24-28 12-13 9-11 13-15 36-42 9-10 9-11 7-7 7-8 12-14 9-10 7-8 12-14 9-11 12-13 9-11 14-15 7-8 12-14 13-14 7-8 11-13 36-42 13-15 13-14 7-8 9-10 7-8 15-16 12-11z" fill="#FDFDFD"/>
<path transform="translate(238,1291)" d="m0 0 6 3v5h2l5 7 4 2 7 1 8 3 4 1 2-4h3l4 3h14l3 1 16 1 7 1h15l5 1 23 1h33l22 1 8-1 28 1h57l24-1 5 1h8l6-1 14 1h34l10-1 3-1 3 1 22 1h31l5-1 20-1h62l10-1h46l21-1h12l13-1 5 1 6-1h83l9 1 40 1h15l5 1 8-1 11 1h55l13 1h41l5 1 4-1h28l14-1h20l6-1 9-1 14-1 13-1 11-3 8-1 10-1 9-4h2l1-3h7l4-2 3-1h8v-2h3l1 5 3 1 4 6-1 7 3 10-1 2 3 1-2 5-9 10-12 11-8 6-9 4-23 2h-961l-28-2-12-7-13-12-8-7-10-11-9-12-6-7v-6h2l-1-5h2z" fill="#41A816"/>
<path transform="translate(932,234)" d="m0 0h328l37 1 11 2 9 5 3 2 2 12-1 11-4 1-2 4-10 1-6-2-8 3-3 1-9-3h-5l-5-4-12-2-10-2v-2l-12 1v-2l-10-1-3-2-10-1-13-2-18-2-4-1v-2l-4 1h-13l-9-1h-10l-3-1-3 1-11-2h-8l-7 1-6-1h-56l-2-1h-9l-6 1h-11l-8-1h-11-4l-3 1-6-1h-36l-5-1h-52l-9-1-5 1-9-1-11-1-8 1-7-2-2 1-10-2v2h-10l-4-1-5 2v-2h-13l-14-2-6 1-14-1-3 1-4-1-15-1-3-1h-3l-9 1-7-1-4 1-5-1-14-1-8 1-9 1v-2h-22l-2-1-8 1h-9l-2-1h-15l-4 1-6-2v-1z" fill="#42A918"/>
<path transform="translate(233,384)" d="m0 0 4 2 2 18 1 17v11l1 7v8l-1 4 2 7 1 39v79l1 19v290l-1 14-1 9 2 1h-2v2l2 1-1 11h-1l-2 15-2 1-1-19h-3l-1-5 1-8v-7l-1-2v-13l1-5-2-8v-57l-1-34 1-4-1-13 1-4-1-2v-239l2-114 3-4-3-3 1-2h2l-3-6z" fill="#41A816"/>
<path transform="translate(600,1032)" d="m0 0 4 2 53 53 2 1v2h2v2l4 2 7 7 5 7-5-2-4-4v-2h-2v-2h-2v-2l-4-2-3-2v-2h-2v-2h-2l-7-8-5-4v-2h-2v-2h-2l-7-8v-2l-5-2-7-8v-2h-2l-4-5-6-5v-2h-2v-2h-2v-2h-2z" fill="#50B428"/>
<path transform="translate(230,635)" d="m0 0h1l1 42v82l1 2-1 4 1 16-3 1z" fill="#74D053"/>
<path transform="translate(1301,236)" d="m0 0 9 2 10 6-2 1-1 3-5-1-1-5v3l-9 1v-2l-3-1v-2l4-2v-2z" fill="#72CF51"/>
<path transform="translate(232,384)" d="m0 0 2 3 1 5 1 4-2 2v2l3 1-1 2h-2l-1 57h-1z" fill="#74D053"/>
<path transform="translate(237,316)" d="m0 0h1l1 7-2 7 1 7-2 5-1 6-2-1v-24l3-3z" fill="#41A816"/>
<path transform="translate(600,1032)" d="m0 0 4 2 15 15-3 1-4-5-6-5v-2h-2v-2h-2v-2h-2z" fill="#55B82E"/>
<path transform="translate(661,1092)" d="m0 0 4 2 7 7 5 7-5-2-4-4v-2h-2v-2h-2z" fill="#54B72D"/>
<path transform="translate(618,1050)" d="m0 0 4 2 9 9-3 1-10-10z" fill="#52B52A"/>
</svg>
