<?xml version="1.0" encoding="UTF-8"?>
<svg version="1.1" viewBox="0 0 1600 1600" width="100" height="100" xmlns="http://www.w3.org/2000/svg">
<path transform="translate(1112,165)" d="m0 0h116l37 1 19 1 19 3 15 4 22 9 15 9 14 10 11 9v2l4 2 2 4h2l11 14 9 13 8 14 8 17 6 19 2 15 1 19 1 55v725l-1 130-1 31-2 23-3 16-6 18-10 20-10 15-8 10-12 13-10 9-17 12-16 9-19 7-24 5-17 2-45 2-797 1h-92l-35-2-25-5-16-6-15-7-15-9-13-11-8-7-13-14-12-17-12-23-6-15-4-15-3-20-2-37v-925l2-17 3-12 7-19 8-16 10-17 11-15 4-5h2l2-4 4-4h2l1-3 14-11 15-10 21-10 18-6 18-3 9-1 25-1zm-516 67-258 1-23 1-16 3-12 5-12 8-11 9-7 7-9 14-8 14-4 13-2 14-1 58v893l3 26 6 16 10 14 10 11 11 9 11 7 14 6 17 3 28 2h917l18-1 20-4 19-9 11-8 12-11 6-7 9-15 4-11 4-22 1-12 1-38v-908l-3-17-6-16-8-13-12-14-12-10-13-8-9-4-12-3-8-1-24-1-232-1z"/>
</svg>
