<svg version="1.1" id="Layer_1" xmlns="http://www.w3.org/2000/svg" xmlns:xlink="http://www.w3.org/1999/xlink" x="0px" y="0px"
	 width="100%" viewBox="0 0 600 600" enable-background="new 0 0 600 600" xml:space="preserve">
<path fill="#000000" opacity="1.000000" stroke="none" 
	d="
M396.000000,601.000000 
	C264.000000,601.000000 132.500000,601.000000 1.000000,601.000000 
	C1.000000,401.000000 1.000000,201.000000 1.000000,1.000000 
	C201.000000,1.000000 401.000000,1.000000 601.000000,1.000000 
	C601.000000,201.000000 601.000000,401.000000 601.000000,601.000000 
	C532.833313,601.000000 464.666656,601.000000 396.000000,601.000000 
M350.794769,426.922638 
	C355.293762,427.206940 359.790741,427.555481 364.294189,427.693634 
	C364.853119,427.710785 365.446289,426.610870 366.957733,426.007233 
	C424.968597,426.007233 482.979462,426.007233 541.500061,426.007233 
	C541.500061,419.686920 541.500061,414.111633 541.500061,408.517242 
	C549.174377,408.517242 556.338196,408.517242 563.740662,408.517242 
	C563.740662,403.261017 563.740662,398.107788 564.712036,392.851227 
	C569.478149,392.845551 574.250488,392.693298 579.007996,392.892883 
	C581.582520,393.000946 582.651428,392.067627 582.897034,388.758850 
	C582.897034,359.838989 582.897034,330.919128 582.897034,301.317749 
	C575.837891,301.317749 569.452759,301.317749 562.515991,301.317749 
	C562.515991,277.246429 562.515991,253.855621 562.515991,230.524658 
	C550.692871,230.524658 539.456726,230.524658 527.831604,230.524658 
	C527.831604,235.665756 527.831604,240.443939 527.831604,245.838654 
	C521.741150,245.838654 516.023071,245.838654 509.789703,245.838654 
	C509.789703,252.854233 509.789703,259.252777 509.789703,266.057678 
	C503.989899,266.057678 498.731628,266.057678 493.006348,266.057678 
	C493.006348,271.562897 493.006348,276.648438 493.006348,281.776611 
	C467.823120,281.776611 443.131287,281.776611 417.927124,281.776611 
	C417.927124,276.669037 417.927124,271.930298 417.927124,266.748444 
	C412.661316,266.748444 407.905121,266.748444 403.012573,266.748444 
	C403.012573,259.490997 403.012573,252.694824 403.942078,245.787033 
	C409.526550,245.787033 415.110992,245.787033 421.220764,245.787033 
	C421.220764,252.347641 421.220764,258.529205 421.220764,264.834259 
	C430.495819,264.834259 439.237701,264.834259 448.908447,264.984314 
	C454.662903,264.984314 460.417358,264.984314 466.572815,264.984314 
	C466.572815,227.982819 466.572815,191.597717 466.572815,156.033524 
	C461.433960,159.730225 455.478699,157.075500 449.616394,157.855301 
	C449.616394,151.265274 449.616394,145.323792 449.616394,139.288040 
	C346.571228,139.288040 243.354523,139.288040 140.601654,139.288040 
	C140.601654,145.575409 140.601654,151.573730 140.601654,157.920410 
	C135.124634,157.920410 129.850662,157.920410 124.640686,157.920410 
	C123.199005,167.504379 124.149910,401.876617 125.670639,410.001282 
	C129.744217,410.001282 133.892441,410.147797 138.024612,409.953400 
	C141.142731,409.806671 142.196716,411.157410 142.111160,414.076721 
	C142.005310,417.688019 142.085815,421.304749 142.085815,424.389008 
	C150.119064,425.307556 157.521301,426.863953 164.928665,426.888702 
	C224.749054,427.088745 284.570404,427.003204 344.391449,426.989899 
	C346.217407,426.989502 348.043304,426.826569 350.794769,426.922638 
M107.069313,328.567291 
	C107.069313,326.458862 107.069313,324.350464 107.069313,321.790466 
	C88.431679,321.790466 70.378624,321.790466 52.000000,321.790466 
	C52.000000,309.722229 52.000000,298.109741 52.000000,285.966797 
	C41.488400,285.966797 31.305090,285.966797 21.072842,285.966797 
	C21.072842,297.289490 21.072842,308.507935 21.072842,320.154297 
	C26.192661,320.154297 30.958818,320.154297 36.315979,320.154297 
	C36.315979,326.309998 36.315979,332.047394 36.315979,338.305420 
	C49.159435,338.305420 61.401222,338.305420 74.063972,338.305420 
	C74.063972,344.759521 74.063972,350.684845 74.063972,356.715515 
	C85.233833,356.715515 95.961067,356.715515 107.069328,356.715515 
	C107.069328,347.474915 107.069328,338.515106 107.069313,328.567291 
M139.837662,428.486053 
	C129.044449,428.486053 118.251228,428.486053 107.324097,428.486053 
	C107.324097,439.945435 107.324097,450.963531 107.324097,461.920654 
	C119.007095,461.920654 130.284271,461.920654 141.368332,461.920654 
	C141.368332,450.926239 141.372696,440.173798 141.339981,429.421448 
	C141.339264,429.183075 140.915939,428.945984 139.837662,428.486053 
M493.426025,465.000427 
	C495.849518,465.000427 498.272980,465.000427 500.567657,465.000427 
	C500.567657,458.251648 500.567657,452.201752 500.567657,446.266113 
	C487.914551,446.266113 475.658264,446.266113 463.289673,446.266113 
	C463.289673,452.593597 463.289673,458.651947 463.289673,465.000427 
	C473.200104,465.000427 482.823212,465.000427 493.426025,465.000427 
M382.534119,447.577087 
	C379.789703,447.577087 377.045258,447.577087 374.263123,447.577087 
	C374.263123,453.886200 374.263123,459.303741 374.263123,464.750549 
	C386.929779,464.750549 399.332153,464.750549 411.838104,464.750549 
	C411.838104,458.959351 411.838104,453.422180 411.838104,447.576630 
	C402.145905,447.576630 392.837036,447.576630 382.534119,447.577087 
M198.641937,447.591278 
	C197.782791,448.156921 196.200195,448.695465 196.177841,449.292480 
	C195.981949,454.524414 196.064514,459.766785 196.064514,464.614929 
	C209.218292,464.614929 221.626221,464.614929 233.867752,464.614929 
	C233.867752,458.798889 233.867752,453.372742 233.867752,447.578766 
	C222.217453,447.578766 210.919800,447.578766 198.641937,447.591278 
z"/>
<path fill="#FF99FF" opacity="1.000000" stroke="none" 
	d="
M447.979614,264.834259 
	C439.237701,264.834259 430.495819,264.834259 421.220764,264.834259 
	C421.220764,258.529205 421.220764,252.347641 421.220764,245.787033 
	C415.110992,245.787033 409.526550,245.787033 403.473511,245.886551 
	C403.004974,245.986069 403.092194,245.996964 403.015503,245.538834 
	C402.959564,240.773315 402.980316,236.465927 403.459412,232.150635 
	C406.485931,232.142731 409.054077,232.142731 411.573212,232.142731 
	C411.573212,224.986267 411.573212,218.655441 411.573212,212.440704 
	C404.953156,212.440704 398.772858,212.440704 392.226532,212.440704 
	C392.226532,217.290222 392.226532,221.728134 391.769531,226.279587 
	C389.391907,226.393112 387.471222,226.393112 385.043182,226.393112 
	C385.043182,221.488220 385.043182,217.251953 385.043182,213.139816 
	C373.271881,213.139816 362.021118,213.139816 350.727386,213.139816 
	C350.727386,218.273834 350.727386,223.090286 350.280029,227.973572 
	C343.744965,228.040405 337.657288,228.040405 331.107239,228.040405 
	C331.107239,252.609970 331.107239,276.356476 331.107239,300.044189 
	C328.820862,300.291229 327.013550,300.486542 324.758392,300.567474 
	C320.856781,300.587952 317.402954,300.722778 313.654327,300.866180 
	C313.306854,301.243561 313.254181,301.612366 313.124817,302.445435 
	C313.099274,332.609833 313.150391,362.309998 313.148193,392.268616 
	C313.392426,392.625397 313.689911,392.723694 314.449341,392.904480 
	C320.280212,392.961487 325.649109,392.935974 331.132263,393.232544 
	C331.370361,393.986145 331.494232,394.417694 331.497437,395.307495 
	C331.296661,399.844482 331.216522,403.923218 330.659180,408.001038 
	C279.601013,408.000153 229.020096,408.000153 178.744919,408.000153 
	C177.894485,403.367096 178.454193,397.557312 176.131653,395.973083 
	C173.129791,393.925476 167.816284,395.024567 163.515656,395.199341 
	C160.022522,395.341370 158.799225,394.157990 158.972900,390.649170 
	C159.224213,385.571594 159.037247,380.472351 159.037247,374.877747 
	C152.636444,374.877747 147.046768,374.877747 140.869156,374.877747 
	C140.869156,372.401672 140.869156,370.452820 140.869156,368.503967 
	C140.869156,323.362793 140.869125,278.221649 140.869171,233.080490 
	C140.869186,221.586990 141.016525,210.090530 140.786682,198.601639 
	C140.710281,194.782227 141.991287,193.628296 145.660294,193.866608 
	C149.917175,194.143082 154.205811,193.931030 159.036545,193.931030 
	C159.036545,190.308121 159.036530,187.351395 159.036545,184.394653 
	C159.036560,175.069153 159.036575,175.069153 168.147247,175.069122 
	C171.233917,175.069107 174.320587,175.069122 177.983261,175.069122 
	C177.983261,167.662415 177.983261,161.093567 177.983261,154.402023 
	C255.924362,154.402023 333.257294,154.402023 411.139709,154.402023 
	C411.139709,161.374268 411.139709,167.958542 411.139709,175.118683 
	C417.581268,175.118683 423.491180,175.118683 430.022156,175.118683 
	C430.022156,181.585953 430.022156,187.482986 430.022156,194.130402 
	C436.342957,194.130402 442.041260,194.130402 447.979614,194.130402 
	C447.979614,218.214111 447.979614,241.524185 447.979614,264.834259 
M242.453308,372.843628 
	C244.615631,372.835419 246.813553,373.053955 248.925140,372.722504 
	C249.965927,372.559143 251.646118,371.408844 251.674210,370.654449 
	C251.899933,364.589478 251.800537,358.512451 251.800537,352.542786 
	C244.790512,352.542786 238.573914,352.542786 232.349609,352.542786 
	C232.349609,359.402557 232.349609,365.818115 232.349609,372.843292 
	C235.597488,372.843292 238.542694,372.843292 242.453308,372.843628 
M250.098465,254.535324 
	C250.098465,258.142242 250.098465,261.749146 250.098465,265.633087 
	C256.926300,265.633087 263.131500,265.633087 269.541016,265.633087 
	C269.541016,258.966187 269.541016,252.611908 269.541016,246.251785 
	C262.937500,246.251785 256.739258,246.251785 250.098648,246.251785 
	C250.098648,248.969482 250.098648,251.267929 250.098465,254.535324 
M267.003296,191.233566 
	C267.691223,192.142441 268.350525,193.812592 269.071655,193.839706 
	C274.814819,194.055786 280.569702,193.960220 286.784851,193.960220 
	C286.784851,187.657455 286.885254,182.034973 286.678833,176.423782 
	C286.647156,175.562164 285.228241,174.061600 284.406281,174.030334 
	C278.809113,173.817429 273.200043,173.918884 266.994690,173.918884 
	C266.994690,179.735992 266.994690,185.008820 267.003296,191.233566 
M340.973267,178.736710 
	C340.253632,177.514923 339.587555,175.275192 338.805756,175.234055 
	C333.075378,174.932495 327.321838,175.071350 321.149963,175.071350 
	C321.149963,181.264755 321.026093,186.725876 321.260834,192.171539 
	C321.304565,193.186005 322.751404,194.948288 323.613983,194.987915 
	C329.198883,195.244492 334.801270,195.119415 340.974823,195.119415 
	C340.974823,189.571396 340.974823,184.628036 340.973267,178.736710 
M185.561249,193.091400 
	C183.146103,193.091400 180.730972,193.091400 178.189972,193.091400 
	C178.189972,200.292175 178.189972,206.692825 178.189972,213.437714 
	C184.483505,213.437714 190.506165,213.437714 196.745972,213.437714 
	C196.745972,206.605957 196.745972,200.099701 196.745972,193.091583 
	C193.090530,193.091583 189.810318,193.091583 185.561249,193.091400 
M267.883636,315.377747 
	C267.975433,317.123779 268.067230,318.869781 268.155670,320.552002 
	C274.743591,320.552002 280.761078,320.552002 286.757935,320.552002 
	C286.757935,313.899078 286.757935,307.678619 286.757935,301.251160 
	C280.416534,301.251160 274.408295,301.251160 267.883331,301.251160 
	C267.883331,305.875122 267.883331,310.143494 267.883636,315.377747 
M214.003998,283.669006 
	C213.889374,282.243256 213.774734,280.817535 213.663452,279.433502 
	C207.209930,279.433502 201.184753,279.433502 194.809402,279.433502 
	C194.809402,285.291656 194.686020,290.747437 194.921417,296.187653 
	C194.964569,297.184906 196.428146,298.911285 197.300476,298.952972 
	C202.690643,299.210602 208.099258,299.082397 214.004227,299.082397 
	C214.004227,293.834137 214.004227,289.233887 214.003998,283.669006 
M200.034164,381.512207 
	C200.034164,378.441864 200.034164,375.371521 200.034164,372.392761 
	C193.185349,372.392761 187.162201,372.392761 181.171875,372.392761 
	C181.171875,379.056763 181.171875,385.272980 181.171875,391.677155 
	C187.537216,391.677155 193.551941,391.677155 200.034210,391.677155 
	C200.034210,388.386871 200.034210,385.436951 200.034164,381.512207 
M159.867371,332.433167 
	C159.867371,334.715363 159.867371,336.997559 159.867371,339.550812 
	C166.514145,339.550812 172.554001,339.550812 178.768677,339.550812 
	C178.768677,332.941345 178.768677,326.698486 178.768677,320.192322 
	C172.434235,320.192322 166.407730,320.192322 159.867126,320.192322 
	C159.867126,324.205231 159.867126,327.833191 159.867371,332.433167 
z"/>
<path fill="#989898" opacity="1.000000" stroke="none" 
	d="
M563.740662,392.954559 
	C563.740662,398.107788 563.740662,403.261017 563.740662,408.517242 
	C556.338196,408.517242 549.174377,408.517242 541.500061,408.517242 
	C541.500061,414.111633 541.500061,419.686920 541.500061,426.007233 
	C482.979462,426.007233 424.968597,426.007233 366.306213,425.969543 
	C365.654724,425.931885 365.284058,426.022522 365.229431,425.555298 
	C365.174835,419.680969 365.174835,414.273834 365.174835,408.259827 
	C359.574432,408.259827 354.500031,408.259827 349.481506,407.781189 
	C349.655212,402.500946 349.772949,397.699341 350.367737,392.917114 
	C360.294586,392.939850 369.748169,392.791565 379.192413,393.023132 
	C382.836304,393.112488 384.094879,392.121399 384.043457,388.314056 
	C383.891266,377.050201 384.143616,365.780914 384.691711,354.531067 
	C396.232574,354.548431 407.319458,354.548431 418.557983,354.548431 
	C418.557983,342.749634 418.557983,331.534515 418.557983,320.028687 
	C413.330994,320.028687 408.388214,320.028687 402.949097,319.990234 
	C396.574768,319.951782 390.696777,319.951782 384.008148,319.951782 
	C384.008148,327.079620 384.008148,333.621216 384.087708,340.611572 
	C384.124298,345.394989 384.081299,349.729584 383.568359,354.028503 
	C372.223938,353.992767 361.349457,353.992767 349.764526,353.992767 
	C349.764526,367.262726 349.764526,379.827728 349.325531,392.271606 
	C343.262177,392.171661 337.637817,392.192780 331.786804,392.100342 
	C331.405884,391.917664 331.251648,391.848541 331.154755,391.327454 
	C331.175323,361.310516 331.138519,331.745514 331.535492,302.004883 
	C338.371521,301.829254 344.773773,301.829254 351.532104,301.829254 
	C351.532104,298.965118 351.532135,297.155487 351.532135,295.345856 
	C351.532104,274.878204 351.516571,254.410507 351.556976,233.942917 
	C351.560852,231.975937 351.912537,230.009628 352.561523,228.096069 
	C362.964417,228.149109 372.908630,228.149109 383.499939,228.149109 
	C383.499939,234.443726 383.499939,240.146439 383.499939,245.996964 
	C390.467316,245.996964 396.779755,245.996964 403.092194,245.996964 
	C403.092194,245.996964 403.004974,245.986069 403.008789,245.942368 
	C403.012573,252.694824 403.012573,259.490997 403.012573,266.748444 
	C407.905121,266.748444 412.661316,266.748444 417.927124,266.748444 
	C417.927124,271.930298 417.927124,276.669037 417.927124,281.776611 
	C443.131287,281.776611 467.823120,281.776611 493.006348,281.776611 
	C493.006348,276.648438 493.006348,271.562897 493.006348,266.057678 
	C498.731628,266.057678 503.989899,266.057678 509.789703,266.057678 
	C509.789703,259.252777 509.789703,252.854233 509.789703,245.838654 
	C516.023071,245.838654 521.741150,245.838654 527.831604,245.838654 
	C527.831604,240.443939 527.831604,235.665756 527.831604,230.524658 
	C539.456726,230.524658 550.692871,230.524658 562.515991,230.524658 
	C562.515991,253.855621 562.515991,277.246429 562.515991,301.317749 
	C569.452759,301.317749 575.837891,301.317749 582.897034,301.317749 
	C582.897034,330.919128 582.897034,359.838989 582.579346,388.688049 
	C582.261658,377.211609 582.261658,365.805969 582.261658,353.948425 
	C570.466125,353.948425 559.679016,353.855957 548.899475,354.098846 
	C547.879517,354.121796 546.068176,356.232086 546.043457,357.403107 
	C545.819519,368.048676 545.983032,378.701660 545.863586,389.350616 
	C545.830566,392.294647 547.098022,393.056000 549.765503,392.981628 
	C554.420532,392.851746 559.081909,392.951202 563.740662,392.954559 
M509.446533,340.727631 
	C509.446533,345.162537 509.446533,349.597443 509.446533,354.317474 
	C520.876892,354.317474 532.108521,354.317474 543.576050,354.317474 
	C543.576050,342.793610 543.576050,331.567200 543.576050,320.014160 
	C538.351685,320.014160 533.403198,320.014160 527.589294,320.009430 
	C521.727905,320.009430 515.866516,320.009430 509.937866,320.009430 
	C509.937866,327.231964 509.937866,333.652405 509.446533,340.727631 
M517.588989,371.749939 
	C515.665894,371.749939 513.742737,371.749939 511.333160,371.749939 
	C511.333160,378.723877 511.333160,384.987030 511.333160,391.378113 
	C498.496521,391.378113 486.160583,391.378113 473.325562,391.378113 
	C473.325562,384.677765 473.325562,378.416351 473.325562,372.118469 
	C467.921783,372.118469 463.032379,372.118469 457.680939,372.118469 
	C457.680939,378.734192 457.680939,384.992981 457.680939,391.456421 
	C444.350281,391.456421 431.491638,391.456421 417.996948,391.456421 
	C417.996948,384.716064 417.996948,378.324585 417.996948,372.027527 
	C412.579041,372.027527 407.803223,372.027527 402.234985,372.027527 
	C402.234985,382.588104 402.452881,392.887543 402.134888,403.170410 
	C401.994507,407.709381 403.580658,408.707153 407.868744,408.689758 
	C446.335266,408.533630 484.802734,408.601807 523.269897,408.587433 
	C524.878418,408.586823 526.486938,408.422211 528.856873,408.292267 
	C528.107788,395.950104 527.385010,384.040131 526.639038,371.749756 
	C523.828125,371.749756 521.192627,371.749756 517.588989,371.749939 
M490.060974,353.738403 
	C490.440674,348.602295 490.820343,343.466156 491.206604,338.241241 
	C484.998962,338.241241 479.756531,338.241241 474.406921,338.241241 
	C474.406921,343.545319 474.406921,348.576874 474.406921,353.904663 
	C479.550232,353.904663 484.345215,353.904663 490.060974,353.738403 
z"/>
<path fill="#FECB99" opacity="1.000000" stroke="none" 
	d="
M448.444031,264.909302 
	C447.979614,241.524185 447.979614,218.214111 447.979614,194.130402 
	C442.041260,194.130402 436.342957,194.130402 430.022156,194.130402 
	C430.022156,187.482986 430.022156,181.585953 430.022156,175.118683 
	C423.491180,175.118683 417.581268,175.118683 411.139709,175.118683 
	C411.139709,167.958542 411.139709,161.374268 411.139709,154.402023 
	C333.257294,154.402023 255.924362,154.402023 177.983261,154.402023 
	C177.983261,161.093567 177.983261,167.662415 177.983261,175.069122 
	C174.320587,175.069122 171.233917,175.069107 168.147247,175.069122 
	C159.036575,175.069153 159.036560,175.069153 159.036545,184.394653 
	C159.036530,187.351395 159.036545,190.308121 159.036545,193.931030 
	C154.205811,193.931030 149.917175,194.143082 145.660294,193.866608 
	C141.991287,193.628296 140.710281,194.782227 140.786682,198.601639 
	C141.016525,210.090530 140.869186,221.586990 140.869171,233.080490 
	C140.869125,278.221649 140.869156,323.362793 140.869156,368.503967 
	C140.869156,370.452820 140.869156,372.401672 140.869156,374.877747 
	C147.046768,374.877747 152.636444,374.877747 159.037247,374.877747 
	C159.037247,380.472351 159.224213,385.571594 158.972900,390.649170 
	C158.799225,394.157990 160.022522,395.341370 163.515656,395.199341 
	C167.816284,395.024567 173.129791,393.925476 176.131653,395.973083 
	C178.454193,397.557312 177.894485,403.367096 178.744919,408.000153 
	C229.020096,408.000153 279.601013,408.000153 330.793579,408.377472 
	C332.407043,409.461304 333.390137,410.743011 334.413971,410.776398 
	C339.289032,410.935333 344.175201,410.754791 349.227356,411.096466 
	C349.576294,416.379913 349.755280,421.261993 349.850769,426.285522 
	C349.767242,426.427032 349.869232,426.739380 349.869232,426.739380 
	C348.043304,426.826569 346.217407,426.989502 344.391449,426.989899 
	C284.570404,427.003204 224.749054,427.088745 164.928665,426.888702 
	C157.521301,426.863953 150.119064,425.307556 142.085815,424.389008 
	C142.085815,421.304749 142.005310,417.688019 142.111160,414.076721 
	C142.196716,411.157410 141.142731,409.806671 138.024612,409.953400 
	C133.892441,410.147797 129.744217,410.001282 125.670639,410.001282 
	C124.149910,401.876617 123.199005,167.504379 124.640686,157.920410 
	C129.850662,157.920410 135.124634,157.920410 140.601654,157.920410 
	C140.601654,151.573730 140.601654,145.575409 140.601654,139.288040 
	C243.354523,139.288040 346.571228,139.288040 449.616394,139.288040 
	C449.616394,145.323792 449.616394,151.265274 449.616394,157.855301 
	C455.478699,157.075500 461.433960,159.730225 466.572815,156.033524 
	C466.572815,191.597717 466.572815,227.982819 466.572815,264.984314 
	C460.417358,264.984314 454.662903,264.984314 448.444031,264.909302 
z"/>
<path fill="#999999" opacity="1.000000" stroke="none" 
	d="
M107.069321,329.061279 
	C107.069328,338.515106 107.069328,347.474915 107.069328,356.715515 
	C95.961067,356.715515 85.233833,356.715515 74.063972,356.715515 
	C74.063972,350.684845 74.063972,344.759521 74.063972,338.305420 
	C61.401222,338.305420 49.159435,338.305420 36.315979,338.305420 
	C36.315979,332.047394 36.315979,326.309998 36.315979,320.154297 
	C30.958818,320.154297 26.192661,320.154297 21.072842,320.154297 
	C21.072842,308.507935 21.072842,297.289490 21.072842,285.966797 
	C31.305090,285.966797 41.488400,285.966797 52.000000,285.966797 
	C52.000000,298.109741 52.000000,309.722229 52.000000,321.790466 
	C70.378624,321.790466 88.431679,321.790466 107.069313,321.790466 
	C107.069313,324.350464 107.069313,326.458862 107.069321,329.061279 
z"/>
<path fill="#FE9898" opacity="1.000000" stroke="none" 
	d="
M564.226318,392.902893 
	C559.081909,392.951202 554.420532,392.851746 549.765503,392.981628 
	C547.098022,393.056000 545.830566,392.294647 545.863586,389.350616 
	C545.983032,378.701660 545.819519,368.048676 546.043457,357.403107 
	C546.068176,356.232086 547.879517,354.121796 548.899475,354.098846 
	C559.679016,353.855957 570.466125,353.948425 582.261658,353.948425 
	C582.261658,365.805969 582.261658,377.211609 582.427979,389.109741 
	C582.651428,392.067627 581.582520,393.000946 579.007996,392.892883 
	C574.250488,392.693298 569.478149,392.845551 564.226318,392.902893 
z"/>
<path fill="#989898" opacity="1.000000" stroke="none" 
	d="
M140.263702,428.597168 
	C140.915939,428.945984 141.339264,429.183075 141.339981,429.421448 
	C141.372696,440.173798 141.368332,450.926239 141.368332,461.920654 
	C130.284271,461.920654 119.007095,461.920654 107.324097,461.920654 
	C107.324097,450.963531 107.324097,439.945435 107.324097,428.486053 
	C118.251228,428.486053 129.044449,428.486053 140.263702,428.597168 
z"/>
<path fill="#999999" opacity="1.000000" stroke="none" 
	d="
M492.936157,465.000427 
	C482.823212,465.000427 473.200104,465.000427 463.289673,465.000427 
	C463.289673,458.651947 463.289673,452.593597 463.289673,446.266113 
	C475.658264,446.266113 487.914551,446.266113 500.567657,446.266113 
	C500.567657,452.201752 500.567657,458.251648 500.567657,465.000427 
	C498.272980,465.000427 495.849518,465.000427 492.936157,465.000427 
z"/>
<path fill="#999999" opacity="1.000000" stroke="none" 
	d="
M383.031128,447.576843 
	C392.837036,447.576630 402.145905,447.576630 411.838104,447.576630 
	C411.838104,453.422180 411.838104,458.959351 411.838104,464.750549 
	C399.332153,464.750549 386.929779,464.750549 374.263123,464.750549 
	C374.263123,459.303741 374.263123,453.886200 374.263123,447.577087 
	C377.045258,447.577087 379.789703,447.577087 383.031128,447.576843 
z"/>
<path fill="#999999" opacity="1.000000" stroke="none" 
	d="
M199.132050,447.585022 
	C210.919800,447.578766 222.217453,447.578766 233.867752,447.578766 
	C233.867752,453.372742 233.867752,458.798889 233.867752,464.614929 
	C221.626221,464.614929 209.218292,464.614929 196.064514,464.614929 
	C196.064514,459.766785 195.981949,454.524414 196.177841,449.292480 
	C196.200195,448.695465 197.782791,448.156921 199.132050,447.585022 
z"/>
<path fill="#776D63" opacity="1.000000" stroke="none" 
	d="
M350.332001,426.830994 
	C349.869232,426.739380 349.767242,426.427032 350.319824,426.252686 
	C355.676300,426.059723 360.480194,426.041107 365.284058,426.022522 
	C365.284058,426.022522 365.654724,425.931885 365.839142,425.980225 
	C365.446289,426.610870 364.853119,427.710785 364.294189,427.693634 
	C359.790741,427.555481 355.293762,427.206940 350.332001,426.830994 
z"/>
<path fill="#020102" opacity="1.000000" stroke="none" 
	d="
M331.101685,302.180511 
	C331.138519,331.745514 331.175323,361.310516 331.118713,391.609283 
	C331.022888,392.532196 331.020447,392.721344 331.018005,392.910461 
	C325.649109,392.935974 320.280212,392.961487 314.359558,392.732910 
	C313.651489,392.263336 313.449402,392.107117 313.201538,392.010162 
	C313.150391,362.309998 313.099274,332.609833 313.311829,302.304932 
	C313.797638,301.462616 313.922180,301.181763 313.949158,300.857605 
	C317.402954,300.722778 320.856781,300.587952 325.082214,300.692322 
	C327.603119,301.347870 329.352417,301.764191 331.101685,302.180511 
z"/>
<path fill="#070507" opacity="1.000000" stroke="none" 
	d="
M331.535461,302.004883 
	C329.352417,301.764191 327.603119,301.347870 325.530029,300.806702 
	C327.013550,300.486542 328.820862,300.291229 331.107239,300.044189 
	C331.107239,276.356476 331.107239,252.609970 331.107239,228.040405 
	C337.657288,228.040405 343.744965,228.040405 350.624084,228.005402 
	C351.644653,227.994614 351.873718,228.018814 352.102783,228.043015 
	C351.912537,230.009628 351.560852,231.975937 351.556976,233.942917 
	C351.516571,254.410507 351.532104,274.878204 351.532135,295.345856 
	C351.532135,297.155487 351.532104,298.965118 351.532104,301.829254 
	C344.773773,301.829254 338.371521,301.829254 331.535461,302.004883 
z"/>
<path fill="#050304" opacity="1.000000" stroke="none" 
	d="
M352.561523,228.096069 
	C351.873718,228.018814 351.644653,227.994614 351.071472,227.938583 
	C350.727386,223.090286 350.727386,218.273834 350.727386,213.139816 
	C362.021118,213.139816 373.271881,213.139816 385.043182,213.139816 
	C385.043182,217.251953 385.043182,221.488220 385.043182,226.393112 
	C387.471222,226.393112 389.391907,226.393112 392.188202,226.393158 
	C396.104614,226.393204 399.145386,226.393204 402.352417,226.393204 
	C402.610748,228.689331 402.805908,230.423935 403.001068,232.158539 
	C402.980316,236.465927 402.959564,240.773315 403.015503,245.538834 
	C396.779755,245.996964 390.467316,245.996964 383.499939,245.996964 
	C383.499939,240.146439 383.499939,234.443726 383.499939,228.149109 
	C372.908630,228.149109 362.964417,228.149109 352.561523,228.096069 
z"/>
<path fill="#FF399F" opacity="1.000000" stroke="none" 
	d="
M241.970612,372.843445 
	C238.542694,372.843292 235.597488,372.843292 232.349609,372.843292 
	C232.349609,365.818115 232.349609,359.402557 232.349609,352.542786 
	C238.573914,352.542786 244.790512,352.542786 251.800537,352.542786 
	C251.800537,358.512451 251.899933,364.589478 251.674210,370.654449 
	C251.646118,371.408844 249.965927,372.559143 248.925140,372.722504 
	C246.813553,373.053955 244.615631,372.835419 241.970612,372.843445 
z"/>
<path fill="#FF369C" opacity="1.000000" stroke="none" 
	d="
M250.098557,254.050842 
	C250.098648,251.267929 250.098648,248.969482 250.098648,246.251785 
	C256.739258,246.251785 262.937500,246.251785 269.541016,246.251785 
	C269.541016,252.611908 269.541016,258.966187 269.541016,265.633087 
	C263.131500,265.633087 256.926300,265.633087 250.098465,265.633087 
	C250.098465,261.749146 250.098465,258.142242 250.098557,254.050842 
z"/>
<path fill="#FF359C" opacity="1.000000" stroke="none" 
	d="
M266.998993,190.757599 
	C266.994690,185.008820 266.994690,179.735992 266.994690,173.918884 
	C273.200043,173.918884 278.809113,173.817429 284.406281,174.030334 
	C285.228241,174.061600 286.647156,175.562164 286.678833,176.423782 
	C286.885254,182.034973 286.784851,187.657455 286.784851,193.960220 
	C280.569702,193.960220 274.814819,194.055786 269.071655,193.839706 
	C268.350525,193.812592 267.691223,192.142441 266.998993,190.757599 
z"/>
<path fill="#FF369C" opacity="1.000000" stroke="none" 
	d="
M340.974060,179.210693 
	C340.974823,184.628036 340.974823,189.571396 340.974823,195.119415 
	C334.801270,195.119415 329.198883,195.244492 323.613983,194.987915 
	C322.751404,194.948288 321.304565,193.186005 321.260834,192.171539 
	C321.026093,186.725876 321.149963,181.264755 321.149963,175.071350 
	C327.321838,175.071350 333.075378,174.932495 338.805756,175.234055 
	C339.587555,175.275192 340.253632,177.514923 340.974060,179.210693 
z"/>
<path fill="#FF349A" opacity="1.000000" stroke="none" 
	d="
M186.045670,193.091492 
	C189.810318,193.091583 193.090530,193.091583 196.745972,193.091583 
	C196.745972,200.099701 196.745972,206.605957 196.745972,213.437714 
	C190.506165,213.437714 184.483505,213.437714 178.189972,213.437714 
	C178.189972,206.692825 178.189972,200.292175 178.189972,193.091400 
	C180.730972,193.091400 183.146103,193.091400 186.045670,193.091492 
z"/>
<path fill="#FF3399" opacity="1.000000" stroke="none" 
	d="
M267.883484,314.894836 
	C267.883331,310.143494 267.883331,305.875122 267.883331,301.251160 
	C274.408295,301.251160 280.416534,301.251160 286.757935,301.251160 
	C286.757935,307.678619 286.757935,313.899078 286.757935,320.552002 
	C280.761078,320.552002 274.743591,320.552002 268.155670,320.552002 
	C268.067230,318.869781 267.975433,317.123779 267.883484,314.894836 
z"/>
<path fill="#FF3399" opacity="1.000000" stroke="none" 
	d="
M214.004120,284.151337 
	C214.004227,289.233887 214.004227,293.834137 214.004227,299.082397 
	C208.099258,299.082397 202.690643,299.210602 197.300476,298.952972 
	C196.428146,298.911285 194.964569,297.184906 194.921417,296.187653 
	C194.686020,290.747437 194.809402,285.291656 194.809402,279.433502 
	C201.184753,279.433502 207.209930,279.433502 213.663452,279.433502 
	C213.774734,280.817535 213.889374,282.243256 214.004120,284.151337 
z"/>
<path fill="#FF3399" opacity="1.000000" stroke="none" 
	d="
M200.034180,381.999603 
	C200.034210,385.436951 200.034210,388.386871 200.034210,391.677155 
	C193.551941,391.677155 187.537216,391.677155 181.171875,391.677155 
	C181.171875,385.272980 181.171875,379.056763 181.171875,372.392761 
	C187.162201,372.392761 193.185349,372.392761 200.034164,372.392761 
	C200.034164,375.371521 200.034164,378.441864 200.034180,381.999603 
z"/>
<path fill="#FF349A" opacity="1.000000" stroke="none" 
	d="
M159.867249,331.947144 
	C159.867126,327.833191 159.867126,324.205231 159.867126,320.192322 
	C166.407730,320.192322 172.434235,320.192322 178.768677,320.192322 
	C178.768677,326.698486 178.768677,332.941345 178.768677,339.550812 
	C172.554001,339.550812 166.514145,339.550812 159.867371,339.550812 
	C159.867371,336.997559 159.867371,334.715363 159.867249,331.947144 
z"/>
<path fill="#020102" opacity="1.000000" stroke="none" 
	d="
M349.057404,410.695068 
	C344.175201,410.754791 339.289032,410.935333 334.413971,410.776398 
	C333.390137,410.743011 332.407043,409.461304 331.270813,408.378357 
	C331.216522,403.923218 331.296661,399.844482 331.641815,395.077118 
	C331.942383,393.663635 331.977905,392.938751 332.013428,392.213898 
	C337.637817,392.192780 343.262177,392.171661 349.313782,392.408325 
	C349.741028,392.666138 349.890717,392.897705 349.890717,392.897705 
	C349.772949,397.699341 349.655212,402.500946 349.336243,407.987366 
	C349.109192,409.346466 349.083313,410.020782 349.057404,410.695068 
z"/>
<path fill="#FC369A" opacity="1.000000" stroke="none" 
	d="
M403.459412,232.150635 
	C402.805908,230.423935 402.610748,228.689331 402.352417,226.393204 
	C399.145386,226.393204 396.104614,226.393204 392.645203,226.279633 
	C392.226532,221.728134 392.226532,217.290222 392.226532,212.440704 
	C398.772858,212.440704 404.953156,212.440704 411.573212,212.440704 
	C411.573212,218.655441 411.573212,224.986267 411.573212,232.142731 
	C409.054077,232.142731 406.485931,232.142731 403.459412,232.150635 
z"/>
<path fill="#0B0A09" opacity="1.000000" stroke="none" 
	d="
M331.786774,392.100342 
	C331.977905,392.938751 331.942383,393.663635 331.762451,394.618866 
	C331.494232,394.417694 331.370361,393.986145 331.132263,393.232544 
	C331.020447,392.721344 331.022888,392.532196 331.061340,392.061218 
	C331.251648,391.848541 331.405884,391.917664 331.786774,392.100342 
z"/>
<path fill="#070507" opacity="1.000000" stroke="none" 
	d="
M313.654327,300.866211 
	C313.922180,301.181763 313.797638,301.462616 313.388519,301.840668 
	C313.254181,301.612366 313.306854,301.243561 313.654327,300.866211 
z"/>
<path fill="#070507" opacity="1.000000" stroke="none" 
	d="
M313.148224,392.268616 
	C313.449402,392.107117 313.651489,392.263336 313.897583,392.650391 
	C313.689911,392.723694 313.392426,392.625397 313.148224,392.268616 
z"/>
<path fill="#040404" opacity="1.000000" stroke="none" 
	d="
M518.073059,371.749847 
	C521.192627,371.749756 523.828125,371.749756 526.639038,371.749756 
	C527.385010,384.040131 528.107788,395.950104 528.856873,408.292267 
	C526.486938,408.422211 524.878418,408.586823 523.269897,408.587433 
	C484.802734,408.601807 446.335266,408.533630 407.868744,408.689758 
	C403.580658,408.707153 401.994507,407.709381 402.134888,403.170410 
	C402.452881,392.887543 402.234985,382.588104 402.234985,372.027527 
	C407.803223,372.027527 412.579041,372.027527 417.996948,372.027527 
	C417.996948,378.324585 417.996948,384.716064 417.996948,391.456421 
	C431.491638,391.456421 444.350281,391.456421 457.680939,391.456421 
	C457.680939,384.992981 457.680939,378.734192 457.680939,372.118469 
	C463.032379,372.118469 467.921783,372.118469 473.325562,372.118469 
	C473.325562,378.416351 473.325562,384.677765 473.325562,391.378113 
	C486.160583,391.378113 498.496521,391.378113 511.333160,391.378113 
	C511.333160,384.987030 511.333160,378.723877 511.333160,371.749939 
	C513.742737,371.749939 515.665894,371.749939 518.073059,371.749847 
z"/>
<path fill="#FE9999" opacity="1.000000" stroke="none" 
	d="
M350.367737,392.917114 
	C349.890717,392.897705 349.741028,392.666138 349.752777,392.529419 
	C349.764526,379.827728 349.764526,367.262726 349.764526,353.992767 
	C361.349457,353.992767 372.223938,353.992767 383.657257,354.123077 
	C384.216095,354.253387 384.237732,354.513733 384.237732,354.513733 
	C384.143616,365.780914 383.891266,377.050201 384.043457,388.314056 
	C384.094879,392.121399 382.836304,393.112488 379.192413,393.023132 
	C369.748169,392.791565 360.294586,392.939850 350.367737,392.917114 
z"/>
<path fill="#070707" opacity="1.000000" stroke="none" 
	d="
M384.691711,354.531067 
	C384.237732,354.513733 384.216095,354.253387 384.127197,354.158813 
	C384.081299,349.729584 384.124298,345.394989 384.555634,340.600159 
	C390.997467,340.139984 397.050934,340.139984 403.445435,340.139984 
	C403.445435,333.131195 403.445435,326.579926 403.445435,320.028687 
	C408.388214,320.028687 413.330994,320.028687 418.557983,320.028687 
	C418.557983,331.534515 418.557983,342.749634 418.557983,354.548431 
	C407.319458,354.548431 396.232574,354.548431 384.691711,354.531067 
z"/>
<path fill="#070707" opacity="1.000000" stroke="none" 
	d="
M528.454712,320.014160 
	C533.403198,320.014160 538.351685,320.014160 543.576050,320.014160 
	C543.576050,331.567200 543.576050,342.793610 543.576050,354.317474 
	C532.108521,354.317474 520.876892,354.317474 509.446533,354.317474 
	C509.446533,349.597443 509.446533,345.162537 510.163177,340.438232 
	C516.612488,340.148804 522.345154,340.148804 528.454712,340.148804 
	C528.454712,333.150818 528.454712,326.582489 528.454712,320.014160 
z"/>
<path fill="#FCFCFC" opacity="1.000000" stroke="none" 
	d="
M402.949097,319.990234 
	C403.445435,326.579926 403.445435,333.131195 403.445435,340.139984 
	C397.050934,340.139984 390.997467,340.139984 384.476074,340.151398 
	C384.008148,333.621216 384.008148,327.079620 384.008148,319.951782 
	C390.696777,319.951782 396.574768,319.951782 402.949097,319.990234 
z"/>
<path fill="#FFFFFF" opacity="1.000000" stroke="none" 
	d="
M528.021973,320.011780 
	C528.454712,326.582489 528.454712,333.150818 528.454712,340.148804 
	C522.345154,340.148804 516.612488,340.148804 510.408844,340.110840 
	C509.937866,333.652405 509.937866,327.231964 509.937866,320.009430 
	C515.866516,320.009430 521.727905,320.009430 528.021973,320.011780 
z"/>
<path fill="#0B0A09" opacity="1.000000" stroke="none" 
	d="
M349.227356,411.096466 
	C349.083313,410.020782 349.109192,409.346466 349.280334,408.466003 
	C354.500031,408.259827 359.574432,408.259827 365.174835,408.259827 
	C365.174835,414.273834 365.174835,419.680969 365.229431,425.555298 
	C360.480194,426.041107 355.676300,426.059723 350.403351,426.111176 
	C349.755280,421.261993 349.576294,416.379913 349.227356,411.096466 
z"/>
<path fill="#040404" opacity="1.000000" stroke="none" 
	d="
M489.600586,353.821533 
	C484.345215,353.904663 479.550232,353.904663 474.406921,353.904663 
	C474.406921,348.576874 474.406921,343.545319 474.406921,338.241241 
	C479.756531,338.241241 484.998962,338.241241 491.206604,338.241241 
	C490.820343,343.466156 490.440674,348.602295 489.600586,353.821533 
z"/>
</svg>