<?xml version="1.0" encoding="UTF-8"?>
<svg version="1.1" viewBox="0 0 2048 2048" width="128" height="128" xmlns="http://www.w3.org/2000/svg">
<path transform="translate(441,351)" d="m0 0h126l33 1 26 2 11 4 11 8 11 13 7 14 4 16 2 26v24l-2 31-4 15-7 12-10 11-13 9-9 3-8 1-19 1-183 2-17 2-6 4-4 5-4 10-1 8-1 31-1 337v498l1 37 3 13 4 6 5 4 16 3 25 1h354l7-1 1-86 1-18 2-9 6-11 10-13 8-8 14-9 10-4 4-1h15l15 4 15 6 40 20 22 12 35 18 22 12 41 21 22 12 31 16 19 10 34 18 23 13 15 10 9 7 10 9 11 15 8 15 5 16 2 14v19l-2 13-5 15-8 15-7 10-8 9-11 9-18 12-18 10-25 13-19 10-39 20-27 14-22 12-16 8-27 14-28 15-31 16-14 8-23 11-20 8-10 2h-15l-12-3-14-7-11-9-11-15-5-12-2-12-1-32v-69l-388-1-27-2-20-3-19-5-19-7-17-8-18-11-16-13-8-7-20-20-11-14-9-13-11-19-9-20-7-21-4-20-2-16-1-15-1-36-1-115v-527l1-226 1-23 3-23 5-19 8-21 9-19 12-20 13-17 11-13 14-14 11-9 18-13 16-9 19-9 21-7 21-4 26-3zm35 63-55 1-27 2-22 4-23 8-17 9-14 10-13 11-9 9-13 18-9 16-7 16-6 18-3 15-2 18-1 19-1 158v717l2 28 4 22 8 23 8 16 12 17 12 13 10 10 11 9 14 9 15 8 24 8 28 4 18 1h378l2-1v-40l-1-23-24-1h-336l-34-1-16-2-15-5-14-8-13-11-10-12-8-14-5-13-3-16-1-13-1-130v-94l1-648 1-34 2-13 5-15 7-12 9-12 4-5 8-7 10-8 13-6 17-4 21-2 33-1h152l6-2 1-18v-43l-5-2-41-1z" fill="#8B2CFC"/>
<path transform="translate(1172,192)" d="m0 0h19l13 3 15 8 9 8 8 11 6 12 3 11 2 23v84l208-1h156l34 2 28 3 20 4 21 7 25 12 16 10 13 10 10 8 10 9 12 12 13 17 10 15 13 25 8 20 5 18 3 18 2 26 1 88v259l-1 527-1 36-2 30-5 26-8 24-9 19-8 14-12 16-8 10-11 12-7 7-11 9-10 8-13 9-17 10-20 8-18 6-23 5-29 3-21 1h-186l-15-2-13-5-10-8-7-7-8-13-4-10-2-10v-69l2-18 3-10 6-11 12-13 14-10 6-2 7-1 19-1 162-1 26-1 13-2 6-4 5-6 3-8 2-20 1-257v-285l-1-251-1-100-3-14-5-7-9-3-10-1-39-1h-348l1 14v30l-1 47-2 18-4 11-6 11-11 13-7 6-12 6-16 3h-13l-17-4-19-8-19-10-31-16-22-12-25-13-22-12-60-32-27-14-19-10-41-21-24-14-13-10-10-9-7-7-9-14-8-19-3-12-1-7v-19l3-18 4-12 7-14 7-10 5-6 16-14 17-11 27-15 22-12 60-31 22-12 25-13 22-12 34-18 27-14 19-10 23-12 19-9zm188 222-113 1-1 10v32l1 22 2 1h357l36 2 19 3 13 5 12 7 11 9 10 11 8 13 6 13 3 16 1 15 1 86v88l-1 700-1 30-2 20-5 16-7 12-8 10-8 8-10 7-14 7-15 4-16 2-16 1-54 1h-126l-4 2-1 6-1 30v18l1 7 5 2h188l22-2 24-5 15-5 14-6 16-10 11-9 12-11 7-7 13-17 9-15 6-15 5-18 3-15 2-23 1-54v-836l-2-30-3-18-5-16-7-16-9-16-9-12-11-13-7-7-17-13-19-11-18-7-26-6-15-2-35-2z" fill="#2E4BFC"/>
<path transform="translate(1662,582)" d="m0 0h1l1 7 1 18 2 156 2 4h2l1-6 1-5 2-2 1 8 5 8 1 8 3 10v3l2-1 1-3 1-11 3-7-1-6-2-4 1-3-5-5v-8l3-1 1-2h2v-8l2-4 2-16 5-4v-4h-2l-1-3 6-1 2-1 3-6v-7l3-7 2-7 7-1-1-5 1-6h1l1 35-1 3 4 1 1-39h1v88l-1 700-1 30-2 20-5 16-7 12-8 10-9 9-10 7-14 7-15 4-16 2-16 1-54 1h-126l-3 1-1 6-1 30v18l1 7 4 1h188l22-2 24-5 15-5 14-6 16-10 11-9 12-11 10-11 11-15 9-16 8-24 4-20 2-23 1-54v-82l1-728 2 2v53l1 89 2 3 2 5 8-2 3 5 2 6v5l5 2-1-5 2-2 5 1 5-2 3 1v-2l3-2 1-9 2-3h2l2-5 2-2-1-8 3-5 1-6h2l-2-8 1-27v-28l3-27 3-10h1l2 27v259l-1 527-1 36-2 30-5 26-8 24-9 19-8 14-12 16-8 10-11 12-7 7-11 9-10 8-13 9-17 10-20 8-18 6-23 5-29 3-21 1h-186l-15-2-13-5-10-8-7-7-8-13-4-10-2-10v-69l2-18 3-10 6-11 12-13 14-10 6-2 7-1 19-1 162-1 26-1 13-2 6-4 5-6 3-8 2-20 1-257v-285l-1-251z" fill="#8C2CFC"/>
<path transform="translate(441,351)" d="m0 0h126l33 1 26 2 11 4 11 8 11 13 7 14 4 16 2 26v24l-2 31-4 15-7 12-10 11-13 9-9 3-8 1-19 1-183 2-17 2-6 4-4 5-4 10-1 8-2 74-2 1-1 7-4 12h-3l1 7-2 4v5l-3 3 2 5 1 2-1 3-4 1-4-1-1 6v3l-6 1v3l-3 1-2 5v3l-4 14-1 2 5 1v2h-2v16l-5 16-3-1-2-8-4-1-3-6-1-1v8l-5 2-1-2h2l-2-7-3-3-1-20v-7l-1-5v-153l2-13 5-15 7-12 9-12 5-6h2l1-3 11-9 10-6 10-4 14-3 21-2 33-1h152l5-1 1-18v-43l-4-1-41-1h-87l-55 1-27 2-22 4-23 8-17 9-14 10-13 11-8 8-13 18-9 16-7 16-6 18-3 15-2 18-1 19-1 93-2 4-1-41-2-5-3 9-2 10 2 2-1 4-3 3-4 2-2 11-2 3-1 5-5 1-1 5-5 2v11 4l-2 3 1 9-4 12 1 14 2 7-3 7-1 8h-2l3 7-1 6-2 1v-2h-3l-1-4 1-6-1-2v-10l3-1-5-9-1-7 1-5-3-11v-2l-4 1-5-5-1-4 2-4-3-2v-7l-1-1v-20l-1 11h-1v-119l1-23 3-23 5-19 8-21 9-19 12-20 13-17 11-13 14-14 11-9 18-13 16-9 19-9 21-7 21-4 26-3z" fill="#2E4BFC"/>
<path transform="translate(1245,415)" d="m0 0h2v64h359l36 2 19 3 13 5 12 7 11 9 7 7 10 14 8 17 3 16 1 15v126h-3v-2h-2v-13l-1-14-7 1-1 7-3 7v7l-4 7-5 2h-2v2h2l1 4-4 4h-2l-1 16-2 4-1 8h-2l-1 3h-3l1 8 5 6-1 3 3 5-1 6-2 5-1 11-2 4h-2l-5-16-1-7-4-7-1-5-1 5-1 8-5-3-1-3-2-156-1-20-3-25-3-9-4-5-9-3-10-1-39-1h-348l1 14v30l-1 47-2 18-4 11-6 11-11 13-7 6-12 6-16 3h-13l-17-4-19-8-19-10-31-16-22-12-25-13-22-12-60-32-27-14-19-10-41-21-24-14-7-5 1-7 6-3v-5l-4-2v-3h2v2l8 1 3 3h6l5-5 4 2v2l9-2 7-2h4l1-5 4-2 2-5 4 1-1-3 10 3 46 24 19 10 10 6 14 7 19 10 43 22 16 9 16 8 14 8 16 8 27 15 17 10 10 5 3-1 1-4 1-89h2l1-13 2-13 3-5-2-4-2-9-1-2v-6l1-4-1-5 1-5-2-4-1-14v-16l2 1 3 7v2l4 1 2 4 2-3h2l2-2 4 4 2 5 9-1 4 2-2-7-3-4 3-1-1-7-1-5 2-5v-4l2-2 3-7 3-1 3-9z" fill="#2E4AFC"/>
<path transform="translate(865,1408)" d="m0 0 7 2 14 8 12 5 17 9 12 7 14 7 22 12 16 9 16 8 29 15 19 10 22 12 17 9 40 20 10 6 14 7 21 13 10 7 8 9 3 9v8l-4 16-7 8-12 8-18 11-14 7-22 12-23 12-22 12-34 18-22 12-54 29-41 21-28 16-19 11h-5l-1-141v-62l1-107 1-47v-24z" fill="#A2A9FD"/>
<path transform="translate(1176,257)" d="m0 0 5 1 2 2 1 40v327l-3 13-5-1-14-8-12-6-32-18-12-6-18-10-16-8-27-14-18-10-16-8-27-14-22-12-31-16-23-13-17-10-15-11-10-9-5-7v-22l3-10 8-6 10-7 12-7 16-8 31-17 6-3 19-10 25-13 18-10 21-10 12-7 19-9 16-9 15-8 22-12 16-9 12-6 24-14z" fill="#A2A9FD"/>
<path transform="translate(1172,192)" d="m0 0h19l13 3 15 8 9 8 8 11 6 12 3 11 2 23v84h7l3 3-2 2h-3v2l-3 2 2 4v3l-2 1 3 8v-8l6-2 1 1v14l-4 3-6 1v9l-2 4-1 7-3 3-6-1 3 3 7 1v3l-2 1-13 2-3 8-4 4-2 5-2 4 1 2-2 6 2 7-1 3-2 1 3 4 1 7-6-1-7 1-3-6v-2h-4l-2 2-1-1-2 3-3-5-3-1-3-7-2-3 2 30 2 6-1 5 1 6-1 1v6l2 4 2 9 1 3-2 1-2 10-2 19-2 4-1 85-2 5-3 1-12-6-15-9-24-13-16-9-10-5-12-7-16-8-35-18-19-10-29-15-23-13-16-8-33-17-7-4-10-4 1 2 3 2-3 1-4-2-2 5-4 3v4l-10 1-5 2h-6l-1-2-4-1-4 5h-6l-1-3-10-2v-2h-2l2 4 3 3-1 4-5 2-1 6-5-2-13-12-9-10-9-16-6-17-3-15v-19l3-18 4-12 7-14 7-10 5-6 16-14 17-11 27-15 22-12 60-31 22-12 25-13 22-12 34-18 27-14 19-10 23-12 19-9zm4 65-14 7-15 9-14 8-12 6-23 13-6 3-19 10-12 7-21 10-12 7-21 10-10 6-16 8-19 10-15 8-36 19-14 8-12 6-13 9-8 6-3 10v22l7 9 10 9 18 12 19 11 26 14 25 13 22 12 25 13 19 10 27 14 26 14 16 8 14 8 14 7 23 13 11 6 14 8h4l3-13v-327l-1-40-4-3z" fill="#1759FE"/>
<path transform="translate(1163,241)" d="m0 0 7 2 6 7 10-1 6-1 2 2-2 1 5 3-1 11-1 1v11l-6-2-2 2-2-3 1 222v142l-2 5-3 1-12-6-15-9-24-13-16-9-10-5-12-7-16-8-35-18-19-10-29-15-23-13-16-8-33-17-23-13-14-9-8-6-7-6v-2l-4-2-5-8-1-2v-25l3-6 9-8 11-7 10-6 16-8 8-5-4-1 1-2 8-4h3l2-4 4-3h3l1-3h3l2-7h8v-4l3-4 8-4 1-2 6-2 5-6 7-5 6-3-1-2 1-2h2v-2l5-3 5-5 5-1v-2l12-7 5-3 5-5 10-4 8-5 6-3 16-6 4-3 8-3 8-5 15-8 7-4 15-10 12-6 7-3 12-3 10-1zm13 16-14 7-15 9-14 8-12 6-23 13-6 3-19 10-12 7-21 10-12 7-21 10-10 6-16 8-19 10-15 8-36 19-14 8-12 6-13 9-8 6-3 10v22l7 9 10 9 18 12 19 11 26 14 25 13 22 12 25 13 19 10 27 14 26 14 16 8 14 8 14 7 23 13 11 6 14 8h4l3-13v-327l-1-40-4-3z" fill="#1262FF"/>
<path transform="translate(798,1630)" d="m0 0h2l-1 4-8 2-20 2h-102l-107 1h-25l-10 1h-18l-23 1h-23l-16-1-5-2-12-2-8-2v-2l-3-1z" fill="#8509E0"/>
<path transform="translate(802,1394)" d="m0 0h1v39l-1 72-2 2-24 1-77 1-109 1-141-1-21-2-4-3 367-1 7-1 1-86 1-18z" fill="#8509E0"/>
<path transform="translate(1662,582)" d="m0 0h1l1 7 1 18v191l1 375 1 78v199l-3 16h-1v-546l-1-251z" fill="#820BE0"/>
<path transform="translate(594,1559)" d="m0 0 36 1h24l74 2h29l29 2h14l1 3-2 1-24-1h-336l-34-1-4-2 11-1 31-1 2 1 1-2h49l51-1h28z" fill="#870FE2"/>
<path transform="translate(320,569)" d="m0 0h1v455l1 264v199l-2-3-1-13-1-130v-94l1-648z" fill="#7D11E3"/>
<path transform="translate(1791,924)" d="m0 0h1l1 111 1 197 1 107-1 115-2 15-2 2v-134z" fill="#7D0FE2"/>
<path transform="translate(509,1690)" d="m0 0h170l102 2 9 1v1h-379l-4-2 45-1h17z" fill="#860DE3"/>
<path transform="translate(1210,222)" d="m0 0h14l4 9v2l4 2 3 15-1 8v11l-4-2-3 11-2 4-4-2-3-9-5-9-2-7-2-4-3-1v-6l1-2-1-5 2-4 1-10z" fill="#1263FF"/>
<path transform="translate(1438,1630)" d="m0 0 191 1-2 2-13 5-5-1v2h-20l-17-1-55-1h-59l-16-3-4-2z" fill="#830CE1"/>
<path transform="translate(1662,582)" d="m0 0h1l1 7 1 18v566h-1l-2-504z" fill="#7E0EE1"/>
<path transform="translate(1607,1503)" d="m0 0h23l-3 2-8 3-25 1h-151l-22-1v-2l5-1 19-1z" fill="#840BE0"/>
<path transform="translate(192,1140)" d="m0 0h1l1 48 1 126v69l-1 79h-1l-1-18-1-115v-188z" fill="#7F13E2"/>
<path transform="translate(841,460)" d="m0 0 2 1v4l2 1-1 4-2 1v3l5 2-2 4-1 3-5 2 3 5-1 4-3-1-2-5-6-2v-3l-11-3h-2l-1 3-4-3v-4l-4 2-1 2h-3l-2-10 6-5 7 1 3 3v2l5-2v-4l7-1 4 1 2-4z" fill="#2E4BFD"/>
<path transform="translate(1469,1562)" d="m0 0h50l31 1h36l46 1v1l-9 1-54 1h-129l1-3 3-1z" fill="#8920E4"/>
<path transform="translate(892,335)" d="m0 0 7 1v2h-2v4l-3 6-7 6-5 3h-2v2l-7 1-7 4-3 2-4-1-2-5-4-3 16-9z" fill="#2D4DFD"/>
<path transform="translate(1662,582)" d="m0 0h1l1 7 1 18v190l-2 1-1-129z" fill="#7816E4"/>
<path transform="translate(814,394)" d="m0 0 4 1 2 5 1 10h2l-2 6-1 4-5 3-6 5-7 1-1-4 5-16 7-14z" fill="#2E4CFD"/>
<path transform="translate(1171,686)" d="m0 0h4v2l6-1 6 5 11 4 4 3-13 3h-13l-10-2-3-4v-9h3 3z" fill="#8630FD"/>
<path transform="translate(1725,1155)" d="m0 0h1v192h-1l-1-13-1-42v-62l1-9-1-14 1-9v-22z" fill="#8609E0"/>
<path transform="translate(607,478)" d="m0 0v3l-6 1h-52l-103-1 4-2h152z" fill="#800FE2"/>
<path transform="translate(1515,1691)" d="m0 0h37l35 1v2h-130v-1l5-1z" fill="#8609E0"/>
<path transform="translate(1172,192)" d="m0 0h19l8 2-4 4-4 1-19 2h-6l-4-3v-3z" fill="#2E4DFD"/>
<path transform="translate(791,1692)" d="m0 0h7l3 2v88h-1l-1-18v-69h-34v-1l25-1z" fill="#9042EA"/>
<path transform="translate(1244,258)" d="m0 0h2l1 10v62l-1 18h-1l-1-22z" fill="#2758FD"/>
<path transform="translate(205,704)" d="m0 0 4 1v6l-1 4 2 3v7l-2 1-3-1-3-6v-10z" fill="#8C2CFD"/>
<path transform="translate(854,1343)" d="m0 0h15l7 2 1 3-4 1h-15v-3h-9l1-2z" fill="#8710E3"/>
<path transform="translate(382,583)" d="m0 0 2 3v18l-1 29-2-4v-41z" fill="#831BED"/>
<path transform="translate(1790,561)" d="m0 0 4 2 2 7 1 10h-6l-1-5z" fill="#1659FF"/>
<path transform="translate(1245,310)" d="m0 0h1l1 20-1 18h-1l-1-22v-15z" fill="#3747FD"/>
<path transform="translate(791,1692)" d="m0 0h7l3 2-1 5-1-4h-34v-1l25-1z" fill="#5B39F0"/>
<path transform="translate(1677,748)" d="m0 0h2l2 5v6l-4 1-1-11z" fill="#8C2CFD"/>
<path transform="translate(355,712)" d="m0 0 3 3-1 4-4-1-1-4z" fill="#2E4BFD"/>
<path transform="translate(871,520)" d="m0 0h4l4 4v2l-5-1-3-3z" fill="#1759FF"/>
</svg>
