<svg version="1.1" id="Layer_1" xmlns="http://www.w3.org/2000/svg" xmlns:xlink="http://www.w3.org/1999/xlink" x="0px" y="0px"
	 width="100%" viewBox="0 0 120 120" enable-background="new 0 0 120 120" xml:space="preserve">
<path fill="#000000" opacity="1.000000" stroke="none" 
	d="
M121.000000,48.000000 
	C121.000000,72.666664 121.000000,96.833328 121.000000,121.000000 
	C81.000008,121.000000 41.000015,121.000000 1.000017,121.000000 
	C1.000011,81.000015 1.000011,41.000027 1.000006,1.000028 
	C40.999981,1.000019 80.999962,1.000019 120.999969,1.000009 
	C121.000000,16.500000 121.000000,32.000000 121.000000,48.000000 
M111.767853,57.500088 
	C111.767418,47.835480 111.987976,38.164318 111.701706,28.508188 
	C111.438156,19.618773 108.388069,14.844673 98.390785,14.920089 
	C73.564011,15.107369 48.731659,15.210751 23.908367,14.862181 
	C14.746169,14.733525 9.868743,19.912685 9.932848,28.900949 
	C10.083773,50.062153 9.980364,71.225166 9.981516,92.387444 
	C9.982101,103.141357 13.685936,106.886299 24.459738,106.895844 
	C48.788010,106.917397 73.116318,106.913445 97.444603,106.897331 
	C107.165146,106.890892 111.713799,102.331474 111.756363,92.492996 
	C111.805374,81.162216 111.767807,69.831078 111.767853,57.500088 
z"/>
<path fill="#E8E8EA" opacity="1.000000" stroke="none" 
	d="
M111.767853,58.000092 
	C111.767807,69.831078 111.805374,81.162216 111.756363,92.492996 
	C111.713799,102.331474 107.165146,106.890892 97.444603,106.897331 
	C73.116318,106.913445 48.788010,106.917397 24.459738,106.895844 
	C13.685936,106.886299 9.982101,103.141357 9.981516,92.387444 
	C9.980364,71.225166 10.083773,50.062153 9.932848,28.900949 
	C9.868743,19.912685 14.746169,14.733525 23.908367,14.862181 
	C48.731659,15.210751 73.564011,15.107369 98.390785,14.920089 
	C108.388069,14.844673 111.438156,19.618773 111.701706,28.508188 
	C111.987976,38.164318 111.767418,47.835480 111.767853,58.000092 
M21.357222,100.514381 
	C47.172340,100.570076 72.987450,100.644630 98.802597,100.662369 
	C102.966576,100.665230 105.321014,98.651810 105.316475,94.237732 
	C105.293694,72.083817 105.292381,49.929848 105.318329,27.775938 
	C105.323494,23.369190 103.008179,21.340952 98.827591,21.335239 
	C73.675385,21.300863 48.523102,21.310404 23.370853,21.323326 
	C18.915419,21.325615 16.654146,23.444611 16.665384,28.072489 
	C16.718767,50.059765 16.586010,72.048523 16.857214,94.032585 
	C16.883060,96.127762 19.249987,98.194069 21.357222,100.514381 
z"/>
<path fill="#4B4476" opacity="1.000000" stroke="none" 
	d="
M20.943647,100.394073 
	C19.249987,98.194069 16.883060,96.127762 16.857214,94.032585 
	C16.586010,72.048523 16.718767,50.059765 16.665384,28.072489 
	C16.654146,23.444611 18.915419,21.325615 23.370853,21.323326 
	C48.523102,21.310404 73.675385,21.300863 98.827591,21.335239 
	C103.008179,21.340952 105.323494,23.369190 105.318329,27.775938 
	C105.292381,49.929848 105.293694,72.083817 105.316475,94.237732 
	C105.321014,98.651810 102.966576,100.665230 98.802597,100.662369 
	C72.987450,100.644630 47.172340,100.570076 20.943647,100.394073 
M20.226868,40.095211 
	C20.203634,57.566330 20.223612,75.037720 20.116093,92.508316 
	C20.097420,95.542336 20.796936,97.046341 24.265612,97.030563 
	C48.725567,96.919289 73.186356,96.939941 97.646599,97.013618 
	C100.537766,97.022324 101.908974,96.227066 101.880997,93.089096 
	C101.720818,75.124748 101.683357,57.159306 101.773109,38.253639 
	C101.798874,35.926922 101.584862,33.567276 101.898941,31.280153 
	C102.613243,26.078794 100.368729,24.872379 95.424950,24.934361 
	C74.648514,25.194828 53.866932,25.044397 33.087234,25.044392 
	C19.295895,25.044390 19.295895,25.044390 20.226868,40.095211 
z"/>
<path fill="#D8EDFE" opacity="1.000000" stroke="none" 
	d="
M101.604248,39.194233 
	C101.683357,57.159306 101.720818,75.124748 101.880997,93.089096 
	C101.908974,96.227066 100.537766,97.022324 97.646599,97.013618 
	C73.186356,96.939941 48.725567,96.919289 24.265612,97.030563 
	C20.796936,97.046341 20.097420,95.542336 20.116093,92.508316 
	C20.223612,75.037720 20.203634,57.566330 20.752613,39.633636 
	C48.053654,39.179455 74.828949,39.186844 101.604248,39.194233 
M50.499489,79.022842 
	C55.635426,79.020462 60.774593,79.111931 65.904518,78.935120 
	C66.909309,78.900490 67.878296,77.826996 68.863800,77.232643 
	C67.898636,76.529480 66.941467,75.227821 65.967094,75.214821 
	C55.034676,75.068924 44.098934,75.068886 33.166389,75.209053 
	C32.172676,75.221802 31.194906,76.477959 30.209732,77.156693 
	C31.338207,77.777458 32.448650,78.892441 33.598248,78.934387 
	C38.892860,79.127594 44.198395,79.021584 50.499489,79.022842 
M50.499523,56.057514 
	C53.664509,56.057499 56.832161,56.138340 59.993706,56.034031 
	C62.972492,55.935749 65.944847,55.642387 68.920029,55.434853 
	C64.399506,52.036976 33.121178,52.362648 30.138348,56.030163 
	C36.592236,56.039322 43.046127,56.048485 50.499523,56.057514 
M79.854240,73.915359 
	C79.983017,75.293251 80.222664,76.672676 80.203728,78.048531 
	C80.189835,79.056831 79.836533,80.060463 79.634499,81.066162 
	C80.762848,80.864311 81.922867,80.762695 83.006783,80.420219 
	C83.588066,80.236557 84.038460,79.638657 84.516319,79.253174 
	C86.062210,80.224777 87.510269,81.134880 88.958321,82.044991 
	C89.400261,81.714073 89.842201,81.383148 90.284142,81.052231 
	C89.547493,79.517151 88.221603,77.977478 88.233505,76.448227 
	C88.246399,74.790817 89.505974,73.143120 90.221863,71.491196 
	C89.922249,71.200104 89.622627,70.909012 89.323013,70.617928 
	C87.690239,71.367462 86.057465,72.117004 84.988670,72.607643 
	C82.712379,72.796402 80.382538,66.965874 79.854240,73.915359 
M77.496849,53.728901 
	C79.763695,55.159000 80.652962,59.824299 84.375885,57.603466 
	C87.129089,55.961102 89.234329,53.148163 91.391403,50.652061 
	C91.909256,50.052811 91.486618,48.640820 91.496513,47.602612 
	C90.490921,47.858238 89.260551,47.833477 88.523613,48.424229 
	C86.625916,49.945484 84.946686,51.739254 83.634239,52.991047 
	C80.989960,53.472805 79.136292,47.687622 77.496849,53.728901 
z"/>
<path fill="#9DA5E5" opacity="1.000000" stroke="none" 
	d="
M101.688675,38.723938 
	C74.828949,39.186844 48.053654,39.179455 20.836651,39.184914 
	C19.295895,25.044390 19.295895,25.044390 33.087234,25.044392 
	C53.866932,25.044397 74.648514,25.194828 95.424950,24.934361 
	C100.368729,24.872379 102.613243,26.078794 101.898941,31.280153 
	C101.584862,33.567276 101.798874,35.926922 101.688675,38.723938 
z"/>
<path fill="#7BC4FF" opacity="1.000000" stroke="none" 
	d="
M49.999748,79.022865 
	C44.198395,79.021584 38.892860,79.127594 33.598248,78.934387 
	C32.448650,78.892441 31.338207,77.777458 30.209732,77.156693 
	C31.194906,76.477959 32.172676,75.221802 33.166389,75.209053 
	C44.098934,75.068886 55.034676,75.068924 65.967094,75.214821 
	C66.941467,75.227821 67.898636,76.529480 68.863800,77.232643 
	C67.878296,77.826996 66.909309,78.900490 65.904518,78.935120 
	C60.774593,79.111931 55.635426,79.020462 49.999748,79.022865 
z"/>
<path fill="#70BFFF" opacity="1.000000" stroke="none" 
	d="
M49.999771,56.057579 
	C43.046127,56.048485 36.592236,56.039322 30.138348,56.030163 
	C33.121178,52.362648 64.399506,52.036976 68.920029,55.434853 
	C65.944847,55.642387 62.972492,55.935749 59.993706,56.034031 
	C56.832161,56.138340 53.664509,56.057499 49.999771,56.057579 
z"/>
<path fill="#F27068" opacity="1.000000" stroke="none" 
	d="
M79.634941,73.622665 
	C80.382538,66.965874 82.712379,72.796402 84.988670,72.607643 
	C86.057465,72.117004 87.690239,71.367462 89.323013,70.617928 
	C89.622627,70.909012 89.922249,71.200104 90.221863,71.491196 
	C89.505974,73.143120 88.246399,74.790817 88.233505,76.448227 
	C88.221603,77.977478 89.547493,79.517151 90.284142,81.052231 
	C89.842201,81.383148 89.400261,81.714073 88.958321,82.044991 
	C87.510269,81.134880 86.062210,80.224777 84.516319,79.253174 
	C84.038460,79.638657 83.588066,80.236557 83.006783,80.420219 
	C81.922867,80.762695 80.762848,80.864311 79.634506,81.066162 
	C79.836533,80.060463 80.189835,79.056831 80.203728,78.048531 
	C80.222664,76.672676 79.983017,75.293251 79.634941,73.622665 
z"/>
<path fill="#7FA862" opacity="1.000000" stroke="none" 
	d="
M77.336807,53.399651 
	C79.136292,47.687622 80.989960,53.472805 83.634239,52.991047 
	C84.946686,51.739254 86.625916,49.945484 88.523613,48.424229 
	C89.260551,47.833477 90.490921,47.858238 91.496521,47.602608 
	C91.486618,48.640820 91.909256,50.052811 91.391403,50.652061 
	C89.234329,53.148163 87.129089,55.961102 84.375885,57.603466 
	C80.652962,59.824299 79.763695,55.159000 77.336807,53.399651 
z"/>
</svg>