<?xml version="1.0" encoding="UTF-8"?>
<svg version="1.1" viewBox="0 0 1600 1600" width="100" height="100" xmlns="http://www.w3.org/2000/svg">
<path transform="translate(286,336)" d="m0 0h89l70 1 102 2 249 2h385l73-1 30-1h28l27 4 21 6 18 8 15 9 10 8 10 9 9 11 6 8 8 14 8 22 5 23 3 36 2 49 5 137 13 339 3 82v84l-4 33-5 21-7 19-9 19-8 13-10 14-13 14-16 12-16 8-13 5-19 4-29 2-72 2-268 6-138 3-73 2-208 4-149 4h-83l-35-3-25-4-30-8-24-9-16-8-14-8-14-10-12-11-14-14-9-13-8-14-6-14-3-21-5-66-5-67-3-61-2-62v-115l3-89 5-100 5-87 5-73 3-29 5-26 5-16 6-16 7-13 12-17 14-15 17-13 11-7 23-12 24-10 14-4zm78 65-17 3-15 5-17 8-14 11-8 9-5 10-1 5 3 7 7 8 7 7 12 9 13 8 11 5 15 4 5 1h17l21-6 12-5 16-9 17-13 7-7 3-6-1-8-7-16-8-10-13-9-13-6-15-4-7-1zm287 0-14 4-16 8-10 8-8 9-8 14-1 9 7 8 12 9 11 9 14 10 14 7 15 5 20 2 16-3 20-8 15-10 10-8 6-9 1-6-3-12-9-17-10-11-10-7-12-6-19-4-10-1zm295 1-23 4-16 7-12 8-7 7-10 14-3 8-1 5v8l3 9 10 13 11 11 13 9 11 5 16 4h18l25-7 14-6 19-11 22-14 5-6 1-7-4-15-7-14-11-12-9-8-11-6-11-4-9-2zm283 9-22 3-13 4-11 6-11 9-7 8-7 15v9l3 8 9 13 7 7 13 9 13 5 9 2 9 1h17l17-3 14-5 15-8 16-12 7-7 5-8 1-4v-9l-4-12-6-10-10-10-8-5-14-5-5-1zm-17 742-17 3-16 7-10 6-17 16-6 11-1 2v8l9 10 10 9 10 7 16 7 11 2h14l18-3 19-7 11-6 12-9 7-8 3-9-2-9-6-10-4-5-12-9-17-8-16-4zm-301 11-20 3-16 5-12 5-15 8-13 12-6 9-1 3v7l6 9 14 14 6 7 16 11 13 5 14 3h24l19-4 16-6 15-8 13-10 6-5 4-6v-12l-6-16-9-13-10-9-12-7-13-4-5-1zm-620 5-16 5-16 8-14 12-6 9-2 5v6l6 11 9 10 7 8 11 10 11 7 13 4 14 1 16-3 12-5 15-9 10-8 4-6 2-6-1-10-7-16-8-11-8-8-11-7-12-5-10-2zm269 10-20 3-21 7-16 8-11 7-7 7-3 9 4 6 7 7 7 8 11 12 10 8 16 9 18 5h18l18-4 24-11 19-12 12-9 6-6v-6l-6-10-11-12-7-6-14-8-16-6-20-5z" fill="#D350AB"/>
<path transform="translate(716,614)" d="m0 0 10 1 16 8 13 9 18 13 17 12 18 13 14 10 11 8 28 20 13 10 18 13 16 11 7 6 10 7 16 12 14 10 10 7 13 10 28 21 11 8 11 10 7 5 14 16 6 12v11l-3 9-16 16-9 7-12 9-13 9-21 12-34 18-16 8-15 8-19 9-23 13-14 8-17 10-13 7-15 9-21 13-24 16-22 14-20 12-11 4h-14l-10-4-11-8-5-6-3-9v-21l6-76 4-74 2-59v-196l3-5 9-7z" fill="#FEFEFE"/>
<path transform="translate(81,165)" d="m0 0h7l13 7 10 8 10 9 8 7 33 31 14 14 7 8 11 12 11 14 7 14 1 4v7l-6 11-8 9-12 7-2 2-5-1-15-8-11-9-21-21-7-8-53-53-7-8-10-13-5-10 1-5 8-11 7-8 11-8z" fill="#FC9103"/>
<path transform="translate(449,144)" d="m0 0h14l11 4 9 7 7 8 2 5v9l-7 14-11 15-10 13-14 17-9 11-35 35-18 13-8 5-6 2-13 1-10-5-7-8-8-14v-10l4-9 9-11 15-15 8-7 25-25 9-11 9-10 9-11 13-15 7-6z" fill="#FC9103"/>
<path transform="translate(1224,115)" d="m0 0h8l9 6 7 9 24 48 15 26 17 26 12 20 5 13v8l-6 9-5 5-10 9-9 5-9-2-10-6-10-9-12-16-11-17-12-21-11-20-16-36-9-20-2-10 6-10 10-8z" fill="#8EC433"/>
<path transform="translate(1409,115)" d="m0 0h7l13 5 9 6 7 8 3 8v7l-5 20-10 29-11 27-4 10-10 13-9 6-9 1-15-5-6-4-9-10-1-3v-16l4-16 7-21 5-12 6-18 8-16 7-10 9-7z" fill="#8EC433"/>
<path transform="translate(303,134)" d="m0 0 13 2 18 7 4 5 2 7v13l-4 22-7 28-11 32-6 10-8 7-9 3-13-1-10-5-5-4-7-10-3-7v-10l7-27 7-22 7-24 6-14 6-7 8-4z" fill="#FC9103"/>
<path transform="translate(1488,240)" d="m0 0h12l9 3 7 6 7 10 3 8 1 8-2 9-6 8-11 7-20 9-33 16-14 7-8 2-5-1-12-11-7-10-3-10v-10l4-8 9-10 14-10 14-8 23-10 12-4z" fill="#8EC433"/>
<path transform="translate(535,1431)" d="m0 0 9 1 10 5 6 5 8 11 3 6 1 9-3 8-8 10-9 10-7 8-28 28-9 4-10 2-12-3-8-6-7-9-4-8-1-9 7-14 9-11 7-9 23-23 5-6 10-6z" fill="#268ACF"/>
<path transform="translate(867,1423)" d="m0 0h10l11 4 9 7 11 13 9 11 8 10 10 14 6 13 2 10-3 6-9 10-8 7-6 4-3 1h-8l-12-6-13-12-9-11-10-12-12-17-10-17-1-5 3-9 11-12 7-6z" fill="#268ACF"/>
<path transform="translate(484,1226)" d="m0 0 4 1 15 16 7 8 8 7 15 9 10 4 12 3h18l18-4 24-11 19-12 12-9 4-4 4 2 10 10 2 5v6l-8 10-10 9-19 12-15 7-17 5-14 3-8 1h-22l-17-3-20-7-16-10-11-9-8-7-8-11-5-10v-7l3-6 9-6z" fill="#202522"/>
<path transform="translate(831,1222)" d="m0 0 7 6 11 11 5 6 16 11 13 5 14 3h24l19-4 16-6 15-8 13-10 5-4 5-7 5 5 10 13 3 6v5l-11 10-16 10-18 10-20 7-18 4-8 1h-26l-17-3-17-6-19-10-13-11-6-8-4-8-1-3v-11l4-6z" fill="#202522"/>
<path transform="translate(709,1407)" d="m0 0h15l14 3 8 4 6 7 2 7v16l-5 39-4 18-5 10-5 5-6 2h-16l-13-4-8-6-5-8-2-11 2-21 4-31 3-13 4-8 4-5z" fill="#268ACF"/>
<path transform="translate(1313,460)" d="m0 0 5 5 12 17v8l-3 6-9 10h-2v2l-12 9-18 10-11 5-21 5-7 1h-34l-19-3-22-8-12-7-12-12-7-14-1-7 2-6 11-5 5 1 2-4 3 1 7 11 7 7 13 9 13 5 9 2 9 1h17l17-3 14-5 15-8 16-12 9-10z" fill="#1F2422"/>
<path transform="translate(755,457)" d="m0 0 7 6 14 14 1 9-6 9-13 10-14 9-16 8-17 6-11 2-19 1-16-1-16-4-25-10-10-6-10-8-10-9-6-11v-12l11-9 5 1 28 22 9 6 19 8 13 3 14 1 16-3 20-8 15-10 10-8 5-8z" fill="#202522"/>
<path transform="translate(875,469)" d="m0 0 4 4 8 11 11 11 13 9 11 5 16 4h18l25-7 14-6 19-11 22-14 2-2h3l4 6 4 8v7l-3 7-7 8-11 8-9 5-14 8-20 7-14 3-12 2h-22l-24-5-12-5-17-9-11-9-9-10-4-8v-10l12-9z" fill="#202522"/>
<path transform="translate(1285,1195)" d="m0 0 5 3 8 2 10 8 3 4-2 9-4 6-11 12-15 12-16 9-13 5-17 4h-7l-3 2-9 1h-16l-13-2-18-6-14-9-10-9-4-5-4-11 1-11 4-6 5-4 4 1 7 7 11 9 9 6 14 6 11 2h14l18-3 19-7 11-6 12-9 6-7 3-9z" fill="#202522"/>
<path transform="translate(450,460)" d="m0 0h3l9 13 3 6v7l-5 6-30 20-16 8-11 4-9 3-21 3h-14l-21-4-20-7-18-10-12-10-7-10-2-6v-7l3-8 10-3 5 1 7 7 12 9 13 8 11 5 15 4 5 1h17l21-6 12-5 16-9 17-13z" fill="#202522"/>
<path transform="translate(286,336)" d="m0 0h89l70 1 102 2 106 1 2 1 44 1 11 1v3h-7l-4 1h-20l-5-1-6 1-6-1-1 1h-22l-4 1-1 2-2-1v-2h-18l-6 1-2-1v2l-4-2h-14l-1 2h-2l-6-2v2l-5 1-2-2h-5l-1 2-6-1v-2l-5 3-19-1-1 1h-5l-3-3v2l-3 1h-7l-5-1 1-3-6 1h-5l-3 1-2-1-1 3-3-2v-2l-11 1-1 2v-2h-8l-2-1-1 2-2-1h-13l-3 2v1l-13 1-13-1-5 1h-9l-6 1-3 2h-8l-10-1-7 2-4-1-2 1h-6l-3 1-4-1v2l-5 2v-3l-9-1h-11l-3 1-1-2h-4l-11 1 2-1v-2l-13 1-5-1-9 1v-2l-8 2h-6l-2 2h-12l-9 1-2-2-6-1-1 3-8 3-7 2-5 3-9 1h-2v3l-4 1-1-2-2 3-5 2v-4l18-10 21-10 15-6 14-4z" fill="#CB41A1"/>
<path transform="translate(238,1218)" d="m0 0h2l6 9 12 14 7 7 14 10 10 4 13 2 14-1 14-4 20-11 11-9 1-2 3 1 7 8 6 8-1 9-4 5-12 9-14 8-12 5-11 3-13 2h-16l-15-3-13-5-18-11-12-11-8-11-5-9v-14l6-8z" fill="#202522"/>
<path transform="translate(484,1226)" d="m0 0 3 1-1 4 1 4 2 4 2 6-4 7v10l1 3h2v3h2l5 9 7 6 13 8 12 4 5 1 1-4 8-4h7l2-1-3-3-8-3-3-4v-2l13 2 5 1 5-1 1 3h8l4 3-1 4-4 1-8-1v3l9-1 11 1 2-1 17-2 17-4 6 2v2l9-4 4-1v-2l8-6-2-3 3-7 2-5-1-9 1-5-1-7 4-4 4 2 10 10 2 5v6l-8 10-10 9-19 12-15 7-17 5-14 3-8 1h-22l-17-3-20-7-16-10-11-9-8-7-8-11-5-10v-7l3-6 9-6z" fill="#2B2A2C"/>
<path transform="translate(599,461)" d="m0 0 5 1 28 22 2 1-1 3h-2l3 6 3 1v2l4 2 9 3 6 1 1 3 8 3v2l6 2 2 1v2l5-2 1 2-3 3h-2l-1 7-2 1-11-1-16-4-15-6-13-7-10-8-10-9-3-6 1-6h2v-7l-1-5z" fill="#1F2422"/>
<path transform="translate(482,1225)" d="m0 0 4 1-13 7-3 4-1 3v7l8 15 9 10 17 13 13 8 24 8 13 2h22l17-3 19-5 12-5 11-6 15-10 11-10 5-7v-6l-3-6-11-11h3l10 9 5 10-1 6-11 12-8 7-5 2v3l-3 3-1 2-2-1v2l-10 5-1 2h-5l-1 2v2l-6 2-1 3h-5l-1 2-12 5-5 2-9 1-4 1-15 2-4-1v-2l-14-1-4-5-2-2-13-2-5-4-3 1v-2l-5-1-2 1-4-2-2 1v-3l-4-1v-2l-4-1-3-3v-2h-5v-2l-4-1-5-6-4-2v-3l-3-1v-3h-3l-4-6-1-4 1-2h-2v-3h-2l-3-12v-4h2l1-4h3l2-4h4v-2l9-2z" fill="#CB41A1"/>
<path transform="translate(831,1222)" d="m0 0 4 4-1 7-3 11-5 2v9l4 7v2l4 2 1 3 4 2 10 7 17 8h7l-4-5-1-4 10-3 7 1h14l9 2h15l6 6 8-1h6l2-2 5-2 8-1 5 2v3l10-4 3 1-14 7-15 5-18 4-8 1h-26l-17-3-17-6-19-10-13-11-6-8-4-8-1-3v-11l4-6z" fill="#2B2A2C"/>
<path transform="translate(1284,339)" d="m0 0h28l22 3 2 2-10 4-1-2-7 1-6-1-9-1v3h-4v-2h-2l-1 2-2 2h-9-3l-2 1-4-1-6 1h-35l-16-1h-43l-5 1-15-1h-30l-9-3-1 3-7-1-4-2v2h-2v-2h-9l-2-1-1 2-8-1-4 2v-2l-5 1v-3h-3v-2h44l94-1 42-1 3-1z" fill="#CB41A1"/>
<path transform="translate(292,465)" d="m0 0 5 1 7 7 12 9 2 2-4 6h-10l-9 2v-2l-5 1 2 7 7 6 13 8 7 4 16 5 14 2h5l-1-3-3-1-2-7-1-5 3-2 12 1 3 4v2h11l6 1v5l5 1 14-2v-3l7-2 1 3-2 4 9-3 12-5h3l-8 5-16 7-13 4-21 3h-14l-21-4-20-7-18-10-12-10-7-10-2-6v-7l3-8z" fill="#2B2A2B"/>
<path transform="translate(1145,1209)" d="m0 0 4 1 7 7 11 9 1 3h-2l2 6 5 4 6 4v2l9 3 6 3 6 2 6 3-4 2-3 1-1 4 3 3-1 2-10 1-19-5-10-5-7-3-12-11-5-8-2-7 1-11 4-6z" fill="#1F2422"/>
<path transform="translate(755,457)" d="m0 0 7 6 14 14 1 9-6 9-13 10-14 9-16 8-17 6-11 2-19 1-16-1-16-4-25-10-10-6-10-8-10-9-6-11v-12l10-8v3l-2 3 1 9-1 3h-2v6l3 6 12 11 14 9 15 7 12 4 15 3h8l1-7 4-4-5 1v-2l-6-2-2-1v-2l-9-3-1-2-14-4-4-3v-2l-4-1-2-6 4-2 10 6 18 7 10 2 11 1 5 3v3l11 1 2 3 3 2v2h-14v-2l-4 1-1 3 2 3 6-1h13l9-2 8 1 9-2 18-10 12-9 5-4 2-12v-9l-4-2-5-6-5-5z" fill="#2C2B2C"/>
<path transform="translate(830,1221)" d="m0 0 2 1-11 10-2 4v11l4 9 6 9 10 9 14 8 13 6 16 5 13 2h26l18-3 15-4 19-8 19-11 11-8 8-7-1-7-2-6 3 3 2 4v7l-13 14-3 3h-3v6l-1 3h-7l-2 5-6 2-1 2h-3l-4 4-6 3-8 3-2-1-1 2-6 1h-17l-5 1-38-1h-9l-3-2-4-1-9-2-1-2-8-3-3-4-7-4-1 2-1-3-5-1-3-2v-4l-4-1v-2l-4-1-1-3-3-3-1-4-3-1-3-9v-7l4-13 5-5z" fill="#CB41A1"/>
<path transform="translate(1291,1197)" d="m0 0 6 1 6 4 9 8 1 6-3 8-5 7h-2v2h-2l-1 4-9 8-10 7-1 3-6 2v2l-3 2h-4l-1 3-3 1v2l-8 3-3 3-5 1-4 3-5 1-1 2-9 2-13 1-6-1-9 1-6-1h-6v-3l-10-2v-3l-7 1h-3l-3-2v-2l-12-2v-2l-7-2-4-8-1-4-4-4-3-9-3 1-1-4-1-5 1-2 3-1 2-10h1v11l4 11 7 8 10 8 10 6 18 6 13 2h16l-7-1v-1h18l1-1 13-1 20-6 17-9 14-11 10-9 7-9 3-8-1-5-9-8-4-2-6-1z" fill="#CB41A1"/>
<path transform="translate(1168,1228)" d="m0 0 19 9 14 3-4 2 5 2 7 2 5 4 9-1 6 3 7 1 4-1 1-2h2l1-2 2 1-1 5 10-3 1-4 4 1 1 3 4 4 7-1-3 3-13 6-17 5-13 1-3 2-9 1h-16l-13-2-18-6-8-5 2-1 13 6 16 4h10v-3l-3-3 2-4 6-2-6-3-10-3-10-5-4-4-6-4-3-3v-5z" fill="#2C2B2C"/>
<path transform="translate(1160,473)" d="m0 0 3 1 7 11 7 7 13 9 13 5 9 2 9 1h23l-4 1 1 5-4 1-4-2v-3l-8 1-4 4h-8l-18-2-3-3-7-3-2-4-9-3-8-5v-2l-7-2-10-3-3-2h-2l1 4 1 3h2l-1 8 3 5 5 5 9 8 12 6 17 6 13 2 9 1h30l15-2 20-6 20-10 2 1-16 9-11 5-21 5-7 1h-34l-19-3-22-8-12-7-12-12-7-14-1-7 2-6 11-5 5 1z" fill="#2D2D2C"/>
<path transform="translate(597,460)" d="m0 0 4 1-12 9v12l6 11 12 11 10 7 16 8 19 7 13 3 22 1 19-2 11-3 13-5 16-8 13-9 12-9 5-8-1-9-11-11h3l10 8 3 5v9l-5 7-26 20-6 5-9 5-4 1-1 2-10 3-27 6-9-1h-11l-5-2-13-1v-2l-10-1-6-2v-2l-5-1-16-8v-2l-5-1-6-4-7-8-5-4-6-8-3-9v-8l3-7 6-2v-2z" fill="#9D3782"/>
<path transform="translate(874,467)" d="m0 0h2l-2 8-5 5-8 6v10l5 9 9 10 11 8 17 9 14 5 20 4h22l23-4 21-7 15-8 8-5 11-7 7-7 3-5 1-4v-7l-4-8-3-4v-2l-2-1h3l7 9 3 6v10l-6 8-4 4h-2l-2 4-11 8-11 6-16 8-3 2-6 2-5 2-16 4-18 2h-14l-13-2-18-5-11-5-3-1v-2l-3 1v-2l-5-1v-2l-7-2-6-7-6-5-2-5h-2l-5-10-1-3v-10l1-3 7-4 6-3h2z" fill="#9D3782"/>
<path transform="translate(780,479)" d="m0 0h1v10l-5 8-5 3-3 1v2h-2v2l-2 2v3l-3 3-6 1-2 4-2 3h-2l-3 1-1 3-5 2h-3v2h-5v2l-10 5-1 1-18 2-8 2h-4l-3 2-2-1h-9l-4-3-12-3-2-1-1 2-3-2-6-1h-7l-10-4h-3v-3h-5v-2l-11-2-2-5-5-2v-2l-5 1-1-6h-2l-1-6-3 1-2-6h-2l-5-10v-7l6 12 3 3v2l4 2 4 4v2l4 2v2l4 2 7 3 3 3 14 7 4 1v2h5l6 2 5 1 3 1 14 2 5 1h9l9 1 16-4 9-2 5-2h5l1-3 8-3 5-3h2l2-4 11-8 13-10 4-2 2-4 2-3z" fill="#CB41A1"/>
<path transform="translate(286,336)" d="m0 0h89l70 1 42 1 14 1-3 2h-102l-17 1h-112l2-4z" fill="#A33A87"/>
<path transform="translate(875,469)" d="m0 0 2 2-3 7-4 5 1 3 8 2v2l6-2 2 1 1 9h-3l-4-2h-5l-1-1h-5l-1 5 4 9 2 1v2h2v2l4 2 10 7 16 8 11 4 19 2h27l25-4 14-5 14-8 12-8 6-3 3-1 2-4h2l2-4 2-7h-2v-9l-3-6-1-4-2-1h3l4 6 4 8v7l-3 7-7 8-11 8-9 5-14 8-20 7-14 3-12 2h-22l-24-5-12-5-17-9-11-9-9-10-4-8v-10l12-9z" fill="#2B2A2C"/>
<path transform="translate(482,1225)" d="m0 0 4 1-13 7-3 4-1 3v7l8 15 9 10 17 13 13 8 24 8 13 2h22l17-3 19-5 12-5 11-6 15-10 11-10 5-7v-6l-3-6-11-11h3l10 9 5 10-1 6-11 12-8 7-14 9-10 6-8 4-13 5-9 4-8 1-7 2-10 1-23-3-16-4-15-6-8-4-16-11-7-5v-2l-4-2-9-11-5-8-3-7v-7l4-6 8-6z" fill="#9D3782"/>
<path transform="translate(451,458)" d="m0 0 4 2 9 12 4 9-1 5-7 8-11 9-5 2v2h-3v2h-3v2h-3v2l-7 4h-4v2l-8 4-12 5-16 4-19 2-19-1-14-2-9-4-6-2-15-7v-2l-5-2-7-4-6-7-5-5-6-11v-12l3-8 5-3h10l-3 2-10 3-2 7v7l3 7 4 6 4 5 11 8 12 7 15 6 13 4 17 3h14l21-3 15-5 20-9 11-8 16-10 7-6 1-2v-7l-3-6-8-11v-2l-3-1z" fill="#9C3781"/>
<path transform="translate(830,1221)" d="m0 0 2 1-11 10-2 4v11l4 9 6 9 10 9 14 8 13 6 16 5 13 2h26l18-3 15-4 19-8 19-11 11-8 8-7-1-7-2-6 3 3 2 4v7l-11 10-11 8-10 6-9 6-5 2-9 4-16 5-16 3-26 1-19-2-13-4-11-5-8-4-7-3v-2l-5-2-13-13-7-11-2-6v-7l4-10 5-5z" fill="#9D3782"/>
<path transform="translate(1291,1197)" d="m0 0 6 1 6 4 9 8 1 6-3 8-5 7h-2v2h-2l-1 4-9 8-13 9-9 6-18 8-13 4-13 2-9 3-19-1-9-2-13-4-17-7-4-1-7-8-2-1v-2h-2v-2h-2l-4-6-3-9v-10l1-5h1v11l4 11 7 8 10 8 10 6 18 6 13 2h16l-7-1v-1h18l1-1 13-1 20-6 17-9 14-11 10-9 7-9 3-8-1-5-9-8-4-2-6-1z" fill="#9D3781"/>
<path transform="translate(865,476)" d="m0 0h5l-4 3-6 3-3 1v13l4 9 1 4h2l2 5 4 2v2l4 2 4 4v2l5 1 2 1v2l5 1 3 1v2l6 1 8 4 22 6 9 1h14l18-2 16-4 5-2 12-5 13-7 12-7 2 1-5 5h-3l-1 3-6 3-4 1-5 1-1 3-6 2 1 2-8 4-12 2h-5l-2 1h-6l-10 2h-32v-2h-8l-15-5-10-3-4-4h-3v-2l-4-1v-2l-4 1-5-6h-2l-1-5h-4l-3-5v-3h-2l-4-7v-4h-2l-2-12 1-4 5-5z" fill="#CB41A1"/>
<path transform="translate(1158,470)" d="m0 0 3 1-2 6-4 1-3-1-8 4h-2l-1 10 6 14 9 10 7 6 14 7 17 6 19 3h34l16-3 15-4 23-12 11-8 4-2-4 5-12 9-11 7-13 5-12 4-13 3-11 1h-25l-25-5-20-8-11-6v-2l-3-1-7-8-7-11-3-7v-10l3-5 9-6 6-1z" fill="#9D3782"/>
<path transform="translate(1261,1345)" d="m0 0h5l1 3 9-1v2h3v-2h10l8 1 1-2 2 1v2l10-1 3 3-15 2-44 1h-65v-1l12-1 4-3h3v-1l16-1 2-1 7 1 9-1 11 3 1-2h4l2-1z" fill="#CC43A2"/>
<path transform="translate(1143,503)" d="m0 0 4 5 6 7v2l3 1 3 3v2l5 2 18 8 8 3 14 3 13 2h23l15-2 15-4 9-2v2l-10 4-3-1v2l-15 3-9 3-9 1h-19l-5-1h-7v-2l-11-3-3-1v-2h-8l-7-2-1-2-4-1-4-2-4-1-2-1v-4l-4-1-2-4-3-2-1-2-2 1-2-10-2-1z" fill="#CB41A1"/>
<path transform="translate(907,343)" d="m0 0h163l-1 2-11 1h-39l-4 1h-14l1 2h-3v-2l-7 1h-3l-13-1v2l-2-1 1-2-8 2v-2l-9 1h-3l-4 1-8-2-2 1h-6l-5 1-6-2-11 2-1-2h-2v-2l-3 1z" fill="#CB41A1"/>
<path transform="translate(223,1231)" d="m0 0h1l1 14 8 14 11 12 13 9 10 6 13 5 15 3h16l18-3 16-6 13-7 7-5 2 1-9 7-14 8-11 4-10 3-7 1h-26l-14-4-16-8-13-8-10-9-6-7-6-9-3-8v-11z" fill="#9D3782"/>
<path transform="translate(585,481)" d="m0 0 6 12 3 3v2l4 2 4 4v2l4 2v2l4 2 7 3 3 3 14 7 4 1v2h5l6 2 5 1 1 4-6-1h-7l-10-4h-3v-3h-5v-2l-11-2-2-5-5-2v-2l-5 1-1-6h-2l-1-6-3 1-2-6h-2l-5-10z" fill="#CA40A0"/>
<path transform="translate(450,501)" d="m0 0 2 1-2 6-7 4-4 4-5-1v2l-2 1-1 2-5 2-2 3-6 1-2 3-8 1-2 2-14 1-10 2-5 3v-2l-2 1h-11l-5-2-13-1-1-2 25 1 18-2 16-4 12-5 6-3h2v-2l7-3 4-1v-2h3v-2h3v-2h3v-2z" fill="#CB41A1"/>
<path transform="translate(221,1235)" d="m0 0h1l2 13 6 10 6 8 8 8 13 8 14 8 14 5 5 1 26 1-4 2h-19l-15-2-8-3-6-2v-2l-3-1v-2h-2l-1 2v-3h-5v-2l-7-1-5-3v-3l-4-2-1-2h-3l-1-7h-2l-2-7-6-10-2-6v-6z" fill="#CB41A1"/>
<path transform="translate(1090,1354)" d="m0 0h43l2 2-13 1-95 2h-32l4-3 42-1h17z" fill="#C2419C"/>
<path transform="translate(1285,1195)" d="m0 0 5 3 8 2 10 8 3 4-2 9-4 6-11 12-6 5-2-1 13-12 5-8v-9l1-2-4-2-9 1-10-4z" fill="#2C2B2C"/>
<path transform="translate(263,1247)" d="m0 0 6 4 10 7 10 4-1 2 7 5 1 5-1 1h-6l-2-1v-2l-5-2-5-4-4-1v-2l-7-2-4-4v-2l-4-2 1-3z" fill="#2E2E2C"/>
<path transform="translate(1145,502)" d="m0 0 3 1 2 4 5 5 9 8 12 6 17 6 13 2 9 1h30l15-2 20-6 20-10 2 1-16 9-11 5-21 5-7 1h-34l-19-3-22-8-12-7-12-12z" fill="#2B2A2C"/>
<path transform="translate(276,477)" d="m0 0h1l1 10 6 11 2 4 4 2v2l4 2v2l5 2 7 4v2l4 1 12 6 10 3 9 3h3v2h-14l-9-4-8-4-7-2-2-1-3-5-7-3v-2l-4-1v-3l-4-2-2-5-4-3-3-5-1-5z" fill="#CB41A1"/>
<path transform="translate(892,500)" d="m0 0 12 1 7 3 11 5 16 4-4 2-6 1-9-1-14-4-12-7z" fill="#302F2E"/>
<path transform="translate(323,487)" d="m0 0 17 8 6 2-2 5-5 5-5-1-1-4-6-2-4-5-1-6z" fill="#2F312C"/>
<path transform="translate(755,457)" d="m0 0 7 6 14 14 1 9-6 9-6 5-2-1 5-5 2-12v-9l-4-2-5-6-5-5z" fill="#2A292B"/>
<path transform="translate(456,466)" d="m0 0 4 4 4 7 1 2v7l-5 6-24 16-2-1 10-7 13-9 1-6 1-5v-7l-3-4z" fill="#2B2A2C"/>
<path transform="translate(1090,1354)" d="m0 0h43l2 2-13 1h-33z" fill="#CD45A4"/>
<path transform="translate(113,788)" d="m0 0h1v52l-2 4h-1l1-41z" fill="#A13985"/>
<path transform="translate(1042,470)" d="m0 0 1 2h2v2l3 1 5 10v13l-1 3h-2l-1 4-7 6-3 3-5 2 6-7 8-7 3-5v-10l-5-9-5-7z" fill="#CB41A1"/>
<path transform="translate(224,1231)" d="m0 0h1l1 13 8 13 3 4v2h2v2h2l4 5 6 5h-3l-10-9-8-10-6-11z" fill="#2B2A2C"/>
<path transform="translate(655,341)" d="m0 0h62l-2 2h-4l-1 2v-2l-55-1z" fill="#D451AC"/>
<path transform="translate(1321,469)" d="m0 0 5 5 6 8v9l-7 10-7 7h-2v-2l7-6 5-7 1-3v-8l-8-11z" fill="#9D3782"/>
<path transform="translate(1149,1211)" d="m0 0 7 6-2 4-3 2h-4v-2h-2l1-5h2z" fill="#2B2A2C"/>
<path transform="translate(1038,473)" d="m0 0h3l4 6 4 8v7l-1 4h-2v-5h-2v-9l-3-6-1-4z" fill="#2C2C2C"/>
<path transform="translate(1162,476)" d="m0 0h2l6 9v3l-4 2-2-1v-2l-3-1z" fill="#222823"/>
<path transform="translate(368,1243)" d="m0 0 7 6 3 5-1 9-4 5-2-1 4-10 1-4h-2l-3-5-3-3z" fill="#2B2A2C"/>
<path transform="translate(365,1238)" d="m0 0 7 6 6 7 2 4-1 7-3 5-2-1 2-3 1-9-6-8-6-6z" fill="#9D3782"/>
<path transform="translate(340,1289)" d="m0 0 5 1-4 2-6 1v2l-9 2h-10v-1l10-2 11-3z" fill="#CB41A1"/>
<path transform="translate(1299,1237)" d="m0 0 1 3-8 7-6 4h-2v2l-4-1 13-10z" fill="#CB41A1"/>
<path transform="translate(667,1259)" d="m0 0 1 2-4 6-16 14-2-2 8-6 10-10z" fill="#CB41A1"/>
<path transform="translate(1238,509)" d="m0 0h6l-4 1 1 5-4 1-4-2v-4z" fill="#33312F"/>
<path transform="translate(465,488)" d="m0 0v3l-5 6-5 2v2l-3-1z" fill="#CB41A1"/>
<path transform="translate(1159,1220)" d="m0 0 8 6-2 2-5-2-3-3v-2z" fill="#35332F"/>
<path transform="translate(1311,1220)" d="m0 0 1 4-7 9-4 3v-3h2v-2h2l2-4z" fill="#CB41A1"/>
<path transform="translate(335,495)" d="m0 0 8 1-1 3-5 1z" fill="#272F24"/>
<path transform="translate(208,364)" d="m0 0 2 1-4 5-5 2v-4z" fill="#CD45A3"/>
<path transform="translate(714,342)" d="m0 0 9 1 1 2-11 1-2-1v-2z" fill="#CB41A1"/>
<path transform="translate(113,826)" d="m0 0h1v14l-2 4h-1v-7h2z" fill="#B54C8A"/>
<path transform="translate(480,1221)" d="m0 0 4 1 1 3-8 3 1-5h2z" fill="#CB42A1"/>
<path transform="translate(1154,467)" d="m0 0 4 1-1 5h-6l2-1z" fill="#CB41A1"/>
</svg>
