<svg version="1.1" id="Layer_1" xmlns="http://www.w3.org/2000/svg" xmlns:xlink="http://www.w3.org/1999/xlink" x="0px" y="0px"
	 width="100%" viewBox="0 0 3840 2689" enable-background="new 0 0 3840 2689" xml:space="preserve">
<path fill="#FF0000" opacity="1.000000" stroke="none" 
	d="
M2.000000,1436.000000 
	C2.000000,1361.958252 2.000000,1287.916382 2.839722,1213.024902 
	C4.345193,1208.744995 5.519419,1205.325562 5.592448,1201.882690 
	C6.002112,1182.569580 5.834888,1163.240479 6.460659,1143.936279 
	C7.224553,1120.371094 8.663743,1096.828491 9.652912,1073.269653 
	C10.657142,1049.352051 11.168360,1025.410400 12.445452,1001.508728 
	C13.861985,974.997253 15.865685,948.516602 17.678444,922.026978 
	C19.627541,893.544983 21.386078,865.046448 23.708801,836.594421 
	C26.787125,798.886780 29.939445,761.177063 33.788765,723.542786 
	C37.503708,687.222412 41.554165,650.915833 46.516293,614.748413 
	C54.057884,559.780212 63.293747,505.077179 75.892975,450.998810 
	C86.502213,405.461853 101.401230,361.558502 123.592865,320.164886 
	C152.580811,266.094269 190.361374,219.244415 237.080887,179.661194 
	C301.961029,124.691391 376.634064,90.188683 459.934814,73.708031 
	C518.961243,62.029942 578.573181,54.607548 638.350769,48.450283 
	C677.633728,44.404030 717.014771,41.273949 756.379211,38.068203 
	C783.838745,35.831959 811.339783,34.091282 838.831421,32.267727 
	C854.411621,31.234276 870.014709,30.549160 885.599915,29.585079 
	C913.095337,27.884243 940.577087,25.950176 968.080017,24.385891 
	C985.332581,23.404613 1002.612488,22.893845 1019.882202,22.225689 
	C1026.866089,21.955484 1033.861084,21.942892 1040.841675,21.614998 
	C1063.064819,20.571119 1085.279419,19.336685 1107.505493,18.362406 
	C1127.099854,17.503479 1146.706543,16.925142 1166.305664,16.168987 
	C1198.847412,14.913495 1231.385132,13.546922 1263.929199,12.358194 
	C1285.526611,11.569317 1307.130859,10.957022 1328.734741,10.359458 
	C1355.000977,9.632931 1381.267212,8.847012 1407.538574,8.369906 
	C1451.468018,7.572121 1495.401123,6.980890 1539.333252,6.339544 
	C1557.650024,6.072147 1575.968628,5.928351 1594.285156,5.653840 
	C1597.252808,5.609364 1600.233521,5.288396 1603.157837,4.796158 
	C1603.583374,4.724551 1603.726318,2.973762 1604.000000,1.999992 
	C1816.708496,2.000000 2029.416992,2.000000 2242.490234,2.756212 
	C2245.616211,4.235437 2248.364990,5.535495 2251.140381,5.594296 
	C2288.739746,6.390937 2326.344238,6.963842 2363.945312,7.698476 
	C2393.883057,8.283389 2423.819336,8.976042 2453.754395,9.691047 
	C2479.358887,10.302615 2504.962402,10.980957 2530.564453,11.690974 
	C2552.835938,12.308635 2575.107422,12.952924 2597.375244,13.690341 
	C2636.251465,14.977763 2675.127930,16.254850 2713.998047,17.708359 
	C2745.878174,18.900488 2777.752441,20.271736 2809.623291,21.695534 
	C2837.170166,22.926153 2864.712402,24.270563 2892.249756,25.698572 
	C2915.797852,26.919703 2939.342041,28.230480 2962.876953,29.682837 
	C2993.697021,31.584797 3024.520020,33.474903 3055.316406,35.719799 
	C3088.750977,38.157017 3122.181152,40.722507 3155.567627,43.736511 
	C3188.618652,46.720211 3221.626465,50.202240 3254.628174,53.702820 
	C3296.254150,58.118198 3337.624756,64.277313 3378.770020,72.035583 
	C3430.095703,81.713501 3479.194580,97.611076 3525.370117,122.350777 
	C3574.870850,148.872070 3618.371582,182.852524 3656.063965,224.500443 
	C3710.104736,284.213196 3746.283203,353.308350 3766.166016,431.169678 
	C3776.700684,472.423553 3784.845703,514.172852 3791.490967,556.191956 
	C3796.832275,589.964844 3801.468994,623.859863 3805.778320,657.781921 
	C3809.166260,684.450684 3811.765869,711.225159 3814.375488,737.985840 
	C3817.660400,771.670471 3820.699463,805.380066 3823.637207,839.096985 
	C3824.848145,852.994934 3825.460449,866.944092 3826.449951,880.862549 
	C3828.144287,904.695312 3830.061523,928.513123 3831.613281,952.354858 
	C3832.627441,967.938843 3833.186523,983.552917 3833.906250,999.155457 
	C3835.177246,1026.700439 3836.464600,1054.244873 3837.640869,1081.793823 
	C3838.038574,1091.106079 3838.016113,1100.436279 3838.436279,1109.747070 
	C3838.521729,1111.641968 3837.122314,1115.729492 3842.000000,1114.000000 
	C3842.000000,1268.708496 3842.000000,1423.416870 3841.209717,1578.620605 
	C3839.721436,1581.918945 3838.532715,1584.698853 3838.399902,1587.528442 
	C3836.951660,1618.389893 3835.853027,1649.268188 3834.293457,1680.123535 
	C3832.500000,1715.604980 3830.497803,1751.077637 3828.289062,1786.535645 
	C3826.390381,1817.014893 3824.413574,1847.496948 3821.849609,1877.925293 
	C3819.064209,1910.980347 3815.770020,1943.997070 3812.311279,1976.989868 
	C3808.989014,2008.676758 3805.830566,2040.403564 3801.428223,2071.949219 
	C3793.624023,2127.866699 3784.572510,2183.583740 3771.872070,2238.663330 
	C3762.349121,2279.964111 3749.879395,2320.208252 3731.059326,2358.273193 
	C3703.607666,2413.795654 3666.890137,2462.319824 3620.804688,2503.796875 
	C3571.392822,2548.268066 3515.251709,2581.120850 3452.284668,2602.319336 
	C3407.034912,2617.552979 3360.118408,2625.139893 3313.088867,2631.996338 
	C3290.104980,2635.346924 3267.004883,2637.951416 3243.915771,2640.516357 
	C3214.577881,2643.776367 3185.215332,2646.841553 3155.829346,2649.630127 
	C3135.672363,2651.542969 3115.456299,2652.835693 3095.267578,2654.416504 
	C3064.509521,2656.824951 3033.760254,2659.355225 3002.991211,2661.617188 
	C2982.135986,2663.150391 2961.259766,2664.420898 2940.381592,2665.612061 
	C2914.853271,2667.068604 2889.316162,2668.376709 2863.777344,2669.643799 
	C2835.579834,2671.043213 2807.380615,2672.418213 2779.174561,2673.629883 
	C2745.646729,2675.070068 2712.112549,2676.364014 2678.578369,2677.645508 
	C2658.982910,2678.394531 2639.382568,2679.009766 2619.783447,2679.659180 
	C2599.186035,2680.341797 2578.588867,2681.033203 2557.989258,2681.647461 
	C2534.060303,2682.361328 2510.130371,2683.036865 2486.198975,2683.654053 
	C2458.604736,2684.365967 2431.010986,2685.153320 2403.412354,2685.625488 
	C2356.825928,2686.422852 2310.236084,2687.042725 2263.646729,2687.647949 
	C2239.003174,2687.968262 2214.356689,2688.063965 2189.712891,2688.372314 
	C2187.138428,2688.404785 2184.563721,2689.148438 2182.027100,2689.728027 
	C2181.854004,2689.767578 2182.001709,2691.209961 2182.000000,2692.000000 
	C2009.958252,2692.000000 1837.916382,2692.000000 1665.510254,2691.243896 
	C1661.718872,2689.764160 1658.303101,2688.469971 1654.863403,2688.403564 
	C1613.608521,2687.603516 1572.348999,2687.032227 1531.092529,2686.306152 
	C1497.164429,2685.708740 1463.237427,2685.041504 1429.312134,2684.299316 
	C1403.047363,2683.724854 1376.785522,2683.003906 1350.523315,2682.316650 
	C1325.925903,2681.672607 1301.328491,2681.024170 1276.733154,2680.307861 
	C1255.800171,2679.698242 1234.869019,2679.015137 1213.938721,2678.316650 
	C1195.005371,2677.685059 1176.073120,2677.019043 1157.142456,2676.311768 
	C1140.541016,2675.691650 1123.941528,2675.022217 1107.343262,2674.323242 
	C1076.142334,2673.009277 1044.939087,2671.743896 1013.744202,2670.296875 
	C987.869568,2669.096924 962.002686,2667.722168 936.138000,2666.320801 
	C912.930908,2665.063721 889.725281,2663.763672 866.530212,2662.303955 
	C836.384888,2660.407227 806.235107,2658.540771 776.115784,2656.280273 
	C744.020996,2653.871094 711.927368,2651.351074 679.891602,2648.272217 
	C641.581055,2644.590332 603.239563,2640.977539 565.084167,2636.008545 
	C530.536438,2631.509277 496.125122,2625.759277 461.827148,2619.595215 
	C418.416718,2611.792725 376.753815,2598.200928 337.105103,2578.735596 
	C280.574280,2550.981689 231.231903,2513.752686 189.232285,2466.746338 
	C152.284561,2425.394287 123.325630,2379.132080 102.343979,2327.812500 
	C84.882744,2285.103760 74.865669,2240.347900 65.874657,2195.338135 
	C53.901596,2135.400391 45.304340,2074.915527 38.459187,2014.208130 
	C33.180618,1967.394531 28.789724,1920.476074 24.459146,1873.562256 
	C21.958061,1846.467407 20.163353,1819.302124 18.404303,1792.145630 
	C16.193880,1758.020508 14.198208,1723.879761 12.385305,1689.731079 
	C10.835683,1660.541504 9.488474,1631.338257 8.398694,1602.128052 
	C7.456537,1576.874756 7.043354,1551.602173 6.286123,1526.341309 
	C6.177664,1522.723267 5.448901,1519.123779 5.007215,1515.515625 
	C4.004811,1515.677124 3.002406,1515.838501 2.000000,1516.000000 
	C2.000000,1505.290161 2.000000,1494.580200 2.706496,1483.580078 
	C3.884472,1482.834473 4.765673,1482.381226 4.767946,1481.923584 
	C4.838534,1467.714111 4.886078,1453.503174 4.699295,1439.295776 
	C4.684699,1438.185547 2.940394,1437.098022 2.000000,1436.000000 
M2241.403564,1175.650269 
	C2206.256592,1155.328979 2171.120361,1134.988892 2135.960938,1114.689331 
	C1940.860596,1002.047729 1745.755493,889.414673 1550.644897,776.790833 
	C1547.326660,774.875427 1543.920532,773.112244 1539.241577,770.561951 
	C1539.241577,776.016968 1539.240234,779.642151 1539.241699,783.267334 
	C1539.388306,1161.859497 1539.535278,1540.451660 1539.702148,1919.043823 
	C1539.702271,1919.306396 1539.948242,1919.645264 1540.178345,1919.810669 
	C1540.433838,1919.994385 1540.802856,1920.019897 1542.056519,1920.389648 
	C1872.733398,1729.487427 2203.991455,1538.249756 2536.755859,1346.142456 
	C2437.841064,1289.000000 2340.281006,1232.640381 2241.403564,1175.650269 
z"/>
<path fill="#010000" opacity="1.000000" stroke="none" 
	d="
M2.000000,1516.937256 
	C3.002406,1515.838501 4.004811,1515.677124 5.007215,1515.515625 
	C5.448901,1519.123779 6.177664,1522.723267 6.286123,1526.341309 
	C7.043354,1551.602173 7.456537,1576.874756 8.398694,1602.128052 
	C9.488474,1631.338257 10.835683,1660.541504 12.385305,1689.731079 
	C14.198208,1723.879761 16.193880,1758.020508 18.404303,1792.145630 
	C20.163353,1819.302124 21.958061,1846.467407 24.459146,1873.562256 
	C28.789724,1920.476074 33.180618,1967.394531 38.459187,2014.208130 
	C45.304340,2074.915527 53.901596,2135.400391 65.874657,2195.338135 
	C74.865669,2240.347900 84.882744,2285.103760 102.343979,2327.812500 
	C123.325630,2379.132080 152.284561,2425.394287 189.232285,2466.746338 
	C231.231903,2513.752686 280.574280,2550.981689 337.105103,2578.735596 
	C376.753815,2598.200928 418.416718,2611.792725 461.827148,2619.595215 
	C496.125122,2625.759277 530.536438,2631.509277 565.084167,2636.008545 
	C603.239563,2640.977539 641.581055,2644.590332 679.891602,2648.272217 
	C711.927368,2651.351074 744.020996,2653.871094 776.115784,2656.280273 
	C806.235107,2658.540771 836.384888,2660.407227 866.530212,2662.303955 
	C889.725281,2663.763672 912.930908,2665.063721 936.138000,2666.320801 
	C962.002686,2667.722168 987.869568,2669.096924 1013.744202,2670.296875 
	C1044.939087,2671.743896 1076.142334,2673.009277 1107.343262,2674.323242 
	C1123.941528,2675.022217 1140.541016,2675.691650 1157.142456,2676.311768 
	C1176.073120,2677.019043 1195.005371,2677.685059 1213.938721,2678.316650 
	C1234.869019,2679.015137 1255.800171,2679.698242 1276.733154,2680.307861 
	C1301.328491,2681.024170 1325.925903,2681.672607 1350.523315,2682.316650 
	C1376.785522,2683.003906 1403.047363,2683.724854 1429.312134,2684.299316 
	C1463.237427,2685.041504 1497.164429,2685.708740 1531.092529,2686.306152 
	C1572.348999,2687.032227 1613.608521,2687.603516 1654.863403,2688.403564 
	C1658.303101,2688.469971 1661.718872,2689.764160 1664.572876,2691.243896 
	C1110.170776,2692.000000 556.341553,2692.000000 2.000000,2692.000000 
	C2.000000,2300.625000 2.000000,1909.249878 2.000000,1516.937256 
z"/>
<path fill="#010000" opacity="1.000000" stroke="none" 
	d="
M1603.062744,1.999992 
	C1603.726318,2.973762 1603.583374,4.724551 1603.157837,4.796158 
	C1600.233521,5.288396 1597.252808,5.609364 1594.285156,5.653840 
	C1575.968628,5.928351 1557.650024,6.072147 1539.333252,6.339544 
	C1495.401123,6.980890 1451.468018,7.572121 1407.538574,8.369906 
	C1381.267212,8.847012 1355.000977,9.632931 1328.734741,10.359458 
	C1307.130859,10.957022 1285.526611,11.569317 1263.929199,12.358194 
	C1231.385132,13.546922 1198.847412,14.913495 1166.305664,16.168987 
	C1146.706543,16.925142 1127.099854,17.503479 1107.505493,18.362406 
	C1085.279419,19.336685 1063.064819,20.571119 1040.841675,21.614998 
	C1033.861084,21.942892 1026.866089,21.955484 1019.882202,22.225689 
	C1002.612488,22.893845 985.332581,23.404613 968.080017,24.385891 
	C940.577087,25.950176 913.095337,27.884243 885.599915,29.585079 
	C870.014709,30.549160 854.411621,31.234276 838.831421,32.267727 
	C811.339783,34.091282 783.838745,35.831959 756.379211,38.068203 
	C717.014771,41.273949 677.633728,44.404030 638.350769,48.450283 
	C578.573181,54.607548 518.961243,62.029942 459.934814,73.708031 
	C376.634064,90.188683 301.961029,124.691391 237.080887,179.661194 
	C190.361374,219.244415 152.580811,266.094269 123.592865,320.164886 
	C101.401230,361.558502 86.502213,405.461853 75.892975,450.998810 
	C63.293747,505.077179 54.057884,559.780212 46.516293,614.748413 
	C41.554165,650.915833 37.503708,687.222412 33.788765,723.542786 
	C29.939445,761.177063 26.787125,798.886780 23.708801,836.594421 
	C21.386078,865.046448 19.627541,893.544983 17.678444,922.026978 
	C15.865685,948.516602 13.861985,974.997253 12.445452,1001.508728 
	C11.168360,1025.410400 10.657142,1049.352051 9.652912,1073.269653 
	C8.663743,1096.828491 7.224553,1120.371094 6.460659,1143.936279 
	C5.834888,1163.240479 6.002112,1182.569580 5.592448,1201.882690 
	C5.519419,1205.325562 4.345193,1208.744995 2.839722,1212.087646 
	C2.000000,808.792114 2.000000,405.584259 2.000000,2.000000 
	C535.375061,2.000000 1068.750244,2.000000 1603.062744,1.999992 
z"/>
<path fill="#010000" opacity="1.000000" stroke="none" 
	d="
M2182.937500,2692.000000 
	C2182.001709,2691.209961 2181.854004,2689.767578 2182.027100,2689.728027 
	C2184.563721,2689.148438 2187.138428,2688.404785 2189.712891,2688.372314 
	C2214.356689,2688.063965 2239.003174,2687.968262 2263.646729,2687.647949 
	C2310.236084,2687.042725 2356.825928,2686.422852 2403.412354,2685.625488 
	C2431.010986,2685.153320 2458.604736,2684.365967 2486.198975,2683.654053 
	C2510.130371,2683.036865 2534.060303,2682.361328 2557.989258,2681.647461 
	C2578.588867,2681.033203 2599.186035,2680.341797 2619.783447,2679.659180 
	C2639.382568,2679.009766 2658.982910,2678.394531 2678.578369,2677.645508 
	C2712.112549,2676.364014 2745.646729,2675.070068 2779.174561,2673.629883 
	C2807.380615,2672.418213 2835.579834,2671.043213 2863.777344,2669.643799 
	C2889.316162,2668.376709 2914.853271,2667.068604 2940.381592,2665.612061 
	C2961.259766,2664.420898 2982.135986,2663.150391 3002.991211,2661.617188 
	C3033.760254,2659.355225 3064.509521,2656.824951 3095.267578,2654.416504 
	C3115.456299,2652.835693 3135.672363,2651.542969 3155.829346,2649.630127 
	C3185.215332,2646.841553 3214.577881,2643.776367 3243.915771,2640.516357 
	C3267.004883,2637.951416 3290.104980,2635.346924 3313.088867,2631.996338 
	C3360.118408,2625.139893 3407.034912,2617.552979 3452.284668,2602.319336 
	C3515.251709,2581.120850 3571.392822,2548.268066 3620.804688,2503.796875 
	C3666.890137,2462.319824 3703.607666,2413.795654 3731.059326,2358.273193 
	C3749.879395,2320.208252 3762.349121,2279.964111 3771.872070,2238.663330 
	C3784.572510,2183.583740 3793.624023,2127.866699 3801.428223,2071.949219 
	C3805.830566,2040.403564 3808.989014,2008.676758 3812.311279,1976.989868 
	C3815.770020,1943.997070 3819.064209,1910.980347 3821.849609,1877.925293 
	C3824.413574,1847.496948 3826.390381,1817.014893 3828.289062,1786.535645 
	C3830.497803,1751.077637 3832.500000,1715.604980 3834.293457,1680.123535 
	C3835.853027,1649.268188 3836.951660,1618.389893 3838.399902,1587.528442 
	C3838.532715,1584.698853 3839.721436,1581.918945 3841.209717,1579.557983 
	C3842.000000,1950.549683 3842.000000,2321.099365 3842.000000,2692.000000 
	C3289.291504,2692.000000 2736.583008,2692.000000 2182.937500,2692.000000 
z"/>
<path fill="#010000" opacity="1.000000" stroke="none" 
	d="
M3842.000000,1113.062744 
	C3837.122314,1115.729492 3838.521729,1111.641968 3838.436279,1109.747070 
	C3838.016113,1100.436279 3838.038574,1091.106079 3837.640869,1081.793823 
	C3836.464600,1054.244873 3835.177246,1026.700439 3833.906250,999.155457 
	C3833.186523,983.552917 3832.627441,967.938843 3831.613281,952.354858 
	C3830.061523,928.513123 3828.144287,904.695312 3826.449951,880.862549 
	C3825.460449,866.944092 3824.848145,852.994934 3823.637207,839.096985 
	C3820.699463,805.380066 3817.660400,771.670471 3814.375488,737.985840 
	C3811.765869,711.225159 3809.166260,684.450684 3805.778320,657.781921 
	C3801.468994,623.859863 3796.832275,589.964844 3791.490967,556.191956 
	C3784.845703,514.172852 3776.700684,472.423553 3766.166016,431.169678 
	C3746.283203,353.308350 3710.104736,284.213196 3656.063965,224.500443 
	C3618.371582,182.852524 3574.870850,148.872070 3525.370117,122.350777 
	C3479.194580,97.611076 3430.095703,81.713501 3378.770020,72.035583 
	C3337.624756,64.277313 3296.254150,58.118198 3254.628174,53.702820 
	C3221.626465,50.202240 3188.618652,46.720211 3155.567627,43.736511 
	C3122.181152,40.722507 3088.750977,38.157017 3055.316406,35.719799 
	C3024.520020,33.474903 2993.697021,31.584797 2962.876953,29.682837 
	C2939.342041,28.230480 2915.797852,26.919703 2892.249756,25.698572 
	C2864.712402,24.270563 2837.170166,22.926153 2809.623291,21.695534 
	C2777.752441,20.271736 2745.878174,18.900488 2713.998047,17.708359 
	C2675.127930,16.254850 2636.251465,14.977763 2597.375244,13.690341 
	C2575.107422,12.952924 2552.835938,12.308635 2530.564453,11.690974 
	C2504.962402,10.980957 2479.358887,10.302615 2453.754395,9.691047 
	C2423.819336,8.976042 2393.883057,8.283389 2363.945312,7.698476 
	C2326.344238,6.963842 2288.739746,6.390937 2251.140381,5.594296 
	C2248.364990,5.535495 2245.616211,4.235437 2243.427490,2.756212 
	C2776.494629,2.000000 3308.989502,2.000000 3842.000000,2.000000 
	C3842.000000,372.041626 3842.000000,742.083496 3842.000000,1113.062744 
z"/>
<path fill="#4E0000" opacity="1.000000" stroke="none" 
	d="
M2.000000,1436.937256 
	C2.940394,1437.098022 4.684699,1438.185547 4.699295,1439.295776 
	C4.886078,1453.503174 4.838534,1467.714111 4.767946,1481.923584 
	C4.765673,1482.381226 3.884472,1482.834473 2.706496,1482.644897 
	C2.000000,1467.291504 2.000000,1452.583008 2.000000,1436.937256 
z"/>
<path fill="#FFFFFF" opacity="1.000000" stroke="none" 
	d="
M2242.062500,1175.965454 
	C2340.281006,1232.640381 2437.841064,1289.000000 2536.755859,1346.142456 
	C2203.991455,1538.249756 1872.733398,1729.487427 1542.056519,1920.389648 
	C1540.802856,1920.019897 1540.433838,1919.994385 1540.178345,1919.810669 
	C1539.948242,1919.645264 1539.702271,1919.306396 1539.702148,1919.043823 
	C1539.535278,1540.451660 1539.388306,1161.859497 1539.241699,783.267334 
	C1539.240234,779.642151 1539.241577,776.016968 1539.241577,770.561951 
	C1543.920532,773.112244 1547.326660,774.875427 1550.644897,776.790833 
	C1745.755493,889.414673 1940.860596,1002.047729 2135.960938,1114.689331 
	C2171.120361,1134.988892 2206.256592,1155.328979 2242.062500,1175.965454 
z"/>
</svg>